<?xml version="1.0" encoding="utf-8"?>
<!-- Generator: Adobe Illustrator 22.0.1, SVG Export Plug-In . SVG Version: 6.00 Build 0)  -->
<svg version="1.1" id="Layer_1" xmlns="http://www.w3.org/2000/svg" xmlns:xlink="http://www.w3.org/1999/xlink" x="0px" y="0px"
	 viewBox="0 0 258.3 125" style="enable-background:new 0 0 258.3 125;" xml:space="preserve">
<style type="text/css">
	.st0{clip-path:url(#SVGID_2_);}
	.st1{clip-path:url(#SVGID_4_);}
	.st2{fill:#FFFFFF;}
	.st3{clip-path:url(#SVGID_6_);}
	.st4{clip-path:url(#SVGID_8_);}
	.st5{fill:#010101;}
	.st6{clip-path:url(#SVGID_10_);}
	.st7{clip-path:url(#SVGID_12_);}
</style>
<title>panther</title>
<g>
	<g>
		<g>
			<defs>
				<polygon id="SVGID_1_" points="87.5,65.6 23.5,107.9 13.9,108.2 4.2,97.5 7.8,77.6 32.8,71.8 37.3,76.5 29.2,78.4 12.3,83.1 
					9.6,96.3 16.8,101 29.2,97.2 87.3,55.7 106.9,50 139,44.4 170.3,32.4 178.3,26.1 186.3,26.1 192.6,21.8 197,20.8 201.5,14.2 
					206.9,13.2 207.8,7.3 210.4,9.9 219.4,9.9 221.1,7.2 229.2,7.2 235.4,4.2 238.1,4.5 240.8,4.5 242.6,7.2 248.8,7.2 250.6,9 
					254.2,12.1 253.3,15.3 252.4,15.3 250.6,20.9 249.7,26.1 248.8,26.1 247.9,23.4 241.7,23.4 237.2,26.4 237.2,39.6 242.8,38 
					236.3,47.8 230.1,47.8 227,46.2 227,39.6 216.2,31.1 212,22.6 214.8,32.1 226.5,40.6 225.6,43.4 221.1,44.4 222,62.3 
					217.6,68.9 221.8,84 229.5,94.4 229.5,100.1 240.8,110.4 248.8,109.5 252.4,114.2 250.6,120.8 235.4,119.9 196.1,81.2 
					168.5,83.1 155.1,77.4 136.4,75.5 115.8,81.2 99.8,95.3 71.2,101.9 66.7,109.5 72.1,114.2 70.3,118.9 58.7,120.8 55.1,118 
					59.6,96.3 72.1,90.6 85.5,77.4 96.2,61.4 105.1,54.7 94.4,60.4 91.7,64.2 				"/>
			</defs>
			<clipPath id="SVGID_2_">
				<use xlink:href="#SVGID_1_"  style="overflow:visible;"/>
			</clipPath>
			<g class="st0">
				<g>
					<defs>
						<rect id="SVGID_3_" x="-37.5" y="-104.2" width="333.3" height="333.3"/>
					</defs>
					<clipPath id="SVGID_4_">
						<use xlink:href="#SVGID_3_"  style="overflow:visible;"/>
					</clipPath>
					<g class="st1">
						<rect class="st2" width="258.3" height="125"/>
					</g>
				</g>
				<g>
					<defs>
						<polygon id="SVGID_5_" points="123.4,82.1 128.1,87.9 123.5,104.2 136.4,117.9 148.1,117.9 148.1,111.2 145.2,109.3 
							141.3,111.2 135.2,102.6 143.6,90.3 141.8,79 136.4,77.1 						"/>
					</defs>
					<clipPath id="SVGID_6_">
						<use xlink:href="#SVGID_5_"  style="overflow:visible;"/>
					</clipPath>
					<g class="st3">
						<g>
							<defs>
								<rect id="SVGID_7_" x="-37.5" y="-104.2" width="333.3" height="333.3"/>
							</defs>
							<clipPath id="SVGID_8_">
								<use xlink:href="#SVGID_7_"  style="overflow:visible;"/>
							</clipPath>
							<g class="st4">
								<rect x="119.2" y="72.9" class="st5" width="33" height="49.2"/>
							</g>
						</g>
						<g id="Layer_2_1_">
							<defs>
								<polygon id="SVGID_9_" points="172.8,84.9 187.7,82.9 183,96.8 184.6,108 189.3,108.9 191.7,113.1 190.9,116.5 178.3,116.5 
									174.4,102.7 								"/>
							</defs>
							<clipPath id="SVGID_10_">
								<use xlink:href="#SVGID_9_"  style="overflow:visible;"/>
							</clipPath>
							<g id="Layer_1-2" class="st6">
								<g>
									<defs>
										<rect id="SVGID_11_" x="-37.5" y="-104.2" width="333.3" height="333.3"/>
									</defs>
									<clipPath id="SVGID_12_">
										<use xlink:href="#SVGID_11_"  style="overflow:visible;"/>
									</clipPath>
									<g class="st7">
										<rect x="168.6" y="78.8" class="st5" width="27.2" height="41.9"/>
									</g>
								</g>
							</g>
						</g>
					</g>
				</g>
			</g>
		</g>
	</g>
</g>
</svg>
