<svg xmlns="http://www.w3.org/2000/svg" viewBox="0 0 250 236.3"><defs><style>.cls-1{fill:#010101;}</style></defs><title>business</title><g id="Layer_2" data-name="Layer 2"><g id="Layer_1-2" data-name="Layer 1"><path class="cls-1" d="M167.81,226H147.26v-36H137v36H113v-36H102.74v36H82.19a5.14,5.14,0,1,0,0,10.27h85.62a5.14,5.14,0,1,0,0-10.27Z"/><path class="cls-1" d="M238,0H12A12,12,0,0,0,0,12V169.52a12,12,0,0,0,12,12H238a12,12,0,0,0,12-12V12A12,12,0,0,0,238,0ZM75.92,148.94a5.14,5.14,0,1,1-10.27,0V134.73a5.14,5.14,0,1,1,10.27,0Zm21.68,0a5.14,5.14,0,1,1-10.27,0V119.52a5.14,5.14,0,1,1,10.27,0Zm21.68,0a5.14,5.14,0,1,1-10.27,0V112.09a5.14,5.14,0,1,1,10.27,0Zm21.71,0a5.14,5.14,0,1,1-10.27,0V122.36a5.14,5.14,0,0,1,10.27,0Zm21.68,0a5.14,5.14,0,1,1-10.27,0V104.66a5.14,5.14,0,1,1,10.27,0Zm21.68,0a5.14,5.14,0,1,1-10.27,0V85.41a5.14,5.14,0,1,1,10.27,0ZM205.58,36.58l-5.75,27.91a5.16,5.16,0,0,1-5,4.11,5.79,5.79,0,0,1-1.06-.11,5.16,5.16,0,0,1-4-6.06L193,46.78,138.7,83.05a5.24,5.24,0,0,1-5.07.37l-19.11-9L47.29,117.43a5.13,5.13,0,0,1-5.54-8.63l69.62-44.62a5.15,5.15,0,0,1,5-.31l19,9,52.05-34.79-15.82-3.29a5.14,5.14,0,1,1,2-10.07l27.92,5.75A5.13,5.13,0,0,1,205.58,36.58Z"/></g></g></svg>