<svg xmlns="http://www.w3.org/2000/svg" viewBox="0 0 250 250"><defs><style>.cls-1{fill:#fff;}</style></defs><title>px-bitcoin</title><g id="Layer_2" data-name="Layer 2"><g id="Layer_1-2" data-name="Layer 1"><path class="cls-1" d="M125,250A125,125,0,1,1,250,125,125,125,0,0,1,125,250Zm56.16-140.47c2.46-16.37-10-25.18-27.07-31l5.53-22.19-13.5-3.36-5.39,21.6c-3.54-.89-7.18-1.72-10.82-2.55l5.43-21.74-13.5-3.36-5.53,22.17c-2.94-.67-5.83-1.32-8.62-2V67L89.08,62.3l-3.6,14.43s10,2.29,9.82,2.43c5.47,1.37,6.45,5,6.29,7.86l-6.3,25.28a11.81,11.81,0,0,1,1.41.44l-1.43-.35L86.44,147.8a4.93,4.93,0,0,1-6.2,3.2c.14.2-9.81-2.45-9.81-2.45L63.73,164l17.57,4.38c3.27.82,6.47,1.68,9.62,2.49l-5.58,22.43,13.49,3.36,5.53-22.19c3.69,1,7.27,1.92,10.77,2.79l-5.52,22.1,13.5,3.36,5.59-22.39c23,4.36,40.34,2.6,47.63-18.23,5.87-16.77-.29-26.45-12.41-32.75C172.75,127.33,179.39,121.52,181.16,109.53ZM150.3,152.8c-4.16,16.77-32.4,7.7-41.56,5.43l7.42-29.73C125.32,130.79,154.67,135.31,150.3,152.8Zm4.18-43.51c-3.8,15.26-27.3,7.5-34.92,5.6l6.72-26.95C133.9,89.84,158.45,93.38,154.48,109.29Z"/></g></g></svg>