<svg xmlns="http://www.w3.org/2000/svg" viewBox="0 0 250 250"><defs><style>.cls-1{fill:#fff;}</style></defs><title>browser</title><g id="Layer_2" data-name="Layer 2"><g id="Layer_1-2" data-name="Layer 1"><path class="cls-1" d="M218.37,208a124.68,124.68,0,0,0,.19-165.76,7.77,7.77,0,0,0-.79-.93,124.81,124.81,0,0,0-185.51,0,5.58,5.58,0,0,0-.82.93,124.67,124.67,0,0,0,0,165.54,6.29,6.29,0,0,0,.79.92,124.83,124.83,0,0,0,185.54,0C218,208.47,218.18,208.23,218.37,208ZM11,130.43H59.78a220.08,220.08,0,0,0,8.15,55.95,154.38,154.38,0,0,0-30.7,11.47A113.48,113.48,0,0,1,11,130.43ZM37.23,52.15a154.35,154.35,0,0,0,30.7,11.46,220.21,220.21,0,0,0-8.15,56H10.87A113.47,113.47,0,0,1,37.23,52.15Zm201.9,67.41H190.22a219.77,219.77,0,0,0-8.16-55.95,154.21,154.21,0,0,0,30.71-11.46A113.47,113.47,0,0,1,239.13,119.56ZM119.56,59.78a215.49,215.49,0,0,1-37.39-4c9-24.26,22.39-41.06,37.39-44.34ZM78.8,66.11a227.12,227.12,0,0,0,40.76,4.54v48.91H70.65A207.24,207.24,0,0,1,78.8,66.11Zm40.76,64.32v48.92A227,227,0,0,0,78.8,183.8a207.43,207.43,0,0,1-8.15-53.37Zm0,59.78v48.32c-15-3.29-28.42-20.08-37.39-44.27A216.57,216.57,0,0,1,119.56,190.21Zm10.87,0a215.29,215.29,0,0,1,37.39,4c-9,24.19-22.39,41-37.39,44.27Zm40.76-6.41a226.81,226.81,0,0,0-40.76-4.45V130.43h48.92a207.55,207.55,0,0,1-8.16,53.45Zm-40.76-64.24V70.65a226.82,226.82,0,0,0,40.76-4.46,207,207,0,0,1,8.16,53.37Zm0-59.78V11.47c15,3.28,28.43,20.08,37.39,44.26A214.42,214.42,0,0,1,130.43,59.78Zm48.26-6.47a107.44,107.44,0,0,0-21.87-37.9A114.1,114.1,0,0,1,205.11,43.8a146.61,146.61,0,0,1-26.42,9.43Zm-107.39,0a146.78,146.78,0,0,1-26.41-9.43A114.25,114.25,0,0,1,93.18,15.41,107.67,107.67,0,0,0,71.3,53.23Zm0,143.54a107.67,107.67,0,0,0,21.88,37.82,114.16,114.16,0,0,1-48.29-28.48,148.34,148.34,0,0,1,26.41-9.43Zm107.39,0a147.34,147.34,0,0,1,26.42,9.42,114.12,114.12,0,0,1-48.29,28.32,107.45,107.45,0,0,0,21.87-37.83Zm3.37-10.47a219.65,219.65,0,0,0,8.16-55.95h48.91a113.47,113.47,0,0,1-26.36,67.42A154.24,154.24,0,0,0,182.06,186.38Z"/></g></g></svg>