<?xml version="1.0" encoding="UTF-8" standalone="no"?>
<svg
   version="1.1"
   x="0px"
   y="0px"
   viewBox="0 0 500 500"
   xml:space="preserve"
   id="svg330"
   sodipodi:docname="cpu_white.svg"
   width="500"
   height="500"
   inkscape:version="1.1 (c68e22c387, 2021-05-23)"
   xmlns:inkscape="http://www.inkscape.org/namespaces/inkscape"
   xmlns:sodipodi="http://sodipodi.sourceforge.net/DTD/sodipodi-0.dtd"
   xmlns="http://www.w3.org/2000/svg"
   xmlns:svg="http://www.w3.org/2000/svg"><defs
     id="defs334" /><sodipodi:namedview
     id="namedview332"
     pagecolor="#ffffff"
     bordercolor="#666666"
     borderopacity="1.0"
     inkscape:pageshadow="2"
     inkscape:pageopacity="0.0"
     inkscape:pagecheckerboard="0"
     showgrid="false"
     width="500px"
     inkscape:zoom="1.32"
     inkscape:cx="0.37878788"
     inkscape:cy="265.90909"
     inkscape:window-width="2560"
     inkscape:window-height="1371"
     inkscape:window-x="0"
     inkscape:window-y="0"
     inkscape:window-maximized="1"
     inkscape:current-layer="svg330" /><path
     d="M 461.6721,490.00393 H 40.682477 c -15.165333,0 -27.297599,-12.13227 -27.297599,-27.2976 V 38.077019 c 0,-15.165333 12.132266,-27.297598 27.297599,-27.297598 H 461.06549 c 15.16533,0 27.29759,12.132265 27.29759,27.297598 V 462.70633 c 0.60662,15.16533 -11.52565,27.2976 -26.69098,27.2976 z M 40.682477,28.977819 c -4.852906,0 -9.0992,4.246294 -9.0992,9.0992 V 462.70633 c 0,4.8529 4.246294,9.0992 9.0992,9.0992 H 461.06549 c 4.8529,0 9.09919,-4.2463 9.09919,-9.0992 V 38.077019 c 0,-4.852906 -4.24629,-9.0992 -9.09919,-9.0992 z"
     id="path2"
     style="stroke-width:6.06613;fill:#ffffff" /><path
     d="M 323.36427,350.48287 H 178.99031 c -15.16533,0 -27.2976,-12.13227 -27.2976,-27.2976 v -145.5872 c 0,-15.16532 12.13227,-27.29759 27.2976,-27.29759 h 144.37396 c 15.16533,0 27.29759,12.13227 27.29759,27.29759 v 145.5872 c 0,15.16533 -12.13226,27.2976 -27.29759,27.2976 z m -144.37396,-181.984 c -4.85291,0 -9.09921,4.2463 -9.09921,9.0992 v 145.5872 c 0,4.85291 4.2463,9.0992 9.09921,9.0992 h 144.37396 c 4.8529,0 9.0992,-4.24629 9.0992,-9.0992 v -145.5872 c 0,-4.8529 -4.2463,-9.0992 -9.0992,-9.0992 z"
     id="path4"
     style="stroke-width:6.06613;fill:#ffffff" /><circle
     cx="55.241199"
     cy="53.848969"
     r="10.919039"
     id="circle6"
     style="stroke-width:6.06613;fill:#ffffff" /><circle
     cx="94.671059"
     cy="53.848969"
     r="10.919039"
     id="circle8"
     style="stroke-width:6.06613;fill:#ffffff" /><circle
     cx="133.49431"
     cy="53.848969"
     r="10.919039"
     id="circle10"
     style="stroke-width:6.06613;fill:#ffffff" /><circle
     cx="172.92416"
     cy="53.848969"
     r="10.919039"
     id="circle12"
     style="stroke-width:6.06613;fill:#ffffff" /><circle
     cx="211.74742"
     cy="53.848969"
     r="10.919039"
     id="circle14"
     style="stroke-width:6.06613;fill:#ffffff" /><circle
     cx="251.17731"
     cy="53.848969"
     r="10.919039"
     id="circle16"
     style="stroke-width:6.06613;fill:#ffffff" /><circle
     cx="290.60712"
     cy="53.848969"
     r="10.919039"
     id="circle18"
     style="stroke-width:6.06613;fill:#ffffff" /><circle
     cx="329.43039"
     cy="53.848969"
     r="10.919039"
     id="circle20"
     style="stroke-width:6.06613;fill:#ffffff" /><circle
     cx="368.86026"
     cy="53.848969"
     r="10.919039"
     id="circle22"
     style="stroke-width:6.06613;fill:#ffffff" /><circle
     cx="407.6835"
     cy="53.848969"
     r="10.919039"
     id="circle24"
     style="stroke-width:6.06613;fill:#ffffff" /><circle
     cx="447.1134"
     cy="53.848969"
     r="10.919039"
     id="circle26"
     style="stroke-width:6.06613;fill:#ffffff" /><circle
     cx="55.241199"
     cy="93.278831"
     r="10.919039"
     id="circle28"
     style="stroke-width:6.06613;fill:#ffffff" /><circle
     cx="94.671059"
     cy="93.278831"
     r="10.919039"
     id="circle30"
     style="stroke-width:6.06613;fill:#ffffff" /><circle
     cx="133.49431"
     cy="93.278831"
     r="10.919039"
     id="circle32"
     style="stroke-width:6.06613;fill:#ffffff" /><circle
     cx="172.92416"
     cy="93.278831"
     r="10.919039"
     id="circle34"
     style="stroke-width:6.06613;fill:#ffffff" /><circle
     cx="211.74742"
     cy="93.278831"
     r="10.919039"
     id="circle36"
     style="stroke-width:6.06613;fill:#ffffff" /><circle
     cx="251.17731"
     cy="93.278831"
     r="10.919039"
     id="circle38"
     style="stroke-width:6.06613;fill:#ffffff" /><circle
     cx="290.60712"
     cy="93.278831"
     r="10.919039"
     id="circle40"
     style="stroke-width:6.06613;fill:#ffffff" /><circle
     cx="329.43039"
     cy="93.278831"
     r="10.919039"
     id="circle42"
     style="stroke-width:6.06613;fill:#ffffff" /><circle
     cx="368.86026"
     cy="93.278831"
     r="10.919039"
     id="circle44"
     style="stroke-width:6.06613;fill:#ffffff" /><circle
     cx="407.6835"
     cy="93.278831"
     r="10.919039"
     id="circle46"
     style="stroke-width:6.06613;fill:#ffffff" /><circle
     cx="447.1134"
     cy="93.278831"
     r="10.919039"
     id="circle48"
     style="stroke-width:6.06613;fill:#ffffff" /><circle
     cx="55.241199"
     cy="132.70869"
     r="10.919039"
     id="circle50"
     style="stroke-width:6.06613;fill:#ffffff" /><circle
     cx="94.671059"
     cy="132.70869"
     r="10.919039"
     id="circle52"
     style="stroke-width:6.06613;fill:#ffffff" /><circle
     cx="133.49431"
     cy="132.70869"
     r="10.919039"
     id="circle54"
     style="stroke-width:6.06613;fill:#ffffff" /><circle
     cx="172.92416"
     cy="132.70869"
     r="10.919039"
     id="circle56"
     style="stroke-width:6.06613;fill:#ffffff" /><circle
     cx="211.74742"
     cy="132.70869"
     r="10.919039"
     id="circle58"
     style="stroke-width:6.06613;fill:#ffffff" /><circle
     cx="251.17731"
     cy="132.70869"
     r="10.919039"
     id="circle60"
     style="stroke-width:6.06613;fill:#ffffff" /><circle
     cx="290.60712"
     cy="132.70869"
     r="10.919039"
     id="circle62"
     style="stroke-width:6.06613;fill:#ffffff" /><circle
     cx="329.43039"
     cy="132.70869"
     r="10.919039"
     id="circle64"
     style="stroke-width:6.06613;fill:#ffffff" /><circle
     cx="368.86026"
     cy="132.70869"
     r="10.919039"
     id="circle66"
     style="stroke-width:6.06613;fill:#ffffff" /><circle
     cx="407.6835"
     cy="132.70869"
     r="10.919039"
     id="circle68"
     style="stroke-width:6.06613;fill:#ffffff" /><circle
     cx="447.1134"
     cy="132.70869"
     r="10.919039"
     id="circle70"
     style="stroke-width:6.06613;fill:#ffffff" /><circle
     cx="55.241199"
     cy="172.13855"
     r="10.919039"
     id="circle72"
     style="stroke-width:6.06613;fill:#ffffff" /><circle
     cx="94.671059"
     cy="172.13855"
     r="10.919039"
     id="circle74"
     style="stroke-width:6.06613;fill:#ffffff" /><circle
     cx="133.49431"
     cy="172.13855"
     r="10.919039"
     id="circle76"
     style="stroke-width:6.06613;fill:#ffffff" /><circle
     cx="368.86026"
     cy="172.13855"
     r="10.919039"
     id="circle78"
     style="stroke-width:6.06613;fill:#ffffff" /><circle
     cx="407.6835"
     cy="172.13855"
     r="10.919039"
     id="circle80"
     style="stroke-width:6.06613;fill:#ffffff" /><circle
     cx="447.1134"
     cy="172.13855"
     r="10.919039"
     id="circle82"
     style="stroke-width:6.06613;fill:#ffffff" /><circle
     cx="55.241199"
     cy="210.96182"
     r="10.919039"
     id="circle84"
     style="stroke-width:6.06613;fill:#ffffff" /><circle
     cx="94.671059"
     cy="210.96182"
     r="10.919039"
     id="circle86"
     style="stroke-width:6.06613;fill:#ffffff" /><circle
     cx="133.49431"
     cy="210.96182"
     r="10.919039"
     id="circle88"
     style="stroke-width:6.06613;fill:#ffffff" /><circle
     cx="368.86026"
     cy="210.96182"
     r="10.919039"
     id="circle90"
     style="stroke-width:6.06613;fill:#ffffff" /><circle
     cx="407.6835"
     cy="210.96182"
     r="10.919039"
     id="circle92"
     style="stroke-width:6.06613;fill:#ffffff" /><circle
     cx="447.1134"
     cy="210.96182"
     r="10.919039"
     id="circle94"
     style="stroke-width:6.06613;fill:#ffffff" /><circle
     cx="55.241199"
     cy="250.39168"
     r="10.919039"
     id="circle96"
     style="stroke-width:6.06613;fill:#ffffff" /><circle
     cx="94.671059"
     cy="250.39168"
     r="10.919039"
     id="circle98"
     style="stroke-width:6.06613;fill:#ffffff" /><circle
     cx="133.49431"
     cy="250.39168"
     r="10.919039"
     id="circle100"
     style="stroke-width:6.06613;fill:#ffffff" /><circle
     cx="368.86026"
     cy="250.39168"
     r="10.919039"
     id="circle102"
     style="stroke-width:6.06613;fill:#ffffff" /><circle
     cx="407.6835"
     cy="250.39168"
     r="10.919039"
     id="circle104"
     style="stroke-width:6.06613;fill:#ffffff" /><circle
     cx="447.1134"
     cy="250.39168"
     r="10.919039"
     id="circle106"
     style="stroke-width:6.06613;fill:#ffffff" /><circle
     cx="55.241199"
     cy="289.82156"
     r="10.919039"
     id="circle108"
     style="stroke-width:6.06613;fill:#ffffff" /><circle
     cx="94.671059"
     cy="289.82156"
     r="10.919039"
     id="circle110"
     style="stroke-width:6.06613;fill:#ffffff" /><circle
     cx="133.49431"
     cy="289.82156"
     r="10.919039"
     id="circle112"
     style="stroke-width:6.06613;fill:#ffffff" /><circle
     cx="368.86026"
     cy="289.82156"
     r="10.919039"
     id="circle114"
     style="stroke-width:6.06613;fill:#ffffff" /><circle
     cx="407.6835"
     cy="289.82156"
     r="10.919039"
     id="circle116"
     style="stroke-width:6.06613;fill:#ffffff" /><circle
     cx="447.1134"
     cy="289.82156"
     r="10.919039"
     id="circle118"
     style="stroke-width:6.06613;fill:#ffffff" /><circle
     cx="55.241199"
     cy="329.2514"
     r="10.919039"
     id="circle120"
     style="stroke-width:6.06613;fill:#ffffff" /><circle
     cx="94.671059"
     cy="329.2514"
     r="10.919039"
     id="circle122"
     style="stroke-width:6.06613;fill:#ffffff" /><circle
     cx="133.49431"
     cy="329.2514"
     r="10.919039"
     id="circle124"
     style="stroke-width:6.06613;fill:#ffffff" /><circle
     cx="368.86026"
     cy="329.2514"
     r="10.919039"
     id="circle126"
     style="stroke-width:6.06613;fill:#ffffff" /><circle
     cx="407.6835"
     cy="329.2514"
     r="10.919039"
     id="circle128"
     style="stroke-width:6.06613;fill:#ffffff" /><circle
     cx="447.1134"
     cy="329.2514"
     r="10.919039"
     id="circle130"
     style="stroke-width:6.06613;fill:#ffffff" /><circle
     cx="55.241199"
     cy="368.68127"
     r="10.919039"
     id="circle132"
     style="stroke-width:6.06613;fill:#ffffff" /><circle
     cx="94.671059"
     cy="368.68127"
     r="10.919039"
     id="circle134"
     style="stroke-width:6.06613;fill:#ffffff" /><circle
     cx="133.49431"
     cy="368.68127"
     r="10.919039"
     id="circle136"
     style="stroke-width:6.06613;fill:#ffffff" /><circle
     cx="172.92416"
     cy="368.68127"
     r="10.919039"
     id="circle138"
     style="stroke-width:6.06613;fill:#ffffff" /><circle
     cx="211.74742"
     cy="368.68127"
     r="10.919039"
     id="circle140"
     style="stroke-width:6.06613;fill:#ffffff" /><circle
     cx="251.17731"
     cy="368.68127"
     r="10.919039"
     id="circle142"
     style="stroke-width:6.06613;fill:#ffffff" /><circle
     cx="290.60712"
     cy="368.68127"
     r="10.919039"
     id="circle144"
     style="stroke-width:6.06613;fill:#ffffff" /><circle
     cx="329.43039"
     cy="368.68127"
     r="10.919039"
     id="circle146"
     style="stroke-width:6.06613;fill:#ffffff" /><circle
     cx="368.86026"
     cy="368.68127"
     r="10.919039"
     id="circle148"
     style="stroke-width:6.06613;fill:#ffffff" /><circle
     cx="407.6835"
     cy="368.68127"
     r="10.919039"
     id="circle150"
     style="stroke-width:6.06613;fill:#ffffff" /><circle
     cx="447.1134"
     cy="368.68127"
     r="10.919039"
     id="circle152"
     style="stroke-width:6.06613;fill:#ffffff" /><circle
     cx="55.241199"
     cy="408.11115"
     r="10.919039"
     id="circle154"
     style="stroke-width:6.06613;fill:#ffffff" /><circle
     cx="94.671059"
     cy="408.11115"
     r="10.919039"
     id="circle156"
     style="stroke-width:6.06613;fill:#ffffff" /><circle
     cx="133.49431"
     cy="408.11115"
     r="10.919039"
     id="circle158"
     style="stroke-width:6.06613;fill:#ffffff" /><circle
     cx="172.92416"
     cy="408.11115"
     r="10.919039"
     id="circle160"
     style="stroke-width:6.06613;fill:#ffffff" /><circle
     cx="211.74742"
     cy="408.11115"
     r="10.919039"
     id="circle162"
     style="stroke-width:6.06613;fill:#ffffff" /><circle
     cx="251.17731"
     cy="408.11115"
     r="10.919039"
     id="circle164"
     style="stroke-width:6.06613;fill:#ffffff" /><circle
     cx="290.60712"
     cy="408.11115"
     r="10.919039"
     id="circle166"
     style="stroke-width:6.06613;fill:#ffffff" /><circle
     cx="329.43039"
     cy="408.11115"
     r="10.919039"
     id="circle168"
     style="stroke-width:6.06613;fill:#ffffff" /><circle
     cx="368.86026"
     cy="408.11115"
     r="10.919039"
     id="circle170"
     style="stroke-width:6.06613;fill:#ffffff" /><circle
     cx="407.6835"
     cy="408.11115"
     r="10.919039"
     id="circle172"
     style="stroke-width:6.06613;fill:#ffffff" /><circle
     cx="447.1134"
     cy="408.11115"
     r="10.919039"
     id="circle174"
     style="stroke-width:6.06613;fill:#ffffff" /><circle
     cx="55.241199"
     cy="447.54099"
     r="10.919039"
     id="circle176"
     style="stroke-width:6.06613;fill:#ffffff" /><circle
     cx="94.671059"
     cy="447.54099"
     r="10.919039"
     id="circle178"
     style="stroke-width:6.06613;fill:#ffffff" /><circle
     cx="133.49431"
     cy="447.54099"
     r="10.919039"
     id="circle180"
     style="stroke-width:6.06613;fill:#ffffff" /><circle
     cx="172.92416"
     cy="447.54099"
     r="10.919039"
     id="circle182"
     style="stroke-width:6.06613;fill:#ffffff" /><circle
     cx="211.74742"
     cy="447.54099"
     r="10.919039"
     id="circle184"
     style="stroke-width:6.06613;fill:#ffffff" /><circle
     cx="251.17731"
     cy="447.54099"
     r="10.919039"
     id="circle186"
     style="stroke-width:6.06613;fill:#ffffff" /><circle
     cx="290.60712"
     cy="447.54099"
     r="10.919039"
     id="circle188"
     style="stroke-width:6.06613;fill:#ffffff" /><circle
     cx="329.43039"
     cy="447.54099"
     r="10.919039"
     id="circle190"
     style="stroke-width:6.06613;fill:#ffffff" /><circle
     cx="368.86026"
     cy="447.54099"
     r="10.919039"
     id="circle192"
     style="stroke-width:6.06613;fill:#ffffff" /><circle
     cx="407.6835"
     cy="447.54099"
     r="10.919039"
     id="circle194"
     style="stroke-width:6.06613;fill:#ffffff" /><circle
     cx="447.1134"
     cy="447.54099"
     r="10.919039"
     id="circle196"
     style="stroke-width:6.06613;fill:#ffffff" /><circle
     cx="74.652817"
     cy="73.260582"
     r="10.919039"
     id="circle198"
     style="stroke-width:6.06613;fill:#ffffff" /><circle
     cx="114.08267"
     cy="73.260582"
     r="10.919039"
     id="circle200"
     style="stroke-width:6.06613;fill:#ffffff" /><circle
     cx="152.90593"
     cy="73.260582"
     r="10.919039"
     id="circle202"
     style="stroke-width:6.06613;fill:#ffffff" /><circle
     cx="192.33578"
     cy="73.260582"
     r="10.919039"
     id="circle204"
     style="stroke-width:6.06613;fill:#ffffff" /><circle
     cx="231.76567"
     cy="73.260582"
     r="10.919039"
     id="circle206"
     style="stroke-width:6.06613;fill:#ffffff" /><circle
     cx="270.5889"
     cy="73.260582"
     r="10.919039"
     id="circle208"
     style="stroke-width:6.06613;fill:#ffffff" /><circle
     cx="310.01877"
     cy="73.260582"
     r="10.919039"
     id="circle210"
     style="stroke-width:6.06613;fill:#ffffff" /><circle
     cx="348.84201"
     cy="73.260582"
     r="10.919039"
     id="circle212"
     style="stroke-width:6.06613;fill:#ffffff" /><circle
     cx="388.27188"
     cy="73.260582"
     r="10.919039"
     id="circle214"
     style="stroke-width:6.06613;fill:#ffffff" /><circle
     cx="427.09512"
     cy="73.260582"
     r="10.919039"
     id="circle216"
     style="stroke-width:6.06613;fill:#ffffff" /><circle
     cx="74.652817"
     cy="112.69045"
     r="10.919039"
     id="circle218"
     style="stroke-width:6.06613;fill:#ffffff" /><circle
     cx="114.08267"
     cy="112.69045"
     r="10.919039"
     id="circle220"
     style="stroke-width:6.06613;fill:#ffffff" /><circle
     cx="152.90593"
     cy="112.69045"
     r="10.919039"
     id="circle222"
     style="stroke-width:6.06613;fill:#ffffff" /><circle
     cx="192.33578"
     cy="112.69045"
     r="10.919039"
     id="circle224"
     style="stroke-width:6.06613;fill:#ffffff" /><circle
     cx="231.76567"
     cy="112.69045"
     r="10.919039"
     id="circle226"
     style="stroke-width:6.06613;fill:#ffffff" /><circle
     cx="270.5889"
     cy="112.69045"
     r="10.919039"
     id="circle228"
     style="stroke-width:6.06613;fill:#ffffff" /><circle
     cx="310.01877"
     cy="112.69045"
     r="10.919039"
     id="circle230"
     style="stroke-width:6.06613;fill:#ffffff" /><circle
     cx="348.84201"
     cy="112.69045"
     r="10.919039"
     id="circle232"
     style="stroke-width:6.06613;fill:#ffffff" /><circle
     cx="388.27188"
     cy="112.69045"
     r="10.919039"
     id="circle234"
     style="stroke-width:6.06613;fill:#ffffff" /><circle
     cx="427.09512"
     cy="112.69045"
     r="10.919039"
     id="circle236"
     style="stroke-width:6.06613;fill:#ffffff" /><circle
     cx="74.652817"
     cy="152.12033"
     r="10.919039"
     id="circle238"
     style="stroke-width:6.06613;fill:#ffffff" /><circle
     cx="114.08267"
     cy="152.12033"
     r="10.919039"
     id="circle240"
     style="stroke-width:6.06613;fill:#ffffff" /><circle
     cx="388.27188"
     cy="152.12033"
     r="10.919039"
     id="circle242"
     style="stroke-width:6.06613;fill:#ffffff" /><circle
     cx="427.09512"
     cy="152.12033"
     r="10.919039"
     id="circle244"
     style="stroke-width:6.06613;fill:#ffffff" /><circle
     cx="74.652817"
     cy="191.55019"
     r="10.919039"
     id="circle246"
     style="stroke-width:6.06613;fill:#ffffff" /><circle
     cx="114.08267"
     cy="191.55019"
     r="10.919039"
     id="circle248"
     style="stroke-width:6.06613;fill:#ffffff" /><circle
     cx="388.27188"
     cy="191.55019"
     r="10.919039"
     id="circle250"
     style="stroke-width:6.06613;fill:#ffffff" /><circle
     cx="427.09512"
     cy="191.55019"
     r="10.919039"
     id="circle252"
     style="stroke-width:6.06613;fill:#ffffff" /><circle
     cx="74.652817"
     cy="230.37344"
     r="10.919039"
     id="circle254"
     style="stroke-width:6.06613;fill:#ffffff" /><circle
     cx="114.08267"
     cy="230.37344"
     r="10.919039"
     id="circle256"
     style="stroke-width:6.06613;fill:#ffffff" /><circle
     cx="388.27188"
     cy="230.37344"
     r="10.919039"
     id="circle258"
     style="stroke-width:6.06613;fill:#ffffff" /><circle
     cx="427.09512"
     cy="230.37344"
     r="10.919039"
     id="circle260"
     style="stroke-width:6.06613;fill:#ffffff" /><circle
     cx="74.652817"
     cy="269.80328"
     r="10.919039"
     id="circle262"
     style="stroke-width:6.06613;fill:#ffffff" /><circle
     cx="114.08267"
     cy="269.80328"
     r="10.919039"
     id="circle264"
     style="stroke-width:6.06613;fill:#ffffff" /><circle
     cx="388.27188"
     cy="269.80328"
     r="10.919039"
     id="circle266"
     style="stroke-width:6.06613;fill:#ffffff" /><circle
     cx="427.09512"
     cy="269.80328"
     r="10.919039"
     id="circle268"
     style="stroke-width:6.06613;fill:#ffffff" /><circle
     cx="74.652817"
     cy="309.23315"
     r="10.919039"
     id="circle270"
     style="stroke-width:6.06613;fill:#ffffff" /><circle
     cx="114.08267"
     cy="309.23315"
     r="10.919039"
     id="circle272"
     style="stroke-width:6.06613;fill:#ffffff" /><circle
     cx="388.27188"
     cy="309.23315"
     r="10.919039"
     id="circle274"
     style="stroke-width:6.06613;fill:#ffffff" /><circle
     cx="427.09512"
     cy="309.23315"
     r="10.919039"
     id="circle276"
     style="stroke-width:6.06613;fill:#ffffff" /><circle
     cx="74.652817"
     cy="348.66302"
     r="10.919039"
     id="circle278"
     style="stroke-width:6.06613;fill:#ffffff" /><circle
     cx="114.08267"
     cy="348.66302"
     r="10.919039"
     id="circle280"
     style="stroke-width:6.06613;fill:#ffffff" /><circle
     cx="388.27188"
     cy="348.66302"
     r="10.919039"
     id="circle282"
     style="stroke-width:6.06613;fill:#ffffff" /><circle
     cx="427.09512"
     cy="348.66302"
     r="10.919039"
     id="circle284"
     style="stroke-width:6.06613;fill:#ffffff" /><circle
     cx="74.652817"
     cy="388.09286"
     r="10.919039"
     id="circle286"
     style="stroke-width:6.06613;fill:#ffffff" /><circle
     cx="114.08267"
     cy="388.09286"
     r="10.919039"
     id="circle288"
     style="stroke-width:6.06613;fill:#ffffff" /><circle
     cx="152.90593"
     cy="388.09286"
     r="10.919039"
     id="circle290"
     style="stroke-width:6.06613;fill:#ffffff" /><circle
     cx="192.33578"
     cy="388.09286"
     r="10.919039"
     id="circle292"
     style="stroke-width:6.06613;fill:#ffffff" /><circle
     cx="231.76567"
     cy="388.09286"
     r="10.919039"
     id="circle294"
     style="stroke-width:6.06613;fill:#ffffff" /><circle
     cx="270.5889"
     cy="388.09286"
     r="10.919039"
     id="circle296"
     style="stroke-width:6.06613;fill:#ffffff" /><circle
     cx="310.01877"
     cy="388.09286"
     r="10.919039"
     id="circle298"
     style="stroke-width:6.06613;fill:#ffffff" /><circle
     cx="348.84201"
     cy="388.09286"
     r="10.919039"
     id="circle300"
     style="stroke-width:6.06613;fill:#ffffff" /><circle
     cx="388.27188"
     cy="388.09286"
     r="10.919039"
     id="circle302"
     style="stroke-width:6.06613;fill:#ffffff" /><circle
     cx="427.09512"
     cy="388.09286"
     r="10.919039"
     id="circle304"
     style="stroke-width:6.06613;fill:#ffffff" /><circle
     cx="74.652817"
     cy="427.52277"
     r="10.919039"
     id="circle306"
     style="stroke-width:6.06613;fill:#ffffff" /><circle
     cx="114.08267"
     cy="427.52277"
     r="10.919039"
     id="circle308"
     style="stroke-width:6.06613;fill:#ffffff" /><circle
     cx="152.90593"
     cy="427.52277"
     r="10.919039"
     id="circle310"
     style="stroke-width:6.06613;fill:#ffffff" /><circle
     cx="192.33578"
     cy="427.52277"
     r="10.919039"
     id="circle312"
     style="stroke-width:6.06613;fill:#ffffff" /><circle
     cx="231.76567"
     cy="427.52277"
     r="10.919039"
     id="circle314"
     style="stroke-width:6.06613;fill:#ffffff" /><circle
     cx="270.5889"
     cy="427.52277"
     r="10.919039"
     id="circle316"
     style="stroke-width:6.06613;fill:#ffffff" /><circle
     cx="310.01877"
     cy="427.52277"
     r="10.919039"
     id="circle318"
     style="stroke-width:6.06613;fill:#ffffff" /><circle
     cx="348.84201"
     cy="427.52277"
     r="10.919039"
     id="circle320"
     style="stroke-width:6.06613;fill:#ffffff" /><circle
     cx="388.27188"
     cy="427.52277"
     r="10.919039"
     id="circle322"
     style="stroke-width:6.06613;fill:#ffffff" /><circle
     cx="427.09512"
     cy="427.52277"
     r="10.919039"
     id="circle324"
     style="stroke-width:6.06613;fill:#ffffff" /></svg>
