<?xml version="1.0" encoding="UTF-8" standalone="no"?>
<svg
   width="500.00003pt"
   height="500.00003pt"
   version="1.1"
   viewBox="0 0 500.00003 500.00003"
   id="svg1595"
   sodipodi:docname="noun-wifi-connection-4170472.svg"
   inkscape:export-filename="devices.svg"
   inkscape:export-xdpi="72"
   inkscape:export-ydpi="72"
   xmlns:inkscape="http://www.inkscape.org/namespaces/inkscape"
   xmlns:sodipodi="http://sodipodi.sourceforge.net/DTD/sodipodi-0.dtd"
   xmlns="http://www.w3.org/2000/svg"
   xmlns:svg="http://www.w3.org/2000/svg">
  <sodipodi:namedview
     id="namedview1597"
     pagecolor="#ffffff"
     bordercolor="#666666"
     borderopacity="1.0"
     inkscape:showpageshadow="2"
     inkscape:pageopacity="0.0"
     inkscape:pagecheckerboard="0"
     inkscape:deskcolor="#d1d1d1"
     inkscape:document-units="pt"
     showgrid="false" />
  <defs
     id="defs1519" />
  <g
     id="g1593"
     transform="matrix(0.89284059,0,0,0.89284059,-62.689263,0.00463469)"
     style="fill:#f9f9f9">
    <path
       d="m 407.79,104.39 c 18.023,-0.0117 35.594,5.6289 50.242,16.129 C 448.7234,102.597 438.005,80.343 433.864,66.917 432.0281,60.6943 430.6257,54.355 429.6609,47.94 427.575,34.561 420.7664,22.37 410.4659,13.573 400.1689,4.78 387.0599,-0.04 373.5169,-0.005 h -84.211 c -13.543,-0.035156 -26.652,4.7852 -36.953,13.578 -10.297,8.7969 -17.105,20.988 -19.195,34.367 -0.97266,6.4141 -2.375,12.75 -4.1992,18.977 -4.1445,13.441 -14.863,35.66 -24.168,53.602 14.648,-10.5 32.219,-16.141 50.242,-16.129 z"
       id="path1521"
       style="fill:#f9f9f9" />
    <path
       d="m 255.04,455.61 c -18.023,0.0117 -35.594,-5.6289 -50.242,-16.129 9.3086,17.922 20.027,40.176 24.168,53.602 1.8242,6.2266 3.2266,12.562 4.1992,18.977 2.0898,13.379 8.8984,25.57 19.195,34.367 10.301,8.793 23.41,13.613 36.953,13.578 h 84.211 c 13.543,0.0352 26.652,-4.7852 36.949,-13.578 10.301,-8.7969 17.109,-20.988 19.195,-34.367 0.96484,-6.4141 2.3672,-12.754 4.2031,-18.977 4.1445,-13.441 14.863,-35.66 24.168,-53.602 -14.648,10.5 -32.219,16.141 -50.242,16.129 z"
       id="path1523"
       style="fill:#f9f9f9" />
    <path
       d="M 407.79,121.2 H 255.03 c -18.512,0 -36.266,7.3555 -49.355,20.445 -13.09,13.086 -20.441,30.84 -20.441,49.352 v 178.02 c 0,18.512 7.3516,36.266 20.441,49.352 13.09,13.09 30.844,20.445 49.355,20.445 h 152.76 c 18.512,0 36.266,-7.3555 49.355,-20.445 13.09,-13.086 20.441,-30.84 20.441,-49.352 v -178.02 c 0,-18.512 -7.3516,-36.266 -20.441,-49.352 C 444.055,128.555 426.301,121.2 407.79,121.2 Z m -75.188,217.7 c -5.2734,0.004 -10.031,-3.1719 -12.047,-8.0469 -2.016,-4.875 -0.89453,-10.484 2.8438,-14.207 3.7344,-3.7227 9.3477,-4.8242 14.215,-2.793 4.8672,2.0352 8.0273,6.8008 8.0039,12.078 -0.0391,7.1641 -5.8477,12.957 -13.016,12.969 z m 35.75,-32.324 c -1.7734,1.3438 -4.0117,1.9258 -6.2188,1.6211 -2.2031,-0.30859 -4.1992,-1.4766 -5.5391,-3.2578 -5.0078,-6.6406 -14.203,-10.762 -23.992,-10.762 -9.7891,0 -18.984,4.1211 -23.992,10.762 h 0.004 c -2.7852,3.7109 -8.0508,4.4648 -11.762,1.6797 -3.7109,-2.7812 -4.4648,-8.0469 -1.6797,-11.758 8.2422,-10.922 22.223,-17.438 37.398,-17.438 15.175,0 29.121,6.5195 37.398,17.438 h -0.004 c 2.7734,3.6836 2.0547,8.918 -1.6133,11.715 z m 23.172,-22.266 h 0.004 c -3.707,2.7852 -8.9648,2.0469 -11.762,-1.6445 -10.078,-13.441 -27.742,-21.391 -47.164,-21.391 -19.422,0 -37.051,7.9961 -47.164,21.391 -2.7812,3.7109 -8.0469,4.4609 -11.758,1.6797 -3.7109,-2.7852 -4.4648,-8.0508 -1.6797,-11.762 13.273,-17.574 35.918,-28.066 60.57,-28.066 24.652,0 47.297,10.496 60.57,28.066 h -0.004 c 2.7695,3.6914 2.0508,8.9219 -1.6094,11.727 z m 21.281,-24.742 c -1.7734,1.3477 -4.0156,1.9297 -6.2227,1.6211 -2.207,-0.30859 -4.1992,-1.4844 -5.5352,-3.2656 -14.727,-19.512 -40.32,-31.16 -68.434,-31.16 -28.113,0 -53.691,11.648 -68.422,31.16 -2.7812,3.7109 -8.0469,4.4648 -11.758,1.6797 -3.7111,-2.7851 -4.4648,-8.0469 -1.6797,-11.762 17.922,-23.699 48.484,-37.844 81.84,-37.844 33.355,0 63.953,14.145 81.84,37.844 h -0.004 c 2.7695,3.6953 2.0391,8.9336 -1.6367,11.727 z"
       id="path1525"
       style="fill:#f9f9f9" />
    <path
       d="m 497.3,201.6 h -2.9102 v 91.727 H 497.3 c 6.8594,-0.008 13.434,-2.7344 18.281,-7.582 4.8477,-4.8477 7.5742,-11.422 7.582,-18.277 v -40.109 c -0.0352,-6.8398 -2.7734,-13.387 -7.6172,-18.215 -4.8477,-4.8242 -11.406,-7.5391 -18.246,-7.543 z"
       id="path1527"
       style="fill:#f9f9f9" />
  </g>
</svg>
