<?xml version="1.0" encoding="utf-8"?>
<!-- Generator: Adobe Illustrator 22.0.1, SVG Export Plug-In . SVG Version: 6.00 Build 0)  -->
<svg version="1.1" id="Layer_1" xmlns="http://www.w3.org/2000/svg" xmlns:xlink="http://www.w3.org/1999/xlink" x="0px" y="0px"
	 viewBox="0 0 250 145.2" style="enable-background:new 0 0 250 145.2;" xml:space="preserve">
<style type="text/css">
	.st0{fill:#FFFFFF;}
</style>
<title>development</title>
<g id="Layer_2_1_">
	<g id="Layer_1-2">
		<path class="st0" d="M66.6,105.1c4.2,3.6,4.6,10,0.9,14.1c-3.6,4.2-10,4.6-14.1,0.9l0,0l-50-43.8c-4.2-3.6-4.6-10-0.9-14.1
			c0.3-0.3,0.6-0.7,0.9-0.9l50-43.8c4.2-3.6,10.5-3.2,14.1,0.9s3.2,10.5-0.9,14.1L25.2,68.8L66.6,105.1z M183.4,105.1l41.4-36.2
			l-41.4-36.2c-4.2-3.6-4.6-10-0.9-14.1s10-4.6,14.1-0.9l50,43.8c4.2,3.6,4.6,10,0.9,14.1c-0.3,0.3-0.6,0.7-0.9,0.9l-50,43.8
			c-4.2,3.6-10.5,3.2-14.1-0.9S179.3,108.7,183.4,105.1z M130.3,6.9c1.2-4.4,6.6-7.5,12.1-6.8s9,4.8,7.9,9.3l-34.1,128.9
			c-1.2,4.4-6.6,7.5-12.1,6.8s-9-4.9-7.8-9.3L130.3,6.9z"/>
	</g>
</g>
</svg>
