<svg xmlns="http://www.w3.org/2000/svg" viewBox="0 -39 250 216.62"><defs><style>.cls-1{fill:#fff;}</style></defs><title>px-email</title><g id="Layer_2" data-name="Layer 2"><g id="Layer_1-2" data-name="Layer 1"><path class="cls-1" d="M23.81,0C10.6,0,0,11.11,0,24.46V148.07c0,13.34,10.6,24.55,23.81,24.55H226.19c13.21,0,23.81-11.21,23.81-24.55V24.46C250,11.11,239.4,0,226.19,0Zm0,11.9H226.19A11.8,11.8,0,0,1,231.12,13l-98.4,91.05a10.68,10.68,0,0,1-15.16,0L19,13A11.77,11.77,0,0,1,23.81,11.9Zm-11.72,11L81.94,87.43,13.39,154.11a13.35,13.35,0,0,1-1.49-6V24.46a13.38,13.38,0,0,1,.19-1.58ZM237.91,23a14.44,14.44,0,0,1,.18,1.49v123.6a13.38,13.38,0,0,1-1.39,6L168.34,87.33,237.91,23ZM159.69,95.33l66.87,65.38h-203L90.68,95.42l18.79,17.4a23.13,23.13,0,0,0,31.34,0l18.88-17.49Z"/></g></g></svg>