<?xml version="1.0" encoding="utf-8"?>
<!-- Generator: Adobe Illustrator 22.0.1, SVG Export Plug-In . SVG Version: 6.00 Build 0)  -->
<svg version="1.1" id="Layer_1" xmlns="http://www.w3.org/2000/svg" xmlns:xlink="http://www.w3.org/1999/xlink" x="0px" y="0px"
	 viewBox="0 0 179.2 250" style="enable-background:new 0 0 179.2 250;" xml:space="preserve">
<style type="text/css">
	.st0{fill:#FFFFFF;}
</style>
<title>entertainment</title>
<g id="Layer_2_1_">
	<g id="Layer_1-2">
		<path class="st0" d="M100,34c-6.7,0-12.2,5.4-12.2,12.2c0,2.4,0.7,4.8,2.1,6.8c1.4,2.1,4.2,2.6,6.3,1.2c2.1-1.4,2.6-4.2,1.2-6.3
			l0,0c-0.3-0.5-0.5-1.1-0.5-1.7c0-2.9,4.5-4,5.9-1.4c1.1,2.2,3.9,3.1,6.1,2c2.2-1.1,3.1-3.9,2-6.1C108.7,36.6,104.6,34,100,34"/>
		<path class="st0" d="M123.8,51.3c2.2,1.1,4.9,0.3,6.1-2c0,0,0,0,0,0c1.3-2.6,5.9-1.5,5.9,1.4c0,0.6-0.2,1.2-0.5,1.8
			c-1.5,2-1.2,4.8,0.8,6.4c2,1.5,4.8,1.2,6.4-0.8c0.1-0.2,0.3-0.4,0.4-0.6c3.4-5.8,1.5-13.3-4.3-16.7c-5.8-3.4-13.3-1.5-16.7,4.3
			C120.7,47.4,121.6,50.1,123.8,51.3C123.8,51.3,123.8,51.3,123.8,51.3"/>
		<path class="st0" d="M58.8,91.8c0.8-0.3,1.6-0.6,2.3-0.8c1-0.2,2.3-0.5,3.5-0.7l2.4,25.4c0.2,2.3,2.2,4.1,4.5,4.1
			c0.1,0,0.3,0,0.4,0c2.5-0.2,4.3-2.4,4.1-4.9c0,0,0,0,0,0l-2.5-26c12.9-1.7,25.8-2.5,38.8-2.4c14.4-0.1,28.8,0.9,43,3.1
			c0.2,0.2,0.5,0.5,0.5,0.7l-15.2,148.5c0,0.1-0.1,0.2-0.2,0.3c-9.3,1.4-18.7,2-28.1,2c-19.7,0-34.6-2.6-38.9-4.4L58.8,91.8z
			 M60.1,53.4c1.5-1.5,3.2-2.7,5.2-3.5l0,0c2.3-0.8,3.5-3.4,2.7-5.7c-0.3-0.8-0.8-1.5-1.4-2c-1-0.9-1.6-2.3-1.6-3.7
			c0-2.5,1.8-4.6,4.3-4.9c0.7,0.4,1.5,0.7,2.3,0.7c2.2,0,4-1.6,4.4-3.7c0.6-3.2,3.3-5.6,6.5-5.9L88,24l-1.6-5.3
			c-0.3-0.8-0.5-1.6-0.5-2.4c0-4,3.3-7.3,7.3-7.3c1.1,0,2.2,0.2,3.2,0.8c0.2,0.1,0.3,0.1,0.5,0.1c0.3,0.1,0.6,0.2,0.9,0.3
			c0.3,0,0.5,0,0.8,0c0.3,0,0.6,0,0.9-0.1c0.3-0.1,0.6-0.2,0.8-0.3c0.2-0.1,0.4-0.1,0.6-0.2c1.4-0.9,3.2-0.8,4.4,0.3l0.1,0.1
			c0.2,0.1,0.4,0.3,0.6,0.4c0.3,0.2,0.6,0.3,0.9,0.4c0.2,0,0.4,0.1,0.6,0.1c0.2,0.1,0.5,0.1,0.7,0.1c0.1,0,0.2,0,0.2-0.1
			c0.3,0,0.7-0.1,1-0.2c0.3-0.1,0.5-0.1,0.8-0.3c0.1,0,0.1,0,0.2-0.1c3.8-2.2,8.8,1.1,8.9,5.4l0.2,4.4h4.4c1.6,0,3.1,0.6,4.2,1.8
			l3.4,3.6l3.2-3.7c2-2.2,5.4-2.4,7.6-0.4c1.1,1,1.7,2.3,1.8,3.8c0,0.9-0.2,1.7-0.6,2.5c-1.1,2-0.5,4.5,1.4,5.8l-0.2,1.1
			c5.2,1.2,7.5,2.7,8.5,3.8c2.8,3,3.9,9.1,4.1,11.2l0.3,3l2.9,0.9c2,0.6,6,2.7,6.8,4.7c0.7,1.8,0.2,5.8-0.5,9.1
			c-17.9-5-49.7-5.3-54.6-5.3s-37.2,0.2-55,5.4C56.8,63.4,56.7,56.7,60.1,53.4L60.1,53.4z M54.8,83.5V78c5.2-2.6,27.2-6.6,57.7-6.6
			s52.4,4,57.7,6.6v5.5c-2.3-0.8-4.6-1.4-7-1.9c-17-4.6-46.2-4.8-50.7-4.8c-4.3,0-30.3,0.2-47.5,4.2C61.5,81.6,58.1,82.4,54.8,83.5
			L54.8,83.5z M175.5,71.1c1-3.7,2.4-11,0.5-15.9c-1.8-4.7-6.7-7.6-9.8-9.1c-0.7-3.6-2.3-9.6-6.1-13.7c-2-1.9-4.3-3.4-6.9-4.4
			c0.2-0.8,0.3-1.7,0.3-2.5c0-8-6.5-14.4-14.5-14.4c0,0,0,0,0,0c-2.7,0-5.3,0.8-7.6,2.2c-1.1-0.6-2.3-1.1-3.6-1.4
			c-2-6.5-8-10.9-14.7-11c-1.5,0-3,0.3-4.4,0.8c-3.1-1.6-6.7-1.8-10-0.6C97,0.4,95.1,0,93.2,0c-9.1,0-16.4,7.4-16.4,16.4
			c0,0.1,0,0.3,0,0.4c-3.5,1.5-6.4,4.2-8.2,7.7c-7.7,0.7-13.4,7.5-12.7,15.2c0.1,1.5,0.5,3.1,1.2,4.5c-1.1,0.8-2.2,1.7-3.2,2.6
			c-7.8,7.4-5.9,20.1-5,24.6c-2,1.4-3.1,3-3.1,4.8v15c0,2.4,1.9,4.4,4.3,4.5l14.6,142.9c0,10.5,36.6,11.3,47.8,11.3
			s47.8-0.8,47.8-10.9l14.6-143.4c2.4-0.1,4.4-2.1,4.4-4.5v-15C179.2,74.3,177.8,72.6,175.5,71.1L175.5,71.1z"/>
		<path class="st0" d="M34.2,236c-0.5-1.4-1.7-2.5-3.1-2.9c-2.4-0.6-4.9,0.9-5.5,3.3c-0.8,3.4-6.2,3.7-7.4,0.5
			c-0.9-2.3-3.5-3.5-5.9-2.6c-1,0.4-1.8,1.1-2.2,2l0,0c-0.8-1-1.1-2.2-0.9-3.5c0.2-1.5,1-2.9,2.1-3.9c1.8-1.5,6.1-6.7,6.1-10.7
			c0-3.2,2.2-5.9,4.8-5.9s4.8,2.6,4.8,5.9c0,3.8,3.6,8.9,5.6,10.7c1.3,1,2.1,2.5,2.3,4.1C35.1,234.1,34.8,235.1,34.2,236
			 M36.2,218.2c0-8.2-6.2-14.9-13.9-14.9s-14,6.7-13.9,14.5c-0.7,1.6-1.7,3-2.9,4.2c-2.9,2.5-4.8,5.9-5.4,9.7
			c-0.5,3.8,0.6,7.6,3,10.5c3,3.4,7.6,5.1,12.1,4.4c2,1.2,4.3,1.9,6.6,1.9c2.3-0.1,4.6-0.7,6.6-2c0.7,0.2,1.4,0.3,2.1,0.4
			c4,0,7.7-1.7,10.3-4.7c2.3-2.7,3.4-6.3,3.1-9.9c-0.4-4-2.3-7.7-5.4-10.3C37.6,220.9,36.8,219.6,36.2,218.2"/>
		<path class="st0" d="M120.3,167.2l-3.2-1.7c-2.1-0.9-4.4-0.9-6.5,0.1l-3.2,1.7c-1.8,1-3,0.1-2.7-1.9l0.6-3.6
			c0.2-2.3-0.5-4.5-2.1-6.2l-2.7-2.5c-1.5-1.4-1-2.8,1-3.1l3.6-0.6c2.2-0.5,4.1-1.9,5.2-3.9l1.6-3.3c0.9-1.8,2.3-1.8,3.2,0l1.7,3.3
			c1.1,2,3.1,3.3,5.3,3.8l3.6,0.5c2,0.3,2.5,1.6,1,3.1l-2.6,2.6c-1.5,1.7-2.2,4-1.9,6.2l0.7,3.6
			C123.3,167.3,122.1,168.1,120.3,167.2 M146,144.2c-5.3-13.6-24-19-41.7-12.1s-27.9,23.5-22.6,37.1s24,19,41.7,12.1
			S151.3,157.8,146,144.2"/>
		<path class="st0" d="M78.2,184.6c-2.5,0.2-4.3,2.4-4.1,4.9c0,0,0,0,0,0.1l3.9,40.5c0.2,2.3,2.2,4.1,4.5,4.1c0.1,0,0.3,0,0.4,0
			c2.5-0.2,4.3-2.5,4.1-4.9c0,0,0,0,0,0l-3.9-40.5C82.9,186.2,80.7,184.4,78.2,184.6C78.2,184.6,78.2,184.6,78.2,184.6"/>
		<path class="st0" d="M78.6,137.6l-0.9-9c-0.5-2.5-2.8-4.1-5.3-3.6c-2.1,0.4-3.7,2.3-3.7,4.5l0.9,9.1c0.2,2.3,2.2,4.1,4.5,4.1h0.4
			C77,142.4,78.8,140.2,78.6,137.6C78.6,137.7,78.6,137.6,78.6,137.6"/>
	</g>
</g>
</svg>
