<?xml version="1.0" encoding="utf-8"?>
<!-- Generator: Adobe Illustrator 22.0.1, SVG Export Plug-In . SVG Version: 6.00 Build 0)  -->
<svg version="1.1" id="Layer_1" xmlns="http://www.w3.org/2000/svg" xmlns:xlink="http://www.w3.org/1999/xlink" x="0px" y="0px"
	 viewBox="0 0 250 183.8" style="enable-background:new 0 0 250 183.8;" xml:space="preserve">
<style type="text/css">
	.st0{fill:#FFFFFF;}
</style>
<title>education</title>
<g id="Layer_2_1_">
	<g id="Layer_1-2">
		<path class="st0" d="M43.9,143.6V84.1l69.8,28.8c3.5,1.5,7.5,1.5,11,0l71.6-29.5v60.2c0,1-0.2,1.9-0.6,2.8
			c0,0.1-13.7,32.6-74.9,37.3c-0.4,0-0.8,0-1.2,0c-55.6-4.2-72.1-31.4-74.7-36.5C44.3,146.1,43.9,144.9,43.9,143.6L43.9,143.6z
			 M4.5,46.6l112-46.1c1.8-0.7,3.7-0.7,5.5,0l112,46.1c3.7,1.5,5.5,5.8,3.9,9.5c-0.3,0.6-0.6,1.2-1,1.8v69.4l12,19.2
			c2.1,3.4,1,7.9-2.4,10c-1.1,0.7-2.5,1.1-3.8,1.1h-26.2c-4,0-7.3-3.3-7.3-7.3c0-1.5,0.5-3,1.3-4.2l11.8-18.8V64.9L122,106.2
			c-1.8,0.7-3.7,0.7-5.5,0L4.5,60.1c-3.7-1.5-5.5-5.8-3.9-9.5C1.3,48.8,2.7,47.4,4.5,46.6z"/>
	</g>
</g>
</svg>
