<svg xmlns="http://www.w3.org/2000/svg" viewBox="0 -9 250 241"><defs><style>.cls-1{fill:#fff;}</style></defs><title>px-firewall</title><g id="Layer_2" data-name="Layer 2"><g id="Layer_1-2" data-name="Layer 1"><path class="cls-1" d="M125.23,0H125a8.79,8.79,0,0,0-3.7.82l.06,0L5.08,54.44A8.71,8.71,0,0,0,5,70.24l.06,0,116.23,53.64a8.49,8.49,0,0,0,3.64.8,8.79,8.79,0,0,0,3.7-.82l-.05,0L244.83,70.27a8.71,8.71,0,0,0,.06-15.8l-.06,0L128.6.8a8.51,8.51,0,0,0-3.36-.8ZM125,18.32l95.43,44L125,106.41l-95.44-44,95.44-44Z"/><path class="cls-1" d="M241.49,107.24h-.21a8.67,8.67,0,0,0-3.81.88l.06,0L125,160.05l-112.59-52a8.53,8.53,0,0,0-3.65-.8A8.71,8.71,0,0,0,5,123.89l.06,0L121.3,177.56a8.53,8.53,0,0,0,3.65.8,8.82,8.82,0,0,0,3.7-.82l-.06,0,116.23-53.65a8.72,8.72,0,0,0-3.32-16.68h0Z"/><path class="cls-1" d="M241.49,160.88h-.21a8.67,8.67,0,0,0-3.81.88l.06,0L125,213.69l-112.59-52a8.53,8.53,0,0,0-3.65-.8A8.71,8.71,0,0,0,5,177.53l.06,0L121.3,231.2a8.53,8.53,0,0,0,3.65.8,8.82,8.82,0,0,0,3.7-.82l-.06,0,116.23-53.64a8.72,8.72,0,0,0-3.32-16.69h0Z"/></g></g></svg>