<?xml version="1.0" encoding="UTF-8" standalone="no"?>
<svg
   xmlns:dc="http://purl.org/dc/elements/1.1/"
   xmlns:cc="http://creativecommons.org/ns#"
   xmlns:rdf="http://www.w3.org/1999/02/22-rdf-syntax-ns#"
   xmlns:svg="http://www.w3.org/2000/svg"
   xmlns="http://www.w3.org/2000/svg"
   xmlns:sodipodi="http://sodipodi.sourceforge.net/DTD/sodipodi-0.dtd"
   xmlns:inkscape="http://www.inkscape.org/namespaces/inkscape"
   version="1.1"
   id="svg2"
   xml:space="preserve"
   width="500"
   height="500"
   viewBox="0 0 500 500"
   sodipodi:docname="github_icon_token_white.svg"
   inkscape:version="1.0.2 (e86c870879, 2021-01-15)"><metadata
     id="metadata8"><rdf:RDF><cc:Work
         rdf:about=""><dc:format>image/svg+xml</dc:format><dc:type
           rdf:resource="http://purl.org/dc/dcmitype/StillImage" /><dc:title /></cc:Work></rdf:RDF></metadata><defs
     id="defs6" /><sodipodi:namedview
     pagecolor="#ffffff"
     bordercolor="#666666"
     borderopacity="1"
     objecttolerance="10"
     gridtolerance="10"
     guidetolerance="10"
     inkscape:pageopacity="0"
     inkscape:pageshadow="2"
     inkscape:window-width="2560"
     inkscape:window-height="1361"
     id="namedview4"
     showgrid="false"
     inkscape:zoom="2.145043"
     inkscape:cx="356.39207"
     inkscape:cy="184.82176"
     inkscape:window-x="0"
     inkscape:window-y="0"
     inkscape:window-maximized="1"
     inkscape:current-layer="g12"
     inkscape:document-rotation="0" /><g
     id="g10"
     inkscape:groupmode="layer"
     inkscape:label="ink_ext_XXXXXX"
     transform="matrix(1.3333333,0,0,-1.3333333,0,666.65333)"><g
       id="g12"
       transform="scale(0.1)"><path
         d="m 1474.786,4126.6095 c -813.01378,0 -1472.2846751,-659.1246 -1472.2846751,-1472.2603 0,-650.494 421.8543551,-1202.3692 1006.8381751,-1397.0516 73.5801,-13.6263 100.5936,31.9432 100.5936,70.8299 0,35.1078 -1.3654,151.0855 -1.9992,274.109 -409.59106,-89.0616 -496.01965,173.7105 -496.01965,173.7105 -66.97301,170.1753 -163.4707,215.4255 -163.4707,215.4255 -133.58034,91.3778 10.06909,89.5005 10.06909,89.5005 147.84285,-10.3618 225.68956,-151.7194 225.68956,-151.7194 131.31296,-225.08 344.4221,-160.0087 428.4371,-122.3897 13.2142,95.1324 51.3695,160.1306 93.4745,196.8718 -327.01453,37.229 -670.77845,163.4708 -670.77845,727.6093 0,160.7401 57.5134,292.0774 151.69502,395.1822 -15.28658,37.107 -65.68086,186.8271 14.26252,389.6234 0,0 123.63312,39.5695 404.98311,-150.9147 117.4405,32.621 243.3897,48.9802 368.51,49.541 125.1204,-0.5608 251.1671,-16.92 368.827,-49.541 281.0087,190.4842 404.4712,150.9147 404.4712,150.9147 80.1384,-202.7963 29.7197,-352.5164 14.4331,-389.6234 94.401,-103.1048 151.5243,-234.4421 151.5243,-395.1822 0,-565.4795 -344.4221,-689.9902 -672.2656,-726.439 52.808,-45.6889 99.8622,-135.2869 99.8622,-272.6462 0,-196.9694 -1.7067,-355.5153 -1.7067,-404.0323 0,-39.1793 26.5016,-85.0852 101.13,-70.63 584.6669,194.897 1005.9849,746.5771 1005.9849,1396.8517 0,813.1357 -659.1734,1472.2603 -1472.2604,1472.2603"
         style="fill:#ffffff;fill-opacity:1;fill-rule:evenodd;stroke:none;stroke-width:2.43804"
         id="path108" /><path
         d="m 560.13022,2012.754 c -3.24253,-7.3384 -14.75013,-9.5083 -25.23373,-4.486 -10.67857,4.803 -16.67617,14.7746 -13.21417,22.1131 3.1695,7.5335 14.70144,9.6059 25.35567,4.6079 10.70299,-4.8273 16.79812,-14.8965 13.09223,-22.235 v 0"
         style="fill:#ffffff;fill-opacity:1;fill-rule:nonzero;stroke:none;stroke-width:2.43804"
         id="path110" /><path
         d="m 619.7648,1946.2443 c -7.02161,-6.5096 -20.74774,-3.4864 -30.06106,6.8021 -9.63031,10.2642 -11.43441,23.9904 -4.31537,30.5975 7.24099,6.5095 20.55269,3.462 30.20734,-6.8022 9.63023,-10.3861 11.50752,-24.0147 4.16909,-30.5974 v 0"
         style="fill:#ffffff;fill-opacity:1;fill-rule:nonzero;stroke:none;stroke-width:2.43804"
         id="path112" /><path
         d="m 677.81458,1861.4492 c -9.02083,-6.2658 -23.77096,-0.3901 -32.88924,12.7022 -9.02075,13.0923 -9.02075,28.7932 0.19505,35.0834 9.14269,6.2902 23.67336,0.6339 32.91357,-12.3609 8.99641,-13.2873 8.99641,-29.0127 -0.21938,-35.4247 v 0"
         style="fill:#ffffff;fill-opacity:1;fill-rule:nonzero;stroke:none;stroke-width:2.43804"
         id="path114" /><path
         d="m 757.34344,1779.531 c -8.06986,-8.8989 -25.25807,-6.5096 -37.83843,5.6318 -12.87284,11.8733 -16.4567,28.7202 -8.36242,37.6191 8.16746,8.9232 25.45311,6.412 38.13099,-5.632 12.77532,-11.8488 16.67617,-28.8176 8.06986,-37.6189 v 0"
         style="fill:#ffffff;fill-opacity:1;fill-rule:nonzero;stroke:none;stroke-width:2.43804"
         id="path116" /><path
         d="m 867.05538,1731.9648 c -3.5596,-11.5319 -20.11391,-16.7738 -36.79009,-11.8733 -16.65183,5.0467 -27.54987,18.5535 -24.18539,30.2074 3.46208,11.605 20.08949,17.0662 36.88761,11.8245 16.62741,-5.0224 27.54987,-18.4316 24.08787,-30.1586 v 0"
         style="fill:#ffffff;fill-opacity:1;fill-rule:nonzero;stroke:none;stroke-width:2.43804"
         id="path118" /><path
         d="m 987.5434,1723.1391 c 0.4145,-12.1415 -13.7262,-22.2106 -31.23132,-22.4056 -17.60265,-0.4145 -31.84082,9.4108 -32.03587,21.3572 0,12.2633 13.82366,22.235 31.42631,22.5275 17.5052,0.3413 31.84088,-9.4109 31.84088,-21.4791 v 0"
         style="fill:#ffffff;fill-opacity:1;fill-rule:nonzero;stroke:none;stroke-width:2.43804"
         id="path120" /><path
         d="m 1099.6689,1742.2289 c 2.0967,-11.8488 -10.0691,-24.0147 -27.4523,-27.2329 -17.0907,-3.145 -32.9136,4.1691 -35.0835,15.9204 -2.1211,12.1415 10.2642,24.3073 27.3304,27.4523 17.4077,3.0233 32.9868,-4.0959 35.2054,-16.1398 v 0"
         style="fill:#ffffff;fill-opacity:1;fill-rule:nonzero;stroke:none;stroke-width:2.43804"
         id="path122" /><path
         d="m 2923.4458,3992.4137 68.3,-68.3001 a 59.184057,59.184057 0 0 1 42.074,-17.5308 h 87.5139 v -76.0136 a 70.12329,70.12329 0 0 1 70.1233,-70.1233 h 76.0136 v -87.2334 a 60.025536,60.025536 0 0 1 17.5308,-42.074 l 48.6656,-48.6655 a 54.836413,54.836413 0 0 1 37.5861,-15.2869 h 193.2598 a 46.421618,46.421618 0 0 1 46.2813,46.2814 v 0 193.2597 a 56.098632,56.098632 0 0 1 -16.1283,38.8483 l -409.3798,408.8188 a 446.68536,446.68536 0 0 1 -734.3311,472.4907 446.68536,446.68536 0 0 1 472.4908,-734.4713 z m -432.801,694.7815 a 390.58673,390.58673 0 0 0 636.0182,-428.0325 28.049315,28.049315 0 0 1 6.0306,-30.714 l 421.8617,-421.8617 v -183.3023 h -182.3205 l -48.6656,48.6656 a 3.5061644,3.5061644 0 0 0 -0.9817,2.5244 v 103.0813 a 40.110523,40.110523 0 0 1 -40.1105,40.1105 h -92.5628 a 13.183178,13.183178 0 0 0 -9.3965,3.9269 14.024658,14.024658 0 0 0 -3.9269,9.5367 v 91.5811 a 40.110523,40.110523 0 0 1 -40.1105,40.1105 h -103.2215 a 3.5061644,3.5061644 0 0 0 -2.5244,1.122 l -81.343,81.343 a 28.049315,28.049315 0 0 1 -30.714,6.0306 390.58673,390.58673 0 0 0 -428.0326,635.8779 z m 186.1072,-326.494 a 140.24658,140.24658 0 1 1 -140.2465,140.2466 140.24658,140.24658 0 0 1 140.2465,-140.2466 z m 0,223.2726 a 84.147947,84.147947 0 1 0 -84.1479,-84.148 84.147947,84.147947 0 0 0 84.1479,84.2882 z"
         id="path4"
         style="fill:#ffffff;stroke-width:14.0247" /></g></g></svg>
