<?xml version="1.0" encoding="UTF-8" standalone="no"?>
<svg
   xmlns:dc="http://purl.org/dc/elements/1.1/"
   xmlns:cc="http://creativecommons.org/ns#"
   xmlns:rdf="http://www.w3.org/1999/02/22-rdf-syntax-ns#"
   xmlns:svg="http://www.w3.org/2000/svg"
   xmlns="http://www.w3.org/2000/svg"
   xmlns:sodipodi="http://sodipodi.sourceforge.net/DTD/sodipodi-0.dtd"
   xmlns:inkscape="http://www.inkscape.org/namespaces/inkscape"
   version="1.1"
   id="svg2"
   xml:space="preserve"
   width="500"
   height="500"
   viewBox="0 0 500 500"
   sodipodi:docname="github_icon_white.svg"
   inkscape:version="1.0.2 (e86c870879, 2021-01-15)"><metadata
     id="metadata8"><rdf:RDF><cc:Work
         rdf:about=""><dc:format>image/svg+xml</dc:format><dc:type
           rdf:resource="http://purl.org/dc/dcmitype/StillImage" /><dc:title></dc:title></cc:Work></rdf:RDF></metadata><defs
     id="defs6" /><sodipodi:namedview
     pagecolor="#ffffff"
     bordercolor="#666666"
     borderopacity="1"
     objecttolerance="10"
     gridtolerance="10"
     guidetolerance="10"
     inkscape:pageopacity="0"
     inkscape:pageshadow="2"
     inkscape:window-width="2560"
     inkscape:window-height="1361"
     id="namedview4"
     showgrid="false"
     inkscape:zoom="0.75838721"
     inkscape:cx="127.86947"
     inkscape:cy="132.25086"
     inkscape:window-x="0"
     inkscape:window-y="0"
     inkscape:window-maximized="1"
     inkscape:current-layer="g12" /><g
     id="g10"
     inkscape:groupmode="layer"
     inkscape:label="ink_ext_XXXXXX"
     transform="matrix(1.3333333,0,0,-1.3333333,0,666.65333)"><g
       id="g12"
       transform="scale(0.1)"><path
         d="M 1875.0156,4939.9001 C 839.6088,4939.9001 0,4100.4776 0,3064.9156 0,2236.4846 537.249,1533.6487 1282.2501,1285.7125 c 93.7073,-17.3536 128.1101,40.681 128.1101,90.2049 0,44.7112 -1.7388,192.4136 -2.546,349.0892 -521.6312,-113.4237 -631.7016,221.2275 -631.7016,221.2275 -85.2929,216.7253 -208.1867,274.3532 -208.1867,274.3532 -170.1201,116.3734 12.8234,113.9826 12.8234,113.9826 188.284,-13.1961 287.425,-193.2209 287.425,-193.2209 167.2325,-286.6487 438.6359,-203.7777 545.6324,-155.8683 16.8288,121.155 65.4212,203.9329 119.0437,250.7244 -416.4666,47.4126 -854.2642,208.1868 -854.2642,926.6405 0,204.7092 73.2457,371.9727 193.1899,503.2809 -19.4681,47.2573 -83.6473,237.9321 18.1639,496.2016 0,0 157.4519,50.3933 515.7628,-192.1962 149.5653,41.5442 309.9669,62.3784 469.3128,63.0925 159.3459,-0.7141 319.8716,-21.5483 469.7164,-63.0925 357.8762,242.5895 515.1108,192.1962 515.1108,192.1962 102.0596,-258.2695 37.8493,-448.9443 18.3812,-496.2016 120.2236,-131.3082 192.9725,-298.5717 192.9725,-503.2809 0,-720.1615 -438.6359,-878.7311 -856.1582,-925.1501 67.2532,-58.1867 127.1787,-172.2935 127.1787,-347.2262 0,-250.8487 -2.1735,-452.7635 -2.1735,-514.5519 0,-49.8965 33.7508,-108.3596 128.7932,-89.9503 744.5975,248.2095 1281.1634,950.7969 1281.1634,1778.9485 0,1035.562 -839.4846,1874.9845 -1874.9845,1874.9845"
         style="fill:#ffffff;fill-opacity:1;fill-rule:evenodd;stroke:none;stroke-width:3.10495"
         id="path108" /><path
         d="m 710.1635,2247.8176 c -4.1295,-9.3458 -18.7849,-12.1092 -32.1362,-5.7131 -13.5996,6.1168 -21.2378,18.816 -16.8288,28.1619 4.0365,9.5943 18.7229,12.2335 32.2915,5.8684 13.6307,-6.1478 21.3931,-18.9713 16.6735,-28.3172 v 0"
         style="fill:#ffffff;fill-opacity:1;fill-rule:nonzero;stroke:none;stroke-width:3.10495"
         id="path110" /><path
         d="m 786.1106,2163.1147 c -8.9423,-8.2902 -26.4231,-4.4401 -38.284,8.6628 -12.2646,13.0718 -14.5622,30.5527 -5.4958,38.9671 9.2217,8.2902 26.1747,4.409 38.4703,-8.6628 12.2645,-13.2271 14.6553,-30.5838 5.3095,-38.9671 v 0"
         style="fill:#ffffff;fill-opacity:1;fill-rule:nonzero;stroke:none;stroke-width:3.10495"
         id="path112" /><path
         d="m 860.0394,2055.1246 c -11.4884,-7.9797 -30.2733,-0.4968 -41.8858,16.1768 -11.4883,16.6736 -11.4883,36.6694 0.2484,44.6802 11.6436,8.0108 30.149,0.8073 41.9168,-15.7421 11.4573,-16.922 11.4573,-36.9489 -0.2794,-45.1149 v 0"
         style="fill:#ffffff;fill-opacity:1;fill-rule:nonzero;stroke:none;stroke-width:3.10495"
         id="path114" /><path
         d="m 961.3227,1950.7984 c -10.2773,-11.3331 -32.1672,-8.2902 -48.1888,7.1724 -16.3941,15.1211 -20.9583,36.5763 -10.6499,47.9094 10.4016,11.3641 32.4156,8.166 48.5614,-7.1725 16.2699,-15.09 21.2378,-36.7005 10.2773,-47.9093 v 0"
         style="fill:#ffffff;fill-opacity:1;fill-rule:nonzero;stroke:none;stroke-width:3.10495"
         id="path116" /><path
         d="m 1101.0454,1890.2209 c -4.5333,-14.6864 -25.6159,-21.3621 -46.8537,-15.1211 -21.2068,6.4272 -35.0859,23.6286 -30.8011,38.4703 4.4091,14.7795 25.5848,21.7346 46.9779,15.059 21.1757,-6.3962 35.0859,-23.4734 30.6769,-38.4082 v 0"
         style="fill:#ffffff;fill-opacity:1;fill-rule:nonzero;stroke:none;stroke-width:3.10495"
         id="path118" /><path
         d="m 1254.4919,1878.981 c 0.5278,-15.4627 -17.4809,-28.2861 -39.7744,-28.5345 -22.4177,-0.5278 -40.5506,11.9851 -40.799,27.1993 0,15.6179 17.605,28.3172 40.0227,28.6897 22.2936,0.4347 40.5507,-11.9851 40.5507,-27.3545 v 0"
         style="fill:#ffffff;fill-opacity:1;fill-rule:nonzero;stroke:none;stroke-width:3.10495"
         id="path120" /><path
         d="m 1397.2884,1903.2927 c 2.6702,-15.09 -12.8235,-30.5837 -34.9617,-34.6823 -21.7657,-4.0053 -41.9168,5.3095 -44.6802,20.2753 -2.7013,15.4627 13.0718,30.9564 34.8064,34.9617 22.1694,3.8502 42.01,-5.2163 44.8355,-20.5547 v 0"
         style="fill:#ffffff;fill-opacity:1;fill-rule:nonzero;stroke:none;stroke-width:3.10495"
         id="path122" /></g></g></svg>
