<?xml version="1.0" encoding="utf-8"?>
<!-- Generator: Adobe Illustrator 22.0.1, SVG Export Plug-In . SVG Version: 6.00 Build 0)  -->
<svg version="1.1" id="Layer_1" xmlns="http://www.w3.org/2000/svg" xmlns:xlink="http://www.w3.org/1999/xlink" x="0px" y="0px"
	 viewBox="0 0 250 110.5" style="enable-background:new 0 0 250 110.5;" xml:space="preserve">
<style type="text/css">
	.st0{fill:#FFFFFF;}
</style>
<title>games</title>
<g id="Layer_2_1_">
	<g id="Layer_1-2">
		<path class="st0" d="M55.2,0C24.7,0,0,24.7,0,55.2s24.7,55.3,55.2,55.3c27.1,0,50.3-19.7,54.6-46.5h30.5
			c4.8,30.1,33.2,50.6,63.3,45.7c30.1-4.8,50.6-33.2,45.7-63.3C245,19.7,221.9,0,194.8,0H55.2z M55.2,26.2c3.2,0,5.8,2.6,5.8,5.8
			c0,0,0,0,0,0v17.4h17.4c3.2,0.1,5.7,2.8,5.6,6.1c-0.1,3-2.5,5.4-5.6,5.6H61v17.4c-0.1,3.2-2.8,5.7-6.1,5.6c-3-0.1-5.4-2.5-5.6-5.6
			V61H32c-3.2,0.1-5.9-2.4-6.1-5.6s2.4-5.9,5.6-6.1c0.2,0,0.3,0,0.5,0h17.4V32C49.4,28.8,52,26.2,55.2,26.2
			C55.2,26.2,55.2,26.2,55.2,26.2z M194.8,26.2c4.8,0,8.7,3.9,8.7,8.7s-3.9,8.7-8.7,8.7s-8.7-3.9-8.7-8.7
			C186.1,30.1,190,26.2,194.8,26.2L194.8,26.2z M174.4,46.5c4.8,0,8.7,3.9,8.7,8.7s-3.9,8.7-8.7,8.7s-8.7-3.9-8.7-8.7
			S169.6,46.5,174.4,46.5L174.4,46.5z M215.1,46.5c4.8,0,8.7,3.9,8.7,8.7s-3.9,8.7-8.7,8.7s-8.7-3.9-8.7-8.7
			C206.4,50.4,210.3,46.5,215.1,46.5z M194.8,66.9c4.8,0,8.7,3.9,8.7,8.7s-3.9,8.7-8.7,8.7s-8.7-3.9-8.7-8.7S190,66.9,194.8,66.9
			L194.8,66.9z"/>
	</g>
</g>
</svg>
