<?xml version="1.0" ?><!DOCTYPE svg  PUBLIC '-//W3C//DTD SVG 1.1//EN'  'http://www.w3.org/Graphics/SVG/1.1/DTD/svg11.dtd'><svg enable-background="new 0 0 512 512" height="512px" id="Layer_1" version="1.1" viewBox="0 0 512 512" width="512px" xml:space="preserve" xmlns="http://www.w3.org/2000/svg" xmlns:xlink="http://www.w3.org/1999/xlink"><g><path d="M510.689,478.854c0,17.561-14.275,31.836-31.836,31.836H33.146c-17.56,0-31.836-14.275-31.836-31.836   V33.146c0-17.56,14.276-31.836,31.836-31.836h445.707c17.561,0,31.836,14.276,31.836,31.836V478.854z" fill="#263C86"/></g><g><path d="M115.951,192.365c21.508,0,51.051,10.617,60.771,31.685l-42.042,15.429c-3.452-6.22-9.854-9.49-17.088-9.49   c-16.104,0-24.976,13.738-24.976,28.626c0,13.577,8.543,26.339,23.168,26.339c7.066,0,16.103-3.276,18.238-10.8h-20.374v-29.112   h59.664l-9.217,56.708c-13.031,11.645-31.154,17.886-48.473,17.886c-37.792,0-68.355-23.229-68.355-62.817   C47.268,216.579,77.007,192.365,115.951,192.365L115.951,192.365z" fill="#FFFFFF"/><path d="M347.973,252.073l-38.908-57.697l50.736-0.045l9.203,17.502c1.809,3.271,2.793,6.709,3.781,10.143h0.984   c0.816-3.601,2.299-6.871,3.941-10.143l8.545-17.502h50.768l-38.775,57.742l44.207,65.595h-51.264l-14.135-26.171   c-1.314-2.458-2.135-4.909-2.631-7.529h-1.312c-0.82,2.947-1.969,5.729-3.451,8.509l-13.801,25.191H329.43l-4.961-30.052   L347.973,252.073L347.973,252.073z" fill="#FFFFFF"/><path d="M263.215,194.331h45.82l15.434,93.288l-19.871,30.052h-18.705l-6.082-67.562h-0.822   c-0.822,4.09-1.643,8.347-2.955,12.27l-17.91,55.292h-26.294l-16.101-52.181c-1.314-5.233-2.465-10.145-2.793-15.378h-1.479   c-0.33,4.908-0.658,9.979-1.151,14.886l-5.259,52.673h-43.537l2.587-15.922c1.433-1.285,2.805-2.629,4.104-4.035   c14.625-15.703,14.625-32.554,14.953-52.673h-9.841l3.402-20.929l4.841-29.781h46.335l17.088,64.776h1.15   c0.82-5.396,1.641-11.125,3.121-16.357L263.215,194.331L263.215,194.331z" fill="#FFFFFF"/><path d="M449.064,193.572c2.629,0,5.197,0.675,7.709,2.02c2.51,1.355,4.467,3.284,5.859,5.806   c1.4,2.508,2.1,5.135,2.1,7.87c0,2.7-0.686,5.297-2.066,7.788c-1.379,2.497-3.316,4.434-5.803,5.812   c-2.48,1.382-5.086,2.067-7.799,2.067c-2.719,0-5.324-0.69-7.811-2.067c-2.486-1.38-4.42-3.314-5.805-5.812   c-1.395-2.491-2.082-5.088-2.082-7.788c0-2.735,0.709-5.359,2.109-7.87c1.404-2.516,3.361-4.45,5.873-5.806   C443.854,194.247,446.434,193.572,449.064,193.572L449.064,193.572z M449.064,196.168c-2.209,0-4.354,0.569-6.436,1.696   c-2.086,1.131-3.715,2.745-4.896,4.837c-1.174,2.101-1.77,4.286-1.77,6.566c0,2.255,0.586,4.414,1.742,6.489   c1.156,2.07,2.773,3.685,4.852,4.846c2.072,1.157,4.244,1.737,6.506,1.737c2.256,0,4.424-0.58,6.502-1.737   c2.078-1.155,3.689-2.775,4.838-4.846c1.152-2.075,1.723-4.234,1.723-6.489c0-2.279-0.584-4.466-1.748-6.566   c-1.17-2.092-2.805-3.706-4.896-4.837C453.391,196.737,451.244,196.168,449.064,196.168L449.064,196.168z M442.18,217.929v-16.871   h5.799c1.988,0,3.418,0.147,4.307,0.461c0.885,0.311,1.586,0.859,2.123,1.632c0.523,0.778,0.787,1.604,0.787,2.476   c0,1.234-0.441,2.306-1.322,3.225c-0.877,0.911-2.047,1.422-3.506,1.533c0.6,0.248,1.08,0.548,1.438,0.896   c0.676,0.666,1.51,1.779,2.496,3.347l2.059,3.299h-3.324l-1.498-2.661c-1.18-2.086-2.123-3.397-2.844-3.922   c-0.496-0.392-1.229-0.585-2.186-0.585h-1.594v7.166h-2.734V217.929z M444.904,208.433h3.305c1.584,0,2.652-0.241,3.227-0.707   c0.58-0.469,0.867-1.098,0.867-1.875c0-0.495-0.141-0.945-0.416-1.342c-0.281-0.39-0.666-0.688-1.148-0.879   c-0.502-0.198-1.41-0.291-2.74-0.291h-3.094V208.433L444.904,208.433z" fill="#FFFFFF"/></g></svg>