<?xml version="1.0" encoding="utf-8"?>
<!-- Generator: Adobe Illustrator 24.1.0, SVG Export Plug-In . SVG Version: 6.00 Build 0)  -->
<svg version="1.1" xmlns="http://www.w3.org/2000/svg" xmlns:xlink="http://www.w3.org/1999/xlink" x="0px" y="0px"
	 viewBox="0 0 120 120" style="enable-background:new 0 0 120 120;" xml:space="preserve">
<style type="text/css">
	.st0{fill-rule:evenodd;clip-rule:evenodd;fill:#FFFFFF;}
	.st1{fill:#FFFFFF;}
</style>
<g id="Layer_2">
	<circle cx="60" cy="60" r="59"/>
</g>
<g id="Layer_1">
	<path class="st0" d="M60,0C26.87,0,0,26.75,0,59.74c0,26.4,17.19,48.79,41.03,56.69c3,0.55,4.1-1.3,4.1-2.87
		c0-1.42-0.06-6.13-0.08-11.12c-16.69,3.61-20.21-7.05-20.21-7.05c-2.73-6.9-6.66-8.74-6.66-8.74c-5.44-3.71,0.41-3.63,0.41-3.63
		c6.02,0.42,9.2,6.16,9.2,6.16c5.35,9.13,14.04,6.49,17.46,4.97c0.54-3.86,2.09-6.5,3.81-7.99c-13.33-1.51-27.34-6.63-27.34-29.52
		c0-6.52,2.34-11.85,6.18-16.04c-0.62-1.51-2.68-7.58,0.58-15.81c0,0,5.04-1.6,16.5,6.12c4.79-1.32,9.92-1.99,15.02-2.01
		c5.1,0.02,10.24,0.69,15.03,2.01c11.45-7.73,16.48-6.12,16.48-6.12c3.27,8.23,1.21,14.31,0.59,15.81
		c3.85,4.18,6.17,9.51,6.17,16.04c0,22.95-14.04,28-27.4,29.48c2.15,1.85,4.07,5.49,4.07,11.06c0,7.99-0.07,14.43-0.07,16.39
		c0,1.59,1.08,3.45,4.12,2.87c23.83-7.91,41-30.29,41-56.68C120,26.75,93.14,0,60,0z"/>
	<path class="st1" d="M22.73,85.78c-0.13,0.3-0.6,0.39-1.03,0.18c-0.44-0.2-0.68-0.6-0.54-0.9c0.13-0.31,0.6-0.39,1.03-0.19
		C22.63,85.07,22.88,85.48,22.73,85.78L22.73,85.78z M21.99,85.23"/>
	<path class="st1" d="M25.16,88.47c-0.29,0.26-0.85,0.14-1.23-0.28c-0.39-0.42-0.47-0.97-0.18-1.24c0.29-0.26,0.84-0.14,1.23,0.28
		C25.38,87.65,25.45,88.21,25.16,88.47L25.16,88.47z M24.58,87.86"/>
	<path class="st1" d="M27.52,91.91c-0.37,0.26-0.97,0.02-1.34-0.51c-0.37-0.53-0.37-1.17,0.01-1.42c0.37-0.26,0.96-0.03,1.34,0.5
		C27.9,91.02,27.9,91.65,27.52,91.91L27.52,91.91z M27.52,91.91"/>
	<path class="st1" d="M30.76,95.24c-0.33,0.36-1.03,0.26-1.54-0.23c-0.52-0.48-0.67-1.17-0.34-1.53c0.33-0.36,1.04-0.26,1.55,0.23
		C30.95,94.19,31.11,94.88,30.76,95.24L30.76,95.24z M30.76,95.24"/>
	<path class="st1" d="M35.23,97.17c-0.15,0.47-0.82,0.68-1.5,0.48c-0.68-0.2-1.12-0.75-0.99-1.23c0.14-0.47,0.82-0.69,1.5-0.48
		C34.93,96.15,35.37,96.69,35.23,97.17L35.23,97.17z M35.23,97.17"/>
	<path class="st1" d="M40.14,97.53c0.02,0.49-0.56,0.9-1.27,0.91c-0.72,0.02-1.3-0.38-1.31-0.87c0-0.5,0.56-0.9,1.28-0.91
		C39.56,96.64,40.14,97.04,40.14,97.53L40.14,97.53z M40.14,97.53"/>
	<path class="st1" d="M44.71,96.75c0.09,0.48-0.41,0.97-1.12,1.11c-0.7,0.13-1.34-0.17-1.43-0.65c-0.09-0.49,0.42-0.99,1.11-1.11
		C43.99,95.98,44.62,96.26,44.71,96.75L44.71,96.75z M44.71,96.75"/>
</g>
<g id="Layer_3">
	<g>
		<path d="M60,1.5c15.73,0,30.54,6.37,41.69,17.94c10.69,11.08,16.81,25.9,16.81,40.66c-0.02,24.02-16.08,46.36-39.99,55.61
			c-6,1.85-12.23,2.79-18.52,2.79c-6.27,0-12.48-0.94-18.47-2.78C17.6,106.48,1.52,84.14,1.5,60.1
			C1.49,45.34,7.62,30.52,18.31,19.44C29.46,7.87,44.27,1.5,60,1.5 M60,0C25.96,0-0.02,29.03,0,60.11
			c0.02,24.59,16.31,47.51,41.03,57.03c4.47,1.38,11,2.86,18.96,2.86c0,0,0.01,0,0.01,0c7.98,0,14.52-1.49,19-2.87
			c24.7-9.54,40.98-32.44,41-57.03C120.02,29.03,94.05,0,60,0L60,0z"/>
	</g>
</g>
</svg>
