<?xml version="1.0" encoding="utf-8"?>
<!-- Generator: Adobe Illustrator 22.0.1, SVG Export Plug-In . SVG Version: 6.00 Build 0)  -->
<svg version="1.1" id="Layer_1" xmlns="http://www.w3.org/2000/svg" xmlns:xlink="http://www.w3.org/1999/xlink" x="0px" y="0px"
	 viewBox="0 0 24 24" style="enable-background:new 0 0 24 24;" xml:space="preserve">
<style type="text/css">
	.st0{fill:#FFFFFF;}
</style>
<path class="st0" d="M12,2C6.5,2,2,6.5,2,12c0,0.7,0.1,1.4,0.2,2h2.1C4.1,13.4,4,12.7,4,12c0-4.4,3.6-8,8-8s8,3.6,8,8
	c0,0.7-0.1,1.4-0.3,2h2.1c0.1-0.6,0.2-1.3,0.2-2C22,6.5,17.5,2,12,2z M9.8,6.2c-1.7,0.7-3,2-3.7,3.7l1.3,0.5C8,9.1,9.1,8.1,10.4,7.6
	L9.8,6.2z M12,9c-1.7,0-3,1.3-3,3c0,0.8,0.3,1.5,0.8,2h4.4c0.5-0.5,0.8-1.2,0.8-2C15,10.3,13.7,9,12,9z M12,11c0.6,0,1,0.4,1,1
	s-0.4,1-1,1s-1-0.4-1-1S11.4,11,12,11z M2,15v5c0,1.1,0.9,2,2,2h16c1.1,0,2-0.9,2-2v-5H2z"/>
</svg>
