<?xml version="1.0" encoding="UTF-8" standalone="no"?>
<svg
   xmlns:dc="http://purl.org/dc/elements/1.1/"
   xmlns:cc="http://creativecommons.org/ns#"
   xmlns:rdf="http://www.w3.org/1999/02/22-rdf-syntax-ns#"
   xmlns:svg="http://www.w3.org/2000/svg"
   xmlns="http://www.w3.org/2000/svg"
   xmlns:sodipodi="http://sodipodi.sourceforge.net/DTD/sodipodi-0.dtd"
   xmlns:inkscape="http://www.inkscape.org/namespaces/inkscape"
   version="1.1"
   x="0px"
   y="0px"
   viewBox="0 0 500 500"
   xml:space="preserve"
   id="svg8"
   sodipodi:docname="noun_Lan Port_968218.svg"
   width="500"
   height="500"
   inkscape:version="1.0.2 (e86c870879, 2021-01-15)"><metadata
     id="metadata14"><rdf:RDF><cc:Work
         rdf:about=""><dc:format>image/svg+xml</dc:format><dc:type
           rdf:resource="http://purl.org/dc/dcmitype/StillImage" /><dc:title></dc:title></cc:Work></rdf:RDF></metadata><defs
     id="defs12" /><sodipodi:namedview
     pagecolor="#ffffff"
     bordercolor="#666666"
     borderopacity="1"
     objecttolerance="10"
     gridtolerance="10"
     guidetolerance="10"
     inkscape:pageopacity="0"
     inkscape:pageshadow="2"
     inkscape:window-width="2560"
     inkscape:window-height="1361"
     id="namedview10"
     showgrid="false"
     inkscape:zoom="1.4863432"
     inkscape:cx="-66.248313"
     inkscape:cy="187.4884"
     inkscape:window-x="0"
     inkscape:window-y="0"
     inkscape:window-maximized="1"
     inkscape:current-layer="svg8" /><path
     d="M 445.49965,49.434297 H 59.292752 c -4.137932,0 -6.896552,2.75862 -6.896552,6.896552 V 442.53775 c 0,4.13793 2.75862,6.89655 6.896552,6.89655 H 445.49965 c 4.13793,0 6.89655,-2.75862 6.89655,-6.89655 V 56.330849 c 0,-4.137932 -2.75862,-6.896552 -6.89655,-6.896552 z M 438.6031,435.6412 H 66.189303 V 63.2274 H 438.6031 Z M 231.70655,214.95154 h -13.79311 v -55.17241 h 13.79311 z m 27.5862,0 h -13.7931 v -55.17241 h 13.7931 z m 27.58621,0 h -13.79311 v -55.17241 h 13.79311 z M 135.15482,159.77913 h 13.7931 v 55.17241 h -13.7931 z m 41.37931,55.17241 h -13.7931 v -55.17241 h 13.7931 z m 27.58621,0 h -13.79311 v -55.17241 h 13.79311 z m 110.34483,0 h -13.79311 v -55.17241 h 13.79311 z m 27.5862,0 h -13.7931 v -55.17241 h 13.7931 z m 27.58621,0 h -13.7931 v -55.17241 h 13.7931 z m -200,117.24138 h 20.68965 v 27.58621 h 124.13794 v -27.58621 h 20.68965 v -27.5862 h 55.17241 V 139.08947 H 114.46516 v 165.51725 h 55.17242 z M 121.36172,297.71016 V 145.98602 h 262.06896 v 151.72414 h -55.17241 v 27.58621 h -20.68965 v 27.58621 H 197.22378 v -27.58621 h -20.68965 v -27.58621 z m 27.5862,55.17242 h 20.68966 v 27.5862 h 165.51724 v -27.5862 h 20.68966 v -27.58621 h 55.17241 V 118.39981 H 93.77551 v 206.89656 h 55.17241 z M 100.67206,318.39982 V 125.29637 h 303.44828 v 193.10345 h -55.17242 v 27.5862 h -20.68965 v 27.58621 H 176.53413 v -27.58621 h -20.68965 v -27.5862 z"
     id="path2"
     style="stroke-width:6.89655;fill:#ffffff" /></svg>
