<?xml version="1.0" ?><!DOCTYPE svg  PUBLIC '-//W3C//DTD SVG 1.1//EN'  'http://www.w3.org/Graphics/SVG/1.1/DTD/svg11.dtd'><svg height="512px" style="enable-background:new 0 0 512 512;" version="1.1" viewBox="0 0 512 512" width="512px" xml:space="preserve" xmlns="http://www.w3.org/2000/svg" xmlns:xlink="http://www.w3.org/1999/xlink"><defs><style>.cls-1{fill:#fff;}</style></defs><g id="comp_x5F_207-mastodon"><g><path class="cls-1" d="M460.491,180.711c0-95.137-62.347-123.03-62.347-123.03c-61.172-28.091-223.648-27.798-284.232,0    c0,0-62.347,27.894-62.347,123.03c0,113.243-6.46,253.89,103.357,282.96c39.639,10.47,73.7,12.722,101.105,11.156    c49.721-2.74,77.615-17.717,77.615-17.717l-1.662-36.117c0,0-35.531,11.16-75.463,9.886c-39.543-1.369-81.238-4.306-87.698-52.852    c-0.588-4.307-0.88-8.809-0.88-13.604c83.782,20.454,155.229,8.907,174.904,6.558c54.908-6.558,102.77-40.423,108.838-71.353    C461.275,250.888,460.491,180.711,460.491,180.711L460.491,180.711z M386.986,303.251h-45.61V191.477    c0-48.644-62.644-50.504-62.644,6.754v61.173h-45.314V198.23c0-57.258-62.641-55.398-62.641-6.754v111.774H125.07    c0-119.505-5.089-144.759,18.009-171.282c25.35-28.287,78.105-30.146,101.595,5.97l11.354,19.086l11.353-19.086    c23.589-36.313,76.441-34.061,101.595-5.97C392.174,158.688,386.986,183.843,386.986,303.251L386.986,303.251z"/></g></g><g id="Layer_1"/></svg>