<svg xmlns="http://www.w3.org/2000/svg" viewBox="0 0 233.2 250"><defs><style>.cls-1{fill:#fff;}</style></defs><title>px-mastodon</title><g id="Layer_2" data-name="Layer 2"><g id="Layer_1-2" data-name="Layer 1"><path class="cls-1" d="M228.23,149.87c-3.43,17.64-30.7,36.94-62,40.68-16.34,1.95-32.42,3.74-49.57,2.95a290.85,290.85,0,0,1-50.18-6.69,56.19,56.19,0,0,0,.51,7.76c3.65,27.68,27.44,29.33,50,30.11a144.26,144.26,0,0,0,43-5.61l.94,20.57s-15.92,8.54-44.27,10.12c-15.63.86-35-.4-57.66-6.38C10,230.4,1.52,178.13.22,125.09c-.39-15.74-.15-30.59-.15-43C.07,27.85,35.61,12,35.61,12,53.52,3.72,84.27.26,116.23,0H117c32,.26,62.73,3.72,80.64,12,0,0,35.54,15.9,35.54,70.13,0,0,.44,40-5,67.79"/><path class="cls-1" d="M191.27,86.29V152h-26V88.22c0-13.44-5.65-20.26-17-20.26-12.5,0-18.77,8.09-18.77,24.09v34.88H103.67V92.05c0-16-6.27-24.09-18.77-24.09-11.31,0-17,6.82-17,20.26V152h-26V86.29q0-20.13,10.28-32c7.08-7.89,16.35-11.93,27.86-11.93,13.31,0,23.39,5.11,30.06,15.35l6.48,10.86,6.48-10.86c6.66-10.24,16.75-15.35,30.06-15.35,11.51,0,20.77,4,27.85,11.93q10.31,11.84,10.28,32"/></g></g></svg>