<?xml version="1.0" encoding="utf-8"?>
<!-- Generator: Adobe Illustrator 22.0.1, SVG Export Plug-In . SVG Version: 6.00 Build 0)  -->
<svg version="1.1" id="Layer_1" xmlns="http://www.w3.org/2000/svg" xmlns:xlink="http://www.w3.org/1999/xlink" x="0px" y="0px"
	 viewBox="0 0 227 250" style="enable-background:new 0 0 227 250;" xml:space="preserve">
<style type="text/css">
	.st0{fill:#FFFFFF;}
</style>
<title>music</title>
<g id="Layer_2_1_">
	<g id="Layer_1-2">
		<path class="st0" d="M203.3,1l-108,33.1c-13,3.6-23.7,17.4-23.7,30.5v114c0,0-7.8-5.2-25.2-2.9C20.8,179.4,0,199.1,0,219.7
			s20.8,33.3,46.3,29.7s44.5-22.9,44.5-43.5v-97.4c0-9.1,10.9-13,10.9-13l95.5-29.9c0,0,10.7-3.6,10.7,6.2v78.1l0,0
			c0,0-9.6-5.7-27.1-3.4c-25.8,3.1-46.6,22.4-46.6,43s20.8,33.6,46.3,30.7c25.8-3.2,46.3-22.4,46.3-43.3V18
			C227,4.7,216.6-2.9,203.3,1z"/>
	</g>
</g>
</svg>
