<svg xmlns="http://www.w3.org/2000/svg" viewBox="0 0 249.78 250"><defs><style>.cls-1{fill:#fff;}</style></defs><title>px-new</title><g id="Layer_2" data-name="Layer 2"><g id="Layer_1-2" data-name="Layer 1"><path id="new" class="cls-1" d="M249.78,124.82a5,5,0,0,0-2-4l-29.57-21,15.22-33a5.21,5.21,0,0,0-.29-4.59,5.56,5.56,0,0,0-4-2.58l-36.17-3.16-3.16-36.18a5.59,5.59,0,0,0-2.59-4A5.17,5.17,0,0,0,182.6,16l-33,15.21L128.91,1.94c-2-2.59-6.31-2.59-8,0l-21,29.57-33-15.22a5.23,5.23,0,0,0-4.6.29,5.61,5.61,0,0,0-2.58,4L56.56,56.78,20.38,59.93a5.57,5.57,0,0,0-4,2.59,5.14,5.14,0,0,0-.29,4.59l15.21,33L2,120.8a4.65,4.65,0,0,0-2,4,5.47,5.47,0,0,0,2,4l29.57,21-15.21,33a5.17,5.17,0,0,0,.28,4.59,5.55,5.55,0,0,0,4,2.58l36.18,3.16L60,229.33a5.55,5.55,0,0,0,2.58,4,5.17,5.17,0,0,0,4.59.28l33-15.21,21,29.57a4.64,4.64,0,0,0,4,2,5,5,0,0,0,4-2l21-29.57,33,15.21a5.17,5.17,0,0,0,4.59-.28,5.58,5.58,0,0,0,2.58-4l3.16-36.18L229.69,190a5.55,5.55,0,0,0,4-2.58,5.17,5.17,0,0,0,.28-4.59l-15.21-33,29.57-21A6.22,6.22,0,0,0,249.78,124.82Z"/></g></g></svg>