<?xml version="1.0" encoding="utf-8"?>
<!-- Generator: Adobe Illustrator 22.0.1, SVG Export Plug-In . SVG Version: 6.00 Build 0)  -->
<svg version="1.1" id="Layer_1" xmlns="http://www.w3.org/2000/svg" xmlns:xlink="http://www.w3.org/1999/xlink" x="0px" y="0px"
	 viewBox="0 0 250 212.4" style="enable-background:new 0 0 250 212.4;" xml:space="preserve">
<style type="text/css">
	.st0{fill:#FFFFFF;}
</style>
<title>photography</title>
<g id="Layer_2_1_">
	<g id="Layer_1-2">
		<path class="st0" d="M219,32.3h-38.7L168.5,8.7c-2.7-5.3-8.2-8.7-14.2-8.7H95.4c-6,0-11.5,3.3-14.2,8.7L69.4,32.3H30.8
			C13.9,32.2,0.1,45.8,0,62.7c0,0,0,0.1,0,0.1v118.8c0,17,13.8,30.7,30.8,30.8h188.5c17,0,30.7-13.8,30.8-30.8V62.8
			C249.7,45.9,235.9,32.3,219,32.3z M124.9,173c-29.6,0-53.6-24-53.6-53.6s24-53.6,53.6-53.6s53.6,24,53.6,53.6
			c0.1,29.6-23.9,53.6-53.4,53.6C125,173,124.9,173,124.9,173z"/>
		<path class="st0" d="M124.9,83.6c-19.7,0-35.7,16-35.8,35.8c0,5.1,4.1,9.2,9.2,9.2c5.1,0,9.2-4.1,9.2-9.2l0,0
			c0-9.6,7.7-17.3,17.3-17.3c0,0,0,0,0,0c5.1,0,9.2-4.1,9.2-9.2C134.1,87.7,130,83.6,124.9,83.6L124.9,83.6z"/>
	</g>
</g>
</svg>
