<svg xmlns="http://www.w3.org/2000/svg" xmlns:xlink="http://www.w3.org/1999/xlink" viewBox="0 0 333.33 333.33"><defs><style>.cls-1,.cls-2,.cls-3{fill:#fff;}.cls-1{clip-rule:evenodd;}.cls-3{fill-rule:evenodd;}.cls-4{clip-path:url(#clip-path);}.cls-5{clip-path:url(#clip-path-2);}.cls-6{clip-path:url(#clip-path-3);}.cls-7{clip-path:url(#clip-path-5);}</style><clipPath id="clip-path"><polygon class="cls-1" points="124.98 169.77 61.05 212.02 51.4 212.38 41.67 201.69 45.28 181.72 70.29 175.98 74.76 180.66 66.74 182.53 49.78 187.24 47.11 200.46 54.25 205.17 66.74 201.4 124.76 159.86 144.39 154.19 176.53 148.53 207.76 136.57 215.8 130.28 223.83 130.28 230.08 125.95 234.54 124.97 239.01 118.34 244.36 117.38 245.25 111.47 247.93 114.04 256.86 114.04 258.64 111.34 266.68 111.34 272.92 108.33 275.6 108.63 278.28 108.63 280.06 111.34 286.31 111.34 288.1 113.17 291.67 116.31 290.77 119.46 289.88 119.46 288.1 125.1 287.2 130.28 286.31 130.28 285.42 127.58 279.17 127.58 274.73 130.59 274.73 143.81 280.29 142.21 273.81 151.93 267.57 151.93 264.49 150.41 264.49 143.81 253.75 135.31 249.51 126.81 252.29 136.25 263.95 144.75 263.08 147.59 258.63 148.53 259.53 166.47 255.07 173.07 259.28 188.18 267.05 198.56 267.05 204.23 278.25 214.62 286.29 213.67 289.87 218.39 288.09 225 272.92 224.06 233.65 185.35 205.98 187.24 192.59 181.57 173.85 179.68 153.32 185.35 137.25 199.51 108.69 206.11 104.23 213.67 109.59 218.39 107.8 223.11 96.2 225 92.63 222.17 97.09 200.45 109.59 194.79 122.97 181.57 133.68 165.52 142.61 158.91 131.9 164.58 129.22 168.35 124.98 169.77"/></clipPath><clipPath id="clip-path-2"><rect class="cls-2" width="333.33" height="333.33"/></clipPath><clipPath id="clip-path-3"><polygon class="cls-1" points="160.85 186.22 165.55 192.02 161.02 208.36 173.92 222.08 185.56 222.08 185.56 215.33 182.72 213.44 178.78 215.33 172.69 206.81 181.1 194.51 179.34 183.14 173.88 181.25 160.85 186.22"/></clipPath><clipPath id="clip-path-5"><polygon class="cls-1" points="210.27 189.06 225.23 187.08 220.51 201 222.08 212.15 226.8 213.06 229.17 217.31 228.38 220.63 215.78 220.63 211.85 206.82 210.27 189.06"/></clipPath></defs><title>px-panther</title><g id="Layer_2" data-name="Layer 2"><g id="Layer_1-2" data-name="Layer 1"><polygon class="cls-3" points="124.98 169.77 61.05 212.02 51.4 212.38 41.67 201.69 45.28 181.72 70.29 175.98 74.76 180.66 66.74 182.53 49.78 187.24 47.11 200.46 54.25 205.17 66.74 201.4 124.76 159.86 144.39 154.19 176.53 148.53 207.76 136.57 215.8 130.28 223.83 130.28 230.08 125.95 234.54 124.97 239.01 118.34 244.36 117.38 245.25 111.47 247.93 114.04 256.86 114.04 258.64 111.34 266.68 111.34 272.92 108.33 275.6 108.63 278.28 108.63 280.06 111.34 286.31 111.34 288.1 113.17 291.67 116.31 290.77 119.46 289.88 119.46 288.1 125.1 287.2 130.28 286.31 130.28 285.42 127.58 279.17 127.58 274.73 130.59 274.73 143.81 280.29 142.21 273.81 151.93 267.57 151.93 264.49 150.41 264.49 143.81 253.75 135.31 249.51 126.81 252.29 136.25 263.95 144.75 263.08 147.59 258.63 148.53 259.53 166.47 255.07 173.07 259.28 188.18 267.05 198.56 267.05 204.23 278.25 214.62 286.29 213.67 289.87 218.39 288.09 225 272.92 224.06 233.65 185.35 205.98 187.24 192.59 181.57 173.85 179.68 153.32 185.35 137.25 199.51 108.69 206.11 104.23 213.67 109.59 218.39 107.8 223.11 96.2 225 92.63 222.17 97.09 200.45 109.59 194.79 122.97 181.57 133.68 165.52 142.61 158.91 131.9 164.58 129.22 168.35 124.98 169.77"/><g class="cls-4"><rect class="cls-2" width="333.33" height="333.33"/><g class="cls-5"><rect class="cls-2" x="37.5" y="104.17" width="258.33" height="125"/></g></g><polygon class="cls-3" points="160.85 186.22 165.55 192.02 161.02 208.36 173.92 222.08 185.56 222.08 185.56 215.33 182.72 213.44 178.78 215.33 172.69 206.81 181.1 194.51 179.34 183.14 173.88 181.25 160.85 186.22"/><g class="cls-6"><rect class="cls-2" width="333.33" height="333.33"/><g class="cls-5"><rect class="cls-2" x="156.69" y="177.08" width="33.04" height="49.17"/></g></g><polygon class="cls-3" points="210.27 189.06 225.23 187.08 220.51 201 222.08 212.15 226.8 213.06 229.17 217.31 228.38 220.63 215.78 220.63 211.85 206.82 210.27 189.06"/><g class="cls-7"><rect class="cls-2" width="333.33" height="333.33"/><g class="cls-5"><rect class="cls-2" x="206.1" y="182.92" width="27.23" height="41.88"/></g></g></g></g></svg>