<?xml version="1.0" encoding="UTF-8" standalone="no"?>
<svg
   width="500.00012pt"
   height="485.41339pt"
   version="1.1"
   viewBox="0 0 500.00012 485.41339"
   id="svg156"
   sodipodi:docname="noun-service-2128973.svg"
   inkscape:export-filename="services.svg"
   inkscape:export-xdpi="71.999977"
   inkscape:export-ydpi="71.999977"
   xmlns:inkscape="http://www.inkscape.org/namespaces/inkscape"
   xmlns:sodipodi="http://sodipodi.sourceforge.net/DTD/sodipodi-0.dtd"
   xmlns="http://www.w3.org/2000/svg"
   xmlns:svg="http://www.w3.org/2000/svg">
  <sodipodi:namedview
     id="namedview158"
     pagecolor="#ffffff"
     bordercolor="#666666"
     borderopacity="1.0"
     inkscape:showpageshadow="2"
     inkscape:pageopacity="0.0"
     inkscape:pagecheckerboard="0"
     inkscape:deskcolor="#d1d1d1"
     inkscape:document-units="pt"
     showgrid="false" />
  <defs
     id="defs62" />
  <g
     id="g154"
     transform="matrix(1.3058115,0,0,1.3058115,-207.02727,-122.92943)"
     style="fill:#f9f9f9">
    <path
       d="m 169.59,319.11 c -6.4883,1.6211 -11.047,7.4531 -11.047,14.145 0,6.6836 4.543,12.52 11.043,14.145 l 1.8477,0.46484 c 0.83594,4.75 2.0664,9.3672 3.6797,13.836 l -1.3398,1.3008 c -4.8008,4.6484 -5.8281,11.977 -2.4844,17.77 3.3438,5.793 10.207,8.582 16.637,6.7305 l 1.7773,-0.50781 c 3.0859,3.6641 6.4688,7.0469 10.145,10.137 l -0.51172,1.7891 c -1.832,6.4336 0.9375,13.289 6.7305,16.629 5.793,3.3477 13.121,2.3203 17.773,-2.4922 l 1.3086,-1.3477 c 4.4961,1.6289 9.1172,2.8633 13.824,3.6875 l 0.46094,1.8438 c 1.6289,6.4883 7.4609,11.031 14.145,11.031 6.6836,0 12.52,-4.5508 14.145,-11.031 l 0.46094,-1.8477 c 4.7266,-0.82812 9.3438,-2.0586 13.824,-3.6797 l 1.3125,1.3516 c 2.8242,2.918 6.6328,4.4375 10.484,4.4375 h 0.10938 c 8.0547,0 14.582,-6.5273 14.582,-14.582 0,-2.0352 -0.41406,-3.9766 -1.168,-5.7344 l -0.0156,-0.0508 c 3.67971,-3.0859 7.0703,-6.4805 10.145,-10.137 l 1.7852,0.50781 c 6.4414,1.8359 13.289,-0.94531 16.629,-6.7383 3.3438,-5.7969 2.3164,-13.125 -2.4922,-17.77 l -1.3477,-1.3086 c 1.6289,-4.4961 2.8633,-9.1172 3.6875,-13.82 l 1.8711,-0.46484 c 6.4883,-1.6211 11.04701,-7.4531 11.04701,-14.145 0,-6.6914 -4.5508,-12.523 -11.043,-14.152 l -1.87111,-0.46484 c -0.83594,-4.7383 -2.06639,-9.3555 -3.6797,-13.824 l 1.3359,-1.2969 c 4.8086,-4.6484 5.832,-11.977 2.4922,-17.77 -3.3359,-5.7852 -10.195,-8.5742 -16.637,-6.7305 l -1.7734,0.50781 c -3.08589,-3.668 -6.4766,-7.0586 -10.14499,-10.145 l 0.50781,-1.7773 c 1.832,-6.4336 -0.9375,-13.289 -6.7305,-16.629 -5.7969,-3.3438 -13.121,-2.3203 -17.77301,2.4922 l -1.3086,1.3477 c -4.4844,-1.6211 -9.1016,-2.8516 -13.82,-3.6797 l -0.46484,-1.8477 c -1.62889,-6.4883 -7.4531,-11.035 -14.145,-11.035 -6.6914,0 -12.52,4.5508 -14.145,11.035 l -0.46094,1.8477 c -4.7266,0.82812 -9.3438,2.0586 -13.824,3.6875 l -1.3008,-1.3398 c -4.6562,-4.8086 -11.988,-5.832 -17.773,-2.4961 -5.7969,3.3438 -8.5742,10.203 -6.7383,16.637 l 0.51172,1.7773 c -3.6641,3.0781 -7.0469,6.4648 -10.137,10.145 l -1.7891,-0.50781 c -6.4336,-1.8242 -13.281,0.94531 -16.629,6.7305 -3.3438,5.793 -2.3164,13.121 2.4844,17.77 l 1.3477,1.3125 c -1.6172,4.4727 -2.8477,9.082 -3.6797,13.82 z m 83.988,-9.8047 c 13.211,0 23.957,10.75 23.957,23.957 0,13.207 -10.75,23.953 -23.957,23.953 -13.207,0 -23.945,-10.746 -23.945,-23.953 -0.008,-13.207 10.738,-23.957 23.945,-23.957 z"
       id="path64"
       style="fill:#f9f9f9" />
    <path
       d="m 324.02,271.43 c 5.793,3.3477 13.121,2.3203 17.773,-2.4922 l 1.3086,-1.3477 c 4.4961,1.6289 9.1172,2.8633 13.824,3.6875 l 0.46094,1.8438 c 1.6289,6.4883 7.4609,11.031 14.145,11.031 6.6841,0 12.52,-4.5508 14.145,-11.031 l 0.46094,-1.8477 c 4.7266,-0.82813 9.3438,-2.0586 13.824,-3.6797 l 1.3125,1.3516 c 2.8242,2.918 6.6328,4.4375 10.484,4.4375 h 0.10938 c 8.0547,0 14.582,-6.5273 14.582,-14.582 0,-2.0352 -0.41406,-3.9766 -1.168,-5.7344 l -0.0156,-0.0508 c 3.6797,-3.0859 7.0703,-6.4805 10.145,-10.137 l 1.7852,0.50781 c 1.4062,0.40234 2.918,0.53516 4.2344,0.55859 8.0039,-0.0625 14.461,-6.5664 14.461,-14.582 0,-4.6719 -2.1914,-8.8242 -5.6055,-11.496 l -0.30469,-0.29297 c 1.6289,-4.4961 2.8633,-9.1172 3.6875,-13.82 l 1.8711,-0.46484 c 6.4883,-1.6211 11.047,-7.4531 11.047,-14.145 0,-6.6914 -4.5508,-12.523 -11.043,-14.152 l -1.8711,-0.46484 c -0.83594,-4.7383 -2.0664,-9.3555 -3.6797,-13.824 l 1.3359,-1.2969 c 4.8086,-4.6484 5.832,-11.977 2.4922,-17.77 -3.3359,-5.793 -10.195,-8.5742 -16.637,-6.7305 l -1.7734,0.50781 c -3.0859,-3.668 -6.4766,-7.0586 -10.145,-10.145 l 0.50781,-1.7773 c 1.832,-6.4336 -0.9375,-13.289 -6.7305,-16.629 -5.793,-3.3438 -13.113,-2.3203 -17.773,2.4922 l -1.3086,1.3477 c -4.4844,-1.6211 -9.1016,-2.8516 -13.82,-3.6797 l -0.46484,-1.8477 c -1.6289,-6.488301 -7.4531,-11.035001 -14.145,-11.035001 -6.6919,0 -12.52,4.5508 -14.145,11.035001 l -0.46094,1.8477 c -4.7266,0.82812 -9.3438,2.0586 -13.824,3.6875 l -1.3008,-1.3398 c -4.6562,-4.8086 -11.988,-5.832 -17.773,-2.4961 -5.7969,3.3438 -8.5742,10.203 -6.7383,16.637 l 0.51172,1.7773 c -3.6641,3.0781 -7.04689,6.4648 -10.137,10.145 l -1.7891,-0.50781 c -6.4336,-1.8242 -13.281,0.94531 -16.629,6.7305 -3.3438,5.793 -2.3164,13.121 2.4844,17.77 l 1.3477,1.3125 c -1.6172,4.4727 -2.8477,9.082 -3.6797,13.82 l -1.8477,0.46484 c -6.4883,1.6211 -11.047,7.4531 -11.047,14.145 0,6.6836 4.543,12.52 11.043,14.145 l 1.8477,0.46484 c 0.83594,4.75 2.0664,9.3672 3.6797,13.836 l -1.3398,1.3008 c -4.8008,4.6484 -5.8281,11.977 -2.4844,17.77 3.3438,5.793 10.207,8.582 16.637,6.7305 l 1.7773,-0.50781 c 3.0859,3.6641 6.4688,7.0469 10.145,10.137 l -0.51172,1.7891 c -1.8477,6.4023 0.92969,13.258 6.7227,16.598 z m 47.508,-106.24 c 13.211,0 23.957,10.75 23.957,23.957 0,13.207 -10.75,23.953 -23.957,23.953 -13.207,0 -23.945,-10.746 -23.945,-23.953 0,-13.207 10.742,-23.957 23.945,-23.957 z"
       id="path66"
       style="fill:#f9f9f9" />
    <path
       d="m 493.9,288.56 c -5.8164,-3.3438 -13.129,-2.3086 -17.77,2.5078 l -1.2969,1.3359 c -4.4805,-1.6211 -9.0938,-2.8516 -13.812,-3.6797 l -0.46484,-1.8477 c -1.6289,-6.4883 -7.4531,-11.035 -14.145,-11.035 -6.6919,0 -12.52,4.5508 -14.145,11.035 l -0.46094,1.8477 c -4.7305,0.82813 -9.3516,2.0586 -13.836,3.6875 l -1.3125,-1.3516 c -4.6602,-4.8086 -11.988,-5.8203 -17.781,-2.4805 -5.793,3.3477 -8.5625,10.207 -6.7148,16.648 l 0.50781,1.7656 c -3.6641,3.0781 -7.0469,6.4648 -10.133,10.137 l -1.7852,-0.50781 c -6.4297,-1.8125 -13.277,0.94531 -16.629,6.7305 -3.3438,5.793 -2.3164,13.121 2.4844,17.77 l 1.3398,1.3008 c -1.6289,4.4922 -2.8594,9.1133 -3.6875,13.824 l -1.8477,0.46484 c -6.4883,1.6211 -11.047,7.4531 -11.047,14.145 0,6.6919 4.5508,12.523 11.043,14.152 l 1.8555,0.46484 c 0.82812,4.7383 2.0664,9.3555 3.6797,13.824 l -1.3477,1.3086 c -4.8008,4.6484 -5.8281,11.977 -2.4844,17.77 3.3438,5.793 10.18,8.5625 16.629,6.7305 l 1.7969,-0.51172 c 3.0781,3.668 6.4648,7.0508 10.133,10.137 l -0.51172,1.7891 c -1.832,6.4336 0.9375,13.289 6.7305,16.629 5.793,3.3477 13.121,2.3203 17.773,-2.4922 l 1.3086,-1.3477 c 4.4961,1.6328 9.1172,2.8633 13.824,3.6914 l 0.45312,1.8242 c 1.6211,6.4883 7.4531,11.043 14.145,11.047 h 0.004 c 6.6836,0 12.52,-4.543 14.145,-11.031 l 0.46094,-1.8477 c 4.7266,-0.82812 9.3438,-2.0586 13.824,-3.6797 l 1.3125,1.3516 c 2.8477,2.9414 6.5742,4.4102 10.586,4.4375 8.0547,0 14.582,-6.5273 14.582,-14.582 0,-2.0312 -0.41016,-3.9648 -1.1602,-5.7227 l -0.0156,-0.0703 c 3.6797,-3.0898 7.0742,-6.4805 10.145,-10.137 l 1.7773,0.50781 c 6.4414,1.832 13.281,-0.94531 16.629,-6.7305 3.3477,-5.7852 2.3164,-13.113 -2.4844,-17.762 l -1.3477,-1.3125 c 1.6328,-4.4961 2.8633,-9.125 3.6914,-13.824 l 1.8594,-0.46484 c 6.4883,-1.6211 11.047,-7.4531 11.047,-14.145 0,-6.6914 -4.5508,-12.523 -11.043,-14.152 l -1.8672,-0.46484 c -0.83594,-4.7266 -2.0664,-9.3438 -3.6797,-13.82 l 1.3398,-1.3008 c 4.8086,-4.6484 5.832,-11.977 2.4961,-17.77 -3.3438,-5.7969 -10.195,-8.582 -16.637,-6.7383 l -1.7891,0.50781 c -3.0859,-3.6758 -6.4766,-7.0625 -10.145,-10.148 l 0.50781,-1.7891 c 1.8438,-6.4336 -0.94141,-13.281 -6.7305,-16.625 z m -47.492,106.26 c -13.211,0 -23.957,-10.746 -23.957,-23.953 0,-13.211 10.75,-23.957 23.957,-23.957 13.207,0 23.945,10.75 23.945,23.957 0.008,13.207 -10.738,23.953 -23.945,23.953 z"
       id="path68"
       style="fill:#f9f9f9" />
  </g>
</svg>
