<svg xmlns="http://www.w3.org/2000/svg" viewBox="0 0 250 250.01"><defs><style>.cls-1{fill:#fff;}</style></defs><title>px-settings</title><g id="Layer_2" data-name="Layer 2"><g id="Layer_1-2" data-name="Layer 1"><path class="cls-1" d="M249.22,111.12c-.4-3.51-4.5-6.15-8-6.15a27.6,27.6,0,0,1-18.89-48,7,7,0,0,0,.76-9.43,124.07,124.07,0,0,0-19.8-20,7,7,0,0,0-9.5.77c-7.46,8.25-20.84,11.32-31.18,7A27.77,27.77,0,0,1,145.68,8.13a6.94,6.94,0,0,0-6.13-7.3A124.73,124.73,0,0,0,111.43.76a7,7,0,0,0-6.19,7.15A27.82,27.82,0,0,1,88.12,34.58c-10.22,4.17-23.51,1.13-30.94-7a7,7,0,0,0-9.44-.8,124.22,124.22,0,0,0-20.22,20,7,7,0,0,0,.75,9.5,27.7,27.7,0,0,1,7,31.19c-4.32,10.27-15,16.89-27.2,16.89a6.8,6.8,0,0,0-7.22,6.14,125.13,125.13,0,0,0-.06,28.43C1.18,142.42,5.4,145,9,145A27.44,27.44,0,0,1,34.7,162.16a27.79,27.79,0,0,1-7,30.91,7,7,0,0,0-.76,9.42,124,124,0,0,0,19.78,20,7,7,0,0,0,9.51-.75c7.48-8.27,20.86-11.34,31.16-7a27.71,27.71,0,0,1,16.91,27.13,7,7,0,0,0,6.14,7.3,124,124,0,0,0,28.12.08,7,7,0,0,0,6.19-7.16,27.78,27.78,0,0,1,17.1-26.66c10.29-4.2,23.52-1.13,31,7a7,7,0,0,0,9.44.79,125,125,0,0,0,20.22-20,7,7,0,0,0-.75-9.5,27.71,27.71,0,0,1-7-31.19,28,28,0,0,1,25.57-16.94l1.55,0a7,7,0,0,0,7.31-6.13A125.13,125.13,0,0,0,249.22,111.12ZM125.2,167a41.7,41.7,0,1,1,41.69-41.69A41.74,41.74,0,0,1,125.2,167Z"/></g></g></svg>