<?xml version="1.0" encoding="utf-8"?>
<!-- Generator: Adobe Illustrator 22.0.1, SVG Export Plug-In . SVG Version: 6.00 Build 0)  -->
<svg version="1.1" id="Layer_1" xmlns="http://www.w3.org/2000/svg" xmlns:xlink="http://www.w3.org/1999/xlink" x="0px" y="0px"
	 viewBox="0 0 250 251.8" style="enable-background:new 0 0 250 251.8;" xml:space="preserve">
<style type="text/css">
	.st0{fill:#FFFFFF;}
</style>
<title>utilities</title>
<g id="Layer_2_1_">
	<g id="Layer_1-2">
		<path class="st0" d="M24.1,61.7L0.6,22.5L16.3,6.8l39.2,23.5V46l40.4,40.4v3.4l-14.6,13.4L39.8,61.7H24.1z M192.3,157h-9
			c-7.2-0.1-14.3-0.9-21.3-2.2l-23.5,26.9l52.7,59.4c12.3,13.5,33.6,14.6,46,1.1c13.4-13.4,12.3-33.6-1.1-46L192.3,157z
			 M230.4,114.4C248.4,96.5,254,69.6,247.2,46c-1.1-4.5-6.7-5.6-9-2.2L199,83l-31.4-31.4l39.3-39.2c3.4-3.4,2.2-7.8-2.2-9
			c-23.5-7.8-50.4-2.2-68.4,16.8c-20.2,20.2-24.7,51.6-13.5,76.2L10.7,196.3c-13.5,12.3-14.6,33.6-1.1,46l0,0
			c13.4,13.5,33.6,12.3,46-1.1L155.3,129C180.9,140.7,211.1,134.9,230.4,114.4L230.4,114.4z"/>
	</g>
</g>
</svg>
