<?xml version="1.0" encoding="utf-8"?>
<!-- Generator: Adobe Illustrator 22.0.1, SVG Export Plug-In . SVG Version: 6.00 Build 0)  -->
<svg version="1.1" id="Layer_1" xmlns="http://www.w3.org/2000/svg" xmlns:xlink="http://www.w3.org/1999/xlink" x="0px" y="0px"
	 viewBox="0 0 300.9 139.4" style="enable-background:new 0 0 300.9 139.4;" xml:space="preserve">
<style type="text/css">
	.st0{clip-path:url(#SVGID_3_);}
	.st1{clip-path:url(#SVGID_4_);}
	.st2{clip-path:url(#SVGID_7_);}
	.st3{clip-path:url(#SVGID_8_);}
	.st4{clip-path:url(#SVGID_11_);}
	.st5{clip-path:url(#SVGID_12_);}
</style>
<g>
	<g>
		<defs>
			<rect id="SVGID_1_" x="0.6" y="-0.1" width="300" height="140"/>
		</defs>
		<defs>
			<polygon id="SVGID_2_" points="100.6,73.6 23.8,124.3 12.3,124.8 0.6,111.9 4.9,88 34.9,81.1 40.3,86.7 30.7,88.9 10.3,94.6 
				7.1,110.5 15.7,116.1 30.7,111.6 100.3,61.7 123.9,54.9 162.4,48.1 199.9,33.8 209.5,26.2 219.2,26.2 226.7,21 232,19.9 
				237.4,11.9 243.8,10.8 244.9,3.7 248.1,6.8 258.8,6.8 261,3.5 270.6,3.5 278.1,-0.1 281.3,0.3 284.5,0.3 286.7,3.5 294.2,3.5 
				296.3,5.7 300.6,9.5 299.5,13.3 298.4,13.3 296.3,20 295.2,26.2 294.2,26.2 293.1,23 285.6,23 280.3,26.6 280.3,42.5 286.9,40.6 
				279.2,52.2 271.7,52.2 268,50.4 268,42.5 255.1,32.3 250,22.1 253.3,33.4 267.3,43.6 266.3,47 260.9,48.1 262,69.7 256.7,77.6 
				261.7,95.7 271,108.2 271,115 284.5,127.4 294.1,126.3 298.4,132 296.3,139.9 278.1,138.8 231,92.3 197.8,94.6 181.7,87.8 
				159.2,85.5 134.6,92.3 115.3,109.3 81,117.2 75.7,126.3 82.1,132 79.9,137.6 66,139.9 61.7,136.5 67.1,110.4 82.1,103.7 
				98.2,87.8 111,68.5 121.7,60.6 108.9,67.4 105.7,71.9 100.6,73.6 			"/>
		</defs>
		<clipPath id="SVGID_3_">
			<use xlink:href="#SVGID_1_"  style="overflow:visible;"/>
		</clipPath>
		<clipPath id="SVGID_4_" class="st0">
			<use xlink:href="#SVGID_2_"  style="overflow:visible;"/>
		</clipPath>
		<rect x="-4.4" y="-5.1" class="st1" width="310" height="150"/>
	</g>
	<g>
		<defs>
			<rect id="SVGID_5_" x="0.6" y="-0.1" width="300" height="140"/>
		</defs>
		<defs>
			<polygon id="SVGID_6_" points="143.6,93.4 149.2,100.3 143.8,119.9 159.3,136.4 173.3,136.4 173.3,128.3 169.8,126 165.1,128.3 
				157.8,118.1 167.9,103.3 165.8,89.7 159.2,87.4 143.6,93.4 			"/>
		</defs>
		<clipPath id="SVGID_7_">
			<use xlink:href="#SVGID_5_"  style="overflow:visible;"/>
		</clipPath>
		<clipPath id="SVGID_8_" class="st2">
			<use xlink:href="#SVGID_6_"  style="overflow:visible;"/>
		</clipPath>
		<rect x="138.6" y="82.4" class="st3" width="39.7" height="59"/>
	</g>
	<g>
		<defs>
			<rect id="SVGID_9_" x="0.6" y="-0.1" width="300" height="140"/>
		</defs>
		<defs>
			<polygon id="SVGID_10_" points="202.9,96.8 220.9,94.4 215.2,111.1 217.1,124.5 222.8,125.6 225.6,130.7 224.6,134.7 
				209.5,134.7 204.8,118.1 202.9,96.8 			"/>
		</defs>
		<clipPath id="SVGID_11_">
			<use xlink:href="#SVGID_9_"  style="overflow:visible;"/>
		</clipPath>
		<clipPath id="SVGID_12_" class="st4">
			<use xlink:href="#SVGID_10_"  style="overflow:visible;"/>
		</clipPath>
		<rect x="197.9" y="89.4" class="st5" width="32.7" height="50.2"/>
	</g>
</g>
</svg>
