<?xml version="1.0" encoding="UTF-8" standalone="no"?>
<svg
   width="500.00003pt"
   height="499.99432pt"
   version="1.1"
   viewBox="0 0 500.00003 499.99432"
   id="svg726"
   sodipodi:docname="noun-applications-1726637.svg"
   inkscape:export-filename="applications_bright.svg"
   inkscape:export-xdpi="21.72"
   inkscape:export-ydpi="21.72"
   xmlns:inkscape="http://www.inkscape.org/namespaces/inkscape"
   xmlns:sodipodi="http://sodipodi.sourceforge.net/DTD/sodipodi-0.dtd"
   xmlns="http://www.w3.org/2000/svg"
   xmlns:svg="http://www.w3.org/2000/svg">
  <sodipodi:namedview
     id="namedview728"
     pagecolor="#ffffff"
     bordercolor="#666666"
     borderopacity="1.0"
     inkscape:showpageshadow="2"
     inkscape:pageopacity="0.0"
     inkscape:pagecheckerboard="0"
     inkscape:deskcolor="#d1d1d1"
     inkscape:document-units="pt"
     showgrid="false" />
  <defs
     id="defs640" />
  <g
     id="g724">
    <path
       d="M 170.88638,233.54234 H 62.65822 C 28.48389,233.54234 0,205.69361 0,170.88412 L 0.005,62.660489 C 0.005,28.486148 27.85373,0.00226 62.66323,0.00226 h 108.22363 c 34.17433,0 62.65822,27.848728 62.65822,62.658229 V 170.88864 c -0.005,34.17433 -28.48389,62.65483 -62.65822,62.65483 z M 62.65822,24.685358 c -20.88569,0 -37.33996,17.089431 -37.33996,37.339971 V 170.25348 c 0,20.8857 17.08943,37.33996 37.33996,37.33996 l 108.22816,0.005 c 20.88569,0 37.33996,-17.08942 37.33996,-37.33996 V 62.661619 c 0,-20.88571 -17.08943,-37.339975 -37.33996,-37.339975 H 62.65822 Z"
       id="path642"
       style="fill:#1a1a1a;stroke-width:1.13018" />
    <path
       d="M 170.88638,499.99322 H 62.65822 C 28.48389,499.99322 0,472.14449 0,437.33499 L 0.005,329.11136 c 0,-34.17433 27.84873,-62.65822 62.65823,-62.65822 h 108.22363 c 34.17433,0 62.65822,27.84873 62.65822,62.65822 v 108.22816 c -0.005,34.8061 -28.48389,62.65483 -62.65822,62.65483 z M 62.65822,291.76914 c -20.88569,0 -37.33996,17.08943 -37.33996,37.33996 v 108.22815 c 0,20.8857 17.08943,37.33997 37.33996,37.33997 h 108.22816 c 20.88569,0 37.33996,-17.08943 37.33996,-37.33997 V 329.11362 c 0,-20.88569 -17.08943,-37.33996 -37.33996,-37.33996 z"
       id="path644"
       style="fill:#1a1a1a;stroke-width:1.13018" />
    <path
       d="M 437.33725,499.99322 H 329.11362 c -34.17433,0 -62.65822,-27.84873 -62.65822,-62.65823 V 329.11136 c 0,-34.17433 27.84873,-62.65822 62.65822,-62.65822 h 108.22816 c 34.17433,0 62.65822,27.84873 62.65822,62.65822 v 108.22816 c -0.004,34.8061 -27.85325,62.65483 -62.66275,62.65483 z M 329.11362,291.76914 c -20.88569,0 -37.33996,17.08943 -37.33996,37.33996 v 108.22815 c 0,20.8857 17.08943,37.33997 37.33996,37.33997 h 108.22816 c 20.88569,0 37.33996,-17.08943 37.33996,-37.33997 V 329.11362 c 0,-20.88569 -17.08943,-37.33996 -37.33996,-37.33996 z"
       id="path646"
       style="fill:#1a1a1a;stroke-width:1.13018" />
    <path
       d="m 316.45336,0 h 133.54189 c 27.84873,0 49.99684,22.153758 49.99684,49.996839 V 183.53872 c 0,27.84873 -22.15376,49.99684 -49.99684,49.99684 l -133.54189,0.005 c -27.84872,0 -49.99683,-22.15376 -49.99683,-49.99683 l -0.005,-133.541891 c 0,-27.848736 22.7844,-50.001364 50.00135,-50.001364 z"
       id="path648"
       style="fill:#1a1a1a;stroke-width:1.13018" />
  </g>
</svg>
