<?xml version="1.0" encoding="UTF-8" standalone="no"?>
<svg
   version="1.1"
   x="0px"
   y="0px"
   viewBox="0 0 500 500"
   xml:space="preserve"
   id="svg58"
   sodipodi:docname="bug_report.svg"
   width="500"
   height="500"
   inkscape:version="1.1 (c68e22c387, 2021-05-23)"
   xmlns:inkscape="http://www.inkscape.org/namespaces/inkscape"
   xmlns:sodipodi="http://sodipodi.sourceforge.net/DTD/sodipodi-0.dtd"
   xmlns="http://www.w3.org/2000/svg"
   xmlns:svg="http://www.w3.org/2000/svg"><defs
     id="defs62" /><sodipodi:namedview
     id="namedview60"
     pagecolor="#ffffff"
     bordercolor="#666666"
     borderopacity="1.0"
     inkscape:pageshadow="2"
     inkscape:pageopacity="0.0"
     inkscape:pagecheckerboard="0"
     showgrid="false"
     width="500px"
     inkscape:zoom="1.03125"
     inkscape:cx="-534.78788"
     inkscape:cy="199.75758"
     inkscape:window-width="2560"
     inkscape:window-height="1371"
     inkscape:window-x="0"
     inkscape:window-y="0"
     inkscape:window-maximized="1"
     inkscape:current-layer="svg58" /><g
     id="g52"
     transform="matrix(3.8306452,0,0,3.8306452,7.4119623,6.7832528)"><g
       id="g50"><g
         id="g24"><path
           d="M 89.684,126 C 71.865,126 57.368,111.489 57.368,93.653 57.368,75.816 71.865,61.305 89.684,61.305 107.503,61.305 122,75.816 122,93.653 122,111.489 107.503,126 89.684,126 Z m 0,-61.694 c -16.165,0 -29.316,13.165 -29.316,29.348 0,16.182 13.151,29.347 29.316,29.347 16.165,0 29.316,-13.166 29.316,-29.348 0,-16.182 -13.151,-29.347 -29.316,-29.347 z"
           id="path2" /><g
           id="g22"><path
             d="m 107.272,92.419 h -4.368 c -0.829,0 -1.5,-0.672 -1.5,-1.5 0,-0.828 0.671,-1.5 1.5,-1.5 h 4.368 c 0.052,-0.044 0.315,-0.421 0.315,-1.032 0,-0.079 0.006,-0.159 0.019,-0.237 l 0.844,-5.271 c 0.131,-0.818 0.901,-1.373 1.718,-1.244 0.818,0.131 1.375,0.9 1.244,1.719 l -0.827,5.163 c -0.053,2.198 -1.489,3.902 -3.313,3.902 z"
             id="path4" /><path
             d="m 109.555,112.342 c -0.724,0 -1.361,-0.525 -1.479,-1.263 l -0.844,-5.271 c -0.013,-0.078 -0.019,-0.158 -0.019,-0.237 0,-0.612 -0.264,-0.989 -0.374,-1.044 l -5.248,0.011 c -0.829,0 -1.5,-0.672 -1.5,-1.5 0,-0.828 0.671,-1.5 1.5,-1.5 h 5.306 c 1.824,0 3.26,1.704 3.314,3.904 l 0.827,5.162 c 0.131,0.818 -0.426,1.587 -1.244,1.719 -0.08,0.013 -0.16,0.019 -0.239,0.019 z"
             id="path6" /><path
             d="m 76.934,92.419 h -4.368 c -1.823,0 -3.259,-1.704 -3.314,-3.903 l -0.827,-5.163 c -0.131,-0.818 0.426,-1.588 1.244,-1.719 0.814,-0.129 1.587,0.426 1.718,1.244 l 0.844,5.271 c 0.013,0.078 0.019,0.158 0.019,0.237 0,0.611 0.264,0.988 0.374,1.043 l 4.31,-0.011 c 0.829,0 1.5,0.672 1.5,1.5 0,0.828 -0.671,1.501 -1.5,1.501 z"
             id="path8" /><path
             d="m 70.284,112.342 c -0.079,0 -0.159,-0.006 -0.239,-0.019 -0.818,-0.132 -1.375,-0.9 -1.244,-1.719 l 0.827,-5.162 c 0.055,-2.2 1.491,-3.904 3.314,-3.904 h 5.025 c 0.829,0 1.5,0.672 1.5,1.5 0,0.828 -0.671,1.5 -1.5,1.5 h -5.025 c -0.052,0.044 -0.316,0.421 -0.316,1.033 0,0.079 -0.006,0.159 -0.019,0.237 l -0.844,5.271 c -0.118,0.737 -0.756,1.263 -1.479,1.263 z"
             id="path10" /><path
             d="m 86.875,78.436 c -0.223,0 -0.448,-0.049 -0.661,-0.154 -0.873,-0.429 -1.647,-1.054 -2.239,-1.807 -1.182,-1.504 -1.38,-3.146 -1.393,-3.991 -0.012,-0.828 0.649,-1.51 1.477,-1.522 0.008,0 0.016,0 0.023,0 0.818,0 1.487,0.656 1.5,1.478 0.007,0.467 0.114,1.371 0.751,2.182 0.316,0.401 0.733,0.737 1.205,0.97 0.743,0.365 1.049,1.265 0.684,2.008 -0.261,0.528 -0.793,0.836 -1.347,0.836 z"
             id="path12" /><path
             d="m 92.809,78.436 c -0.554,0 -1.086,-0.308 -1.347,-0.838 -0.366,-0.743 -0.06,-1.643 0.684,-2.008 0.472,-0.232 0.889,-0.568 1.205,-0.971 0.639,-0.812 0.745,-1.714 0.751,-2.18 0.012,-0.829 0.711,-1.535 1.521,-1.479 0.828,0.012 1.49,0.693 1.479,1.521 -0.012,0.845 -0.209,2.486 -1.393,3.991 -0.592,0.754 -1.367,1.379 -2.239,1.808 -0.213,0.107 -0.439,0.156 -0.661,0.156 z"
             id="path14" /><path
             d="M 102.47,88.886 H 77.114 c -0.444,0 -0.865,-0.196 -1.149,-0.536 -0.285,-0.341 -0.405,-0.789 -0.328,-1.227 1.222,-6.878 7.175,-11.871 14.155,-11.871 6.98,0 12.934,4.993 14.155,11.871 0.078,0.438 -0.042,0.886 -0.328,1.227 -0.284,0.339 -0.705,0.536 -1.149,0.536 z m -23.42,-3 h 21.484 C 98.966,81.371 94.7,78.252 89.792,78.252 c -4.908,0 -9.174,3.119 -10.742,7.634 z"
             id="path16" /><path
             d="m 89.792,111.825 c -7.935,0 -14.39,-6.461 -14.39,-14.402 v -7.769 c 0,-0.817 0.077,-1.646 0.235,-2.531 0.127,-0.716 0.75,-1.237 1.477,-1.237 h 12.678 c 0.829,0 1.5,0.672 1.5,1.5 v 22.939 c 0,0.828 -0.671,1.5 -1.5,1.5 z M 78.432,88.886 c -0.02,0.261 -0.029,0.516 -0.029,0.769 v 7.769 c 0,5.778 4.315,10.566 9.89,11.304 V 88.886 Z"
             id="path18" /><path
             d="m 89.792,111.825 c -0.829,0 -1.5,-0.672 -1.5,-1.5 V 87.386 c 0,-0.828 0.671,-1.5 1.5,-1.5 h 12.678 c 0.727,0 1.349,0.521 1.477,1.237 0.158,0.886 0.235,1.714 0.235,2.531 v 7.769 c 0,7.941 -6.455,14.402 -14.39,14.402 z m 1.5,-22.939 v 19.841 c 5.574,-0.737 9.89,-5.525 9.89,-11.304 v -7.769 c 0,-0.253 -0.01,-0.508 -0.029,-0.769 h -9.861 z"
             id="path20" /></g></g><g
         id="g48"><g
           id="g44"><path
             d="M 80.793,24.939 H 42.218 c -0.829,0 -1.5,-0.672 -1.5,-1.5 0,-0.828 0.671,-1.5 1.5,-1.5 h 38.576 c 0.829,0 1.5,0.672 1.5,1.5 0,0.828 -0.672,1.5 -1.501,1.5 z"
             id="path26" /><path
             d="M 80.793,47.476 H 42.218 c -0.829,0 -1.5,-0.672 -1.5,-1.5 0,-0.828 0.671,-1.5 1.5,-1.5 h 38.576 c 0.829,0 1.5,0.672 1.5,1.5 0,0.828 -0.672,1.5 -1.501,1.5 z"
             id="path28" /><path
             d="M 63.75,70.013 H 42.218 c -0.829,0 -1.5,-0.672 -1.5,-1.5 0,-0.828 0.671,-1.5 1.5,-1.5 H 63.75 c 0.829,0 1.5,0.672 1.5,1.5 0,0.828 -0.672,1.5 -1.5,1.5 z"
             id="path30" /><path
             d="M 53.824,92.55 H 42.218 c -0.829,0 -1.5,-0.672 -1.5,-1.5 0,-0.828 0.671,-1.5 1.5,-1.5 h 11.606 c 0.829,0 1.5,0.672 1.5,1.5 0,0.828 -0.671,1.5 -1.5,1.5 z"
             id="path32" /><path
             d="m 20.475,30.907 c -0.345,0 -0.692,-0.118 -0.975,-0.36 -0.629,-0.539 -0.703,-1.486 -0.164,-2.115 l 8.416,-9.829 c 0.539,-0.629 1.486,-0.703 2.115,-0.164 0.629,0.539 0.703,1.486 0.164,2.115 l -8.416,9.829 c -0.297,0.346 -0.717,0.524 -1.14,0.524 z"
             id="path34" /><path
             d="m 28.892,30.907 c -0.423,0 -0.843,-0.178 -1.14,-0.524 l -8.416,-9.829 c -0.539,-0.629 -0.466,-1.576 0.164,-2.115 0.63,-0.539 1.577,-0.466 2.115,0.164 l 8.416,9.829 c 0.539,0.629 0.466,1.576 -0.164,2.115 -0.283,0.242 -0.63,0.36 -0.975,0.36 z"
             id="path36" /><path
             d="m 24.685,50.214 c -0.424,0 -0.844,-0.179 -1.14,-0.524 l -4.208,-4.914 c -0.539,-0.629 -0.466,-1.576 0.164,-2.115 0.63,-0.539 1.577,-0.466 2.115,0.164 l 3.271,3.819 10.442,-8.234 c 0.65,-0.512 1.593,-0.403 2.106,0.249 0.513,0.65 0.402,1.594 -0.249,2.106 l -11.573,9.127 c -0.275,0.216 -0.603,0.322 -0.928,0.322 z"
             id="path38" /><path
             d="m 24.685,72.751 c -0.424,0 -0.844,-0.179 -1.141,-0.524 l -4.208,-4.915 c -0.539,-0.629 -0.465,-1.576 0.164,-2.115 0.629,-0.538 1.577,-0.466 2.115,0.164 l 3.271,3.82 10.441,-8.234 c 0.65,-0.513 1.593,-0.402 2.106,0.249 0.513,0.65 0.402,1.594 -0.249,2.106 l -11.573,9.127 c -0.273,0.217 -0.601,0.322 -0.926,0.322 z"
             id="path40" /><path
             d="m 24.685,95.288 c -0.424,0 -0.844,-0.179 -1.141,-0.524 l -4.208,-4.915 c -0.539,-0.629 -0.465,-1.576 0.164,-2.115 0.629,-0.539 1.577,-0.466 2.115,0.164 l 3.271,3.82 10.442,-8.235 c 0.65,-0.513 1.593,-0.402 2.106,0.249 0.513,0.65 0.402,1.594 -0.249,2.106 l -11.573,9.128 c -0.274,0.217 -0.602,0.322 -0.927,0.322 z"
             id="path42" /></g><path
           d="M 63.469,111.365 H 14.679 C 9.893,111.365 6,107.469 6,102.679 V 10.686 C 6,5.896 9.893,2 14.679,2 H 86.59 c 4.785,0 8.678,3.896 8.678,8.686 v 52.398 c 0,0.828 -0.671,1.5 -1.5,1.5 -0.829,0 -1.5,-0.672 -1.5,-1.5 V 10.686 C 92.269,7.551 89.721,5 86.59,5 H 14.679 C 11.547,5 9,7.551 9,10.686 v 91.994 c 0,3.135 2.547,5.686 5.679,5.686 h 48.79 c 0.829,0 1.5,0.672 1.5,1.5 0,0.828 -0.672,1.499 -1.5,1.499 z"
           id="path46" /></g></g></g></svg>
