<svg xmlns="http://www.w3.org/2000/svg" viewBox="0 -52 250 197.18"><defs><style>.cls-1{fill:#010101;}</style></defs><title>development</title><g id="Layer_2" data-name="Layer 2"><g id="Layer_1-2" data-name="Layer 1"><path class="cls-1" d="M66.59,105.07a10,10,0,0,1-13.18,15.06l-50-43.75a10,10,0,0,1,0-15.06l50-43.75A10,10,0,0,1,66.59,32.63L25.19,68.85Zm116.82,0,41.4-36.22-41.4-36.22a10,10,0,0,1,13.18-15.06l50,43.75a10,10,0,0,1,0,15.06l-50,43.75a10,10,0,1,1-13.18-15.06ZM130.34,6.9c1.17-4.45,6.59-7.49,12.1-6.8s9,4.85,7.85,9.3L116.2,138.28c-1.17,4.45-6.59,7.5-12.1,6.81s-9-4.86-7.85-9.31Z"/></g></g></svg>