<svg xmlns="http://www.w3.org/2000/svg" viewBox="0 0 179.21 250"><defs><style>.cls-1{fill:#010101;}</style></defs><title>entertainment</title><g id="Layer_2" data-name="Layer 2"><g id="Layer_1-2" data-name="Layer 1"><path class="cls-1" d="M100,34A12.21,12.21,0,0,0,87.79,46.18,12.07,12.07,0,0,0,89.88,53,4.54,4.54,0,0,0,97.4,47.9a3,3,0,0,1-.53-1.72c0-2.89,4.54-4,5.88-1.41a4.53,4.53,0,1,0,8.06-4.15A12.12,12.12,0,0,0,100,34"/><path class="cls-1" d="M123.8,51.34a4.52,4.52,0,0,0,6.11-2c1.33-2.58,5.88-1.47,5.88,1.4a3.24,3.24,0,0,1-.54,1.76,4.54,4.54,0,1,0,7.55,5,12.18,12.18,0,1,0-21-12.35,4.54,4.54,0,0,0,2,6.11"/><path class="cls-1" d="M58.77,91.84A21.21,21.21,0,0,1,61.12,91c1-.24,2.3-.49,3.53-.73l2.42,25.39a4.55,4.55,0,0,0,4.51,4.11,3.39,3.39,0,0,0,.45,0,4.52,4.52,0,0,0,4.08-4.94l-2.47-26a291.23,291.23,0,0,1,38.83-2.44,276.54,276.54,0,0,1,43,3.08c.17.24.5.47.5.7L140.79,238.68c0,.08-.15.17-.18.27a190.38,190.38,0,0,1-28.14,2c-19.67,0-34.59-2.65-38.9-4.4Zm1.34-38.47a15.37,15.37,0,0,1,5.16-3.47v0a4.45,4.45,0,0,0,1.28-7.69A4.72,4.72,0,0,1,65,38.51a5,5,0,0,1,4.29-4.92,4.24,4.24,0,0,0,2.31.67A4.54,4.54,0,0,0,76,30.51a7.29,7.29,0,0,1,6.51-5.87l5.5-.59-1.64-5.27a8.82,8.82,0,0,1-.52-2.37,7.34,7.34,0,0,1,7.32-7.33,6.51,6.51,0,0,1,3.24.79,2.77,2.77,0,0,0,.49.15,4.51,4.51,0,0,0,.9.29,5.21,5.21,0,0,0,.8,0,4.55,4.55,0,0,0,.9-.07,4.63,4.63,0,0,0,.82-.27c.18-.08.37-.09.55-.18a3.75,3.75,0,0,1,4.45.3l.12.07a4.72,4.72,0,0,0,.61.37,5.36,5.36,0,0,0,.9.44,4.09,4.09,0,0,0,.61.1,3.72,3.72,0,0,0,.74.14,1.83,1.83,0,0,0,.25-.06,4.16,4.16,0,0,0,1-.2,4.56,4.56,0,0,0,.79-.26,1.66,1.66,0,0,1,.21-.06c3.78-2.15,8.77,1.15,8.9,5.41l.22,4.4h4.4a5.7,5.7,0,0,1,4.24,1.77l3.44,3.59L135,22.11a5.41,5.41,0,0,1,9.44,3.35,5.43,5.43,0,0,1-.65,2.48,4.48,4.48,0,0,0,1.43,5.8L145,34.87c5.24,1.21,7.51,2.71,8.5,3.76,2.8,3,3.92,9.06,4.12,11.16l.29,3,2.87.9c2,.63,6,2.65,6.81,4.73.7,1.81.21,5.8-.53,9.12-17.88-5-49.68-5.27-54.55-5.27s-37.25.23-55,5.42c-.66-4.34-.8-11,2.67-14.33Zm-5.3,30.12V78c5.25-2.57,27.16-6.62,57.66-6.62S164.89,75.4,170.13,78v5.52a63.44,63.44,0,0,0-7-1.94c-17-4.63-46.16-4.83-50.69-4.83-4.26,0-30.28.19-47.5,4.19a72.82,72.82,0,0,0-10.16,2.58Zm120.7-12.42c1-3.67,2.41-11,.52-15.89-1.79-4.74-6.66-7.63-9.81-9.07-.66-3.56-2.3-9.62-6.15-13.7A19.32,19.32,0,0,0,153.18,28a13.83,13.83,0,0,0,.34-2.54A14.46,14.46,0,0,0,139,11.06a13.91,13.91,0,0,0-7.6,2.25,14.8,14.8,0,0,0-3.55-1.42A15.56,15.56,0,0,0,113.1.91a14,14,0,0,0-4.38.79,12.76,12.76,0,0,0-10-.62A15.69,15.69,0,0,0,93.18,0a16.42,16.42,0,0,0-16.4,16.41c0,.14,0,.29,0,.43a16.45,16.45,0,0,0-8.17,7.67A14,14,0,0,0,57.08,44.18a28.59,28.59,0,0,0-3.25,2.63c-7.79,7.4-5.92,20.1-4.95,24.61-2,1.4-3.14,3-3.14,4.85v15a4.52,4.52,0,0,0,4.34,4.51l14.6,142.9c0,10.51,36.58,11.32,47.79,11.32s47.79-.81,47.77-10.86L174.85,95.79a4.52,4.52,0,0,0,4.36-4.52v-15c0-2-1.44-3.72-3.7-5.2Z"/><path class="cls-1" d="M34.24,236a4.46,4.46,0,0,0-3.11-2.85,4.54,4.54,0,0,0-5.47,3.34c-.81,3.35-6.18,3.71-7.44.5a4.54,4.54,0,0,0-5.87-2.59,4.47,4.47,0,0,0-2.25,2l0,0a4.41,4.41,0,0,1-.94-3.48A6.31,6.31,0,0,1,11.31,229c1.8-1.49,6.11-6.7,6.11-10.74,0-3.18,2.21-5.85,4.83-5.85s4.82,2.62,4.82,5.85c0,3.78,3.57,8.94,5.61,10.73A6.28,6.28,0,0,1,35,233.13a4.32,4.32,0,0,1-.71,2.82m1.91-17.73c0-8.23-6.24-14.93-13.9-14.93S8.34,210,8.38,217.77A13.24,13.24,0,0,1,5.48,222a15.32,15.32,0,0,0-5.36,9.71,13.43,13.43,0,0,0,3,10.52,13.46,13.46,0,0,0,12.13,4.39,13,13,0,0,0,6.6,1.9,12.77,12.77,0,0,0,6.58-2,14.81,14.81,0,0,0,2.15.35,13.67,13.67,0,0,0,10.34-4.66A13.37,13.37,0,0,0,44,232.34a15.28,15.28,0,0,0-5.4-10.27,14.78,14.78,0,0,1-2.45-3.85"/><path class="cls-1" d="M120.31,167.17l-3.25-1.66a7.84,7.84,0,0,0-6.5.09l-3.23,1.74c-1.77,1-3,.12-2.65-1.88l.57-3.6a7.84,7.84,0,0,0-2.08-6.16l-2.66-2.52c-1.47-1.39-1-2.79,1-3.1l3.61-.58a7.78,7.78,0,0,0,5.2-3.89l1.58-3.3c.87-1.81,2.34-1.83,3.25,0l1.66,3.26a7.9,7.9,0,0,0,5.31,3.75l3.63.48c2,.26,2.47,1.65,1,3.08l-2.58,2.58a7.87,7.87,0,0,0-1.93,6.21l.66,3.6c.38,2-.8,2.86-2.6,1.94m25.69-23c-5.26-13.6-24-19-41.73-12.15s-27.91,23.49-22.64,37.08,24,19,41.73,12.15,27.91-23.49,22.64-37.08"/><path class="cls-1" d="M78.22,184.64a4.54,4.54,0,0,0-4.09,5L78,230.11a4.55,4.55,0,0,0,4.51,4.11,3.25,3.25,0,0,0,.44,0A4.52,4.52,0,0,0,87,229.26l-3.86-40.53a4.55,4.55,0,0,0-5-4.09"/><path class="cls-1" d="M78.56,137.6l-.87-9a4.54,4.54,0,0,0-9,.87l.87,9.05a4.55,4.55,0,0,0,4.51,4.1l.45,0a4.54,4.54,0,0,0,4.08-5"/></g></g></svg>