<svg xmlns="http://www.w3.org/2000/svg" viewBox="0 -34 250 217.79"><defs><style>.cls-1{fill:#010101;}</style></defs><title>education</title><g id="Layer_2" data-name="Layer 2"><g id="Layer_1-2" data-name="Layer 1"><path class="cls-1" d="M43.94,143.59V84.14l69.83,28.75a14.36,14.36,0,0,0,11,0L196.36,83.4v60.19a7.53,7.53,0,0,1-.59,2.84c0,.09-13.71,32.61-74.93,37.32a7.19,7.19,0,0,1-1.23,0C64,179.53,47.52,152.31,44.93,147.25a7.24,7.24,0,0,1-1-3.66ZM4.48,46.64,116.5.54a7.3,7.3,0,0,1,5.51,0l112,46.1a7.28,7.28,0,0,1,2.88,11.28v69.41l12,19.19a7.28,7.28,0,0,1-6.17,11.1H216.54a7.29,7.29,0,0,1-5.93-11.49l11.75-18.8V64.86L122,106.15a7.2,7.2,0,0,1-5.51,0L4.48,60.06a7.26,7.26,0,0,1,0-13.42Z"/></g></g></svg>