<svg xmlns="http://www.w3.org/2000/svg" viewBox="0 -70 250 180.47"><defs><style>.cls-1{fill:#010101;}</style></defs><title>games</title><g id="Layer_2" data-name="Layer 2"><g id="Layer_1-2" data-name="Layer 1"><path class="cls-1" d="M55.23,0a55.24,55.24,0,1,0,54.51,64h30.52A55.22,55.22,0,1,0,194.77,0Zm0,26.16A5.83,5.83,0,0,1,61.05,32V49.42H78.49a5.82,5.82,0,0,1,0,11.63H61.05V78.49a5.82,5.82,0,0,1-11.63,0V61.05H32a5.82,5.82,0,1,1,0-11.63H49.42V32A5.82,5.82,0,0,1,55.23,26.16Zm139.54,0a8.72,8.72,0,1,1-8.72,8.72A8.73,8.73,0,0,1,194.77,26.16ZM174.42,46.51a8.72,8.72,0,1,1-8.72,8.72A8.72,8.72,0,0,1,174.42,46.51Zm40.7,0a8.72,8.72,0,1,1-8.72,8.72A8.73,8.73,0,0,1,215.12,46.51ZM194.77,66.86a8.72,8.72,0,1,1-8.72,8.72A8.72,8.72,0,0,1,194.77,66.86Z"/></g></g></svg>