<?xml version="1.0" encoding="UTF-8" standalone="no"?>
<svg
   xmlns:dc="http://purl.org/dc/elements/1.1/"
   xmlns:cc="http://creativecommons.org/ns#"
   xmlns:rdf="http://www.w3.org/1999/02/22-rdf-syntax-ns#"
   xmlns:svg="http://www.w3.org/2000/svg"
   xmlns="http://www.w3.org/2000/svg"
   xmlns:sodipodi="http://sodipodi.sourceforge.net/DTD/sodipodi-0.dtd"
   xmlns:inkscape="http://www.inkscape.org/namespaces/inkscape"
   version="1.1"
   id="svg2"
   xml:space="preserve"
   width="500"
   height="500"
   viewBox="0 0 500 500"
   sodipodi:docname="github_icon_token_black.svg"
   inkscape:version="1.0.2 (e86c870879, 2021-01-15)"><metadata
     id="metadata8"><rdf:RDF><cc:Work
         rdf:about=""><dc:format>image/svg+xml</dc:format><dc:type
           rdf:resource="http://purl.org/dc/dcmitype/StillImage" /><dc:title /></cc:Work></rdf:RDF></metadata><defs
     id="defs6" /><sodipodi:namedview
     pagecolor="#ffffff"
     bordercolor="#666666"
     borderopacity="1"
     objecttolerance="10"
     gridtolerance="10"
     guidetolerance="10"
     inkscape:pageopacity="0"
     inkscape:pageshadow="2"
     inkscape:window-width="2560"
     inkscape:window-height="1361"
     id="namedview4"
     showgrid="false"
     inkscape:zoom="1.0725215"
     inkscape:cx="353.85391"
     inkscape:cy="333.33722"
     inkscape:window-x="0"
     inkscape:window-y="0"
     inkscape:window-maximized="1"
     inkscape:current-layer="g12"
     inkscape:document-rotation="0" /><g
     id="g10"
     inkscape:groupmode="layer"
     inkscape:label="ink_ext_XXXXXX"
     transform="matrix(1.3333333,0,0,-1.3333333,0,666.65333)"><g
       id="g12"
       transform="scale(0.1)"><path
         d="M 1477.9198,4107.428 C 664.90688,4107.428 5.6366996,3448.2798 5.6366996,2635.1449 c 0,-650.4932 421.8539004,-1202.3677 1006.8371004,-1397.0452 73.58,-13.6286 100.5934,31.9383 100.5934,70.825 0,35.1078 -1.3653,151.0853 -1.9991,274.1088 -409.59063,-89.0616 -496.01914,173.7103 -496.01914,173.7103 -66.97293,170.1751 -163.47052,215.4251 -163.47052,215.4251 -133.58019,91.3777 10.06907,89.5004 10.06907,89.5004 147.84271,-10.3616 225.68932,-151.7435 225.68932,-151.7435 131.31282,-225.0554 344.42177,-159.9841 428.43667,-122.3652 13.2141,95.1566 51.3694,160.1305 93.4744,196.8717 -327.01421,37.2288 -670.77775,163.4705 -670.77775,727.6084 0,160.7399 57.51333,292.0772 151.69485,395.1818 -15.28657,37.1069 -65.68078,186.827 14.2625,389.623 0,0 123.63299,39.5694 404.9827,-150.9145 117.4404,32.6209 243.3895,48.9802 368.5096,49.5409 125.1202,-0.5607 251.1668,-16.92 368.8266,-49.5409 281.0084,190.4839 404.4707,150.9145 404.4707,150.9145 80.1384,-202.796 29.7197,-352.5161 14.4331,-389.623 94.4009,-103.1046 151.5242,-234.4419 151.5242,-395.1818 0,-565.4788 -344.4218,-689.9895 -672.265,-726.4382 52.808,-45.6888 99.8622,-135.2868 99.8622,-272.6459 0,-196.9935 -1.7066,-355.5392 -1.7066,-404.0319 0,-39.1793 26.5014,-85.0875 101.1298,-70.6299 584.6663,194.8968 1005.9837,746.5763 1005.9837,1396.8501 0,813.1349 -659.1726,1472.2831 -1472.2587,1472.2831"
         style="fill:#1b1817;fill-opacity:1;fill-rule:evenodd;stroke:none;stroke-width:2.43805"
         id="path18" /><path
         d="m 2130.0914,3182.7129 c -0.9049,-2.0479 -4.1161,-2.6534 -7.0415,-1.2519 -2.9799,1.3403 -4.6535,4.1229 -3.6874,6.1707 0.8844,2.0955 4.1024,2.6805 7.0755,1.2859 2.9867,-1.3471 4.6875,-4.1569 3.6534,-6.2047 v 0"
         style="fill:#1b1817;fill-opacity:1;fill-rule:nonzero;stroke:none;stroke-width:0.680338"
         id="path20" /><path
         d="m 2146.7325,3164.1532 c -1.9594,-1.8165 -5.7897,-0.9728 -8.3886,1.8982 -2.6873,2.8642 -3.1908,6.6945 -1.2042,8.5382 2.0206,1.8097 5.7352,0.9593 8.4294,-1.8981 2.6873,-2.8983 3.2112,-6.7013 1.1634,-8.5383 v 0"
         style="fill:#1b1817;fill-opacity:1;fill-rule:nonzero;stroke:none;stroke-width:0.680338"
         id="path22" /><path
         d="m 2162.9313,3140.4911 c -2.5172,-1.7485 -6.6333,-0.1089 -9.1777,3.5445 -2.5173,3.6535 -2.5173,8.0348 0.054,9.7901 2.5512,1.7553 6.6061,0.1701 9.1845,-3.4493 2.5105,-3.7147 2.5105,-8.096 -0.061,-9.8853 v 0"
         style="fill:#1b1817;fill-opacity:1;fill-rule:nonzero;stroke:none;stroke-width:0.680338"
         id="path24" /><path
         d="m 2185.124,3117.6317 c -2.252,-2.4832 -7.0484,-1.8165 -10.5589,1.5716 -3.5922,3.3132 -4.5923,8.0144 -2.3336,10.4976 2.2792,2.4901 7.1028,1.7893 10.6405,-1.5716 3.565,-3.3064 4.6535,-8.0416 2.252,-10.4976 v 0"
         style="fill:#1b1817;fill-opacity:1;fill-rule:nonzero;stroke:none;stroke-width:0.680338"
         id="path26" /><path
         d="m 2215.7392,3104.3583 c -0.9933,-3.218 -5.6128,-4.6807 -10.2663,-3.3132 -4.6467,1.4083 -7.6879,5.1773 -6.749,8.4294 0.9661,3.2384 5.606,4.7623 10.2935,3.2996 4.6399,-1.4015 7.6879,-5.1434 6.7218,-8.4158 v 0"
         style="fill:#1b1817;fill-opacity:1;fill-rule:nonzero;stroke:none;stroke-width:0.680338"
         id="path28" /><path
         d="m 2249.3615,3101.8955 c 0.1156,-3.3881 -3.8303,-6.1979 -8.7151,-6.2591 -4.9121,-0.1089 -8.8853,2.6329 -8.9397,5.9665 0,3.4221 3.8575,6.2047 8.7696,6.2864 4.8848,0.095 8.8852,-2.6261 8.8852,-5.9938 v 0"
         style="fill:#1b1817;fill-opacity:1;fill-rule:nonzero;stroke:none;stroke-width:0.680338"
         id="path30" /><path
         d="m 2280.6502,3107.2225 c 0.5851,-3.3064 -2.8098,-6.7013 -7.6606,-7.6061 -4.7691,-0.8709 -9.1845,1.1701 -9.79,4.4494 -0.5919,3.3881 2.8642,6.7829 7.6266,7.6606 4.8576,0.8436 9.2049,-1.143 9.824,-4.5039 v 0"
         style="fill:#1b1817;fill-opacity:1;fill-rule:nonzero;stroke:none;stroke-width:0.680338"
         id="path32" /><path
         d="m 2923.4474,3992.4137 68.3002,-68.3001 a 59.184218,59.184057 0 0 1 42.0741,-17.5308 h 87.5142 v -76.0136 a 70.123481,70.12329 0 0 1 70.1235,-70.1233 h 76.0138 v -87.2334 a 60.0257,60.025536 0 0 1 17.5308,-42.074 l 48.6658,-48.6655 a 54.836563,54.836413 0 0 1 37.5862,-15.2869 h 193.2603 a 46.421745,46.421618 0 0 1 46.2814,46.2814 v 0 193.2597 a 56.098785,56.098632 0 0 1 -16.1283,38.8483 l -409.381,408.8188 a 446.68658,446.68536 0 0 1 -734.3331,472.4907 446.68658,446.68536 0 0 1 472.4921,-734.4713 z m -432.8021,694.7815 a 390.58779,390.58673 0 0 0 636.0199,-428.0325 28.049391,28.049315 0 0 1 6.0306,-30.714 l 421.8629,-421.8617 v -183.3023 h -182.321 l -48.6658,48.6656 a 3.506174,3.5061644 0 0 0 -0.9817,2.5244 v 103.0813 a 40.110632,40.110523 0 0 1 -40.1106,40.1105 h -92.563 a 13.183214,13.183178 0 0 0 -9.3966,3.9269 14.024696,14.024658 0 0 0 -3.9269,9.5367 v 91.5811 a 40.110632,40.110523 0 0 1 -40.1106,40.1105 h -103.2218 a 3.506174,3.5061644 0 0 0 -2.5244,1.122 l -81.3432,81.343 a 28.049391,28.049315 0 0 1 -30.7141,6.0306 390.58779,390.58673 0 0 0 -428.0337,635.8779 z m 186.1077,-326.494 a 140.24696,140.24658 0 1 1 -140.2469,140.2466 140.24696,140.24658 0 0 1 140.2469,-140.2466 z m 0,223.2726 a 84.148176,84.147947 0 1 0 -84.1482,-84.148 84.148176,84.147947 0 0 0 84.1482,84.2882 z"
         id="path4"
         style="fill:#000000;stroke-width:14.0247" /></g></g></svg>
