<?xml version="1.0" encoding="UTF-8" standalone="no"?>
<svg
   xmlns:dc="http://purl.org/dc/elements/1.1/"
   xmlns:cc="http://creativecommons.org/ns#"
   xmlns:rdf="http://www.w3.org/1999/02/22-rdf-syntax-ns#"
   xmlns:svg="http://www.w3.org/2000/svg"
   xmlns="http://www.w3.org/2000/svg"
   xmlns:sodipodi="http://sodipodi.sourceforge.net/DTD/sodipodi-0.dtd"
   xmlns:inkscape="http://www.inkscape.org/namespaces/inkscape"
   version="1.1"
   id="svg2"
   xml:space="preserve"
   width="500"
   height="500"
   viewBox="0 0 500 500"
   sodipodi:docname="GitHub-Mark.eps"
   inkscape:version="1.0.2 (e86c870879, 2021-01-15)"><metadata
     id="metadata8"><rdf:RDF><cc:Work
         rdf:about=""><dc:format>image/svg+xml</dc:format><dc:type
           rdf:resource="http://purl.org/dc/dcmitype/StillImage" /><dc:title></dc:title></cc:Work></rdf:RDF></metadata><defs
     id="defs6" /><sodipodi:namedview
     pagecolor="#ffffff"
     bordercolor="#666666"
     borderopacity="1"
     objecttolerance="10"
     gridtolerance="10"
     guidetolerance="10"
     inkscape:pageopacity="0"
     inkscape:pageshadow="2"
     inkscape:window-width="2560"
     inkscape:window-height="1361"
     id="namedview4"
     showgrid="false"
     inkscape:zoom="1.0725215"
     inkscape:cx="353.85391"
     inkscape:cy="333.33722"
     inkscape:window-x="0"
     inkscape:window-y="0"
     inkscape:window-maximized="1"
     inkscape:current-layer="g12" /><g
     id="g10"
     inkscape:groupmode="layer"
     inkscape:label="ink_ext_XXXXXX"
     transform="matrix(1.3333333,0,0,-1.3333333,0,666.65333)"><g
       id="g12"
       transform="scale(0.1)"><path
         d="M 1875.0156,4954.9001 C 839.6088,4954.9001 0,4115.4465 0,3079.8845 0,2251.4535 537.249,1548.6177 1282.2501,1300.6876 c 93.7073,-17.3566 128.1101,40.6748 128.1101,90.1987 0,44.7113 -1.7388,192.4136 -2.546,349.0893 -521.6312,-113.4238 -631.7016,221.2275 -631.7016,221.2275 -85.2929,216.7253 -208.1867,274.3531 -208.1867,274.3531 -170.1201,116.3734 12.8234,113.9826 12.8234,113.9826 188.284,-13.196 287.425,-193.2519 287.425,-193.2519 167.2325,-286.6177 438.6359,-203.7466 545.6324,-155.8373 16.8288,121.1861 65.4212,203.9329 119.0437,250.7245 -416.4666,47.4125 -854.2642,208.1867 -854.2642,926.6405 0,204.7091 73.2457,371.9727 193.1899,503.2809 -19.4681,47.2573 -83.6473,237.9321 18.1639,496.2016 0,0 157.4519,50.3933 515.7628,-192.1962 149.5653,41.5442 309.9669,62.3784 469.3128,63.0925 159.3459,-0.7141 319.8716,-21.5483 469.7164,-63.0925 357.8762,242.5895 515.1108,192.1962 515.1108,192.1962 102.0596,-258.2695 37.8493,-448.9443 18.3812,-496.2016 120.2236,-131.3082 192.9725,-298.5718 192.9725,-503.2809 0,-720.1615 -438.6359,-878.7312 -856.1582,-925.1501 67.2532,-58.1867 127.1787,-172.2936 127.1787,-347.2263 0,-250.8797 -2.1735,-452.7944 -2.1735,-514.5519 0,-49.8965 33.7508,-108.3626 128.7932,-89.9503 744.5975,248.2095 1281.1634,950.797 1281.1634,1778.9485 0,1035.562 -839.4846,1875.0156 -1874.9845,1875.0156"
         style="fill:#1b1817;fill-opacity:1;fill-rule:evenodd;stroke:none;stroke-width:3.10495"
         id="path18" /><path
         d="m 3130.93,4068.51 c -1.33,-3.01 -6.05,-3.9 -10.35,-1.84 -4.38,1.97 -6.84,6.06 -5.42,9.07 1.3,3.08 6.03,3.94 10.4,1.89 4.39,-1.98 6.89,-6.11 5.37,-9.12 v 0"
         style="fill:#1b1817;fill-opacity:1;fill-rule:nonzero;stroke:none"
         id="path20" /><path
         d="m 3155.39,4041.23 c -2.88,-2.67 -8.51,-1.43 -12.33,2.79 -3.95,4.21 -4.69,9.84 -1.77,12.55 2.97,2.66 8.43,1.41 12.39,-2.79 3.95,-4.26 4.72,-9.85 1.71,-12.55 v 0"
         style="fill:#1b1817;fill-opacity:1;fill-rule:nonzero;stroke:none"
         id="path22" /><path
         d="m 3179.2,4006.45 c -3.7,-2.57 -9.75,-0.16 -13.49,5.21 -3.7,5.37 -3.7,11.81 0.08,14.39 3.75,2.58 9.71,0.25 13.5,-5.07 3.69,-5.46 3.69,-11.9 -0.09,-14.53 v 0"
         style="fill:#1b1817;fill-opacity:1;fill-rule:nonzero;stroke:none"
         id="path24" /><path
         d="m 3211.82,3972.85 c -3.31,-3.65 -10.36,-2.67 -15.52,2.31 -5.28,4.87 -6.75,11.78 -3.43,15.43 3.35,3.66 10.44,2.63 15.64,-2.31 5.24,-4.86 6.84,-11.82 3.31,-15.43 v 0"
         style="fill:#1b1817;fill-opacity:1;fill-rule:nonzero;stroke:none"
         id="path26" /><path
         d="m 3256.82,3953.34 c -1.46,-4.73 -8.25,-6.88 -15.09,-4.87 -6.83,2.07 -11.3,7.61 -9.92,12.39 1.42,4.76 8.24,7 15.13,4.85 6.82,-2.06 11.3,-7.56 9.88,-12.37 v 0"
         style="fill:#1b1817;fill-opacity:1;fill-rule:nonzero;stroke:none"
         id="path28" /><path
         d="m 3306.24,3949.72 c 0.17,-4.98 -5.63,-9.11 -12.81,-9.2 -7.22,-0.16 -13.06,3.87 -13.14,8.77 0,5.03 5.67,9.12 12.89,9.24 7.18,0.14 13.06,-3.86 13.06,-8.81 v 0"
         style="fill:#1b1817;fill-opacity:1;fill-rule:nonzero;stroke:none"
         id="path30" /><path
         d="m 3352.23,3957.55 c 0.86,-4.86 -4.13,-9.85 -11.26,-11.18 -7.01,-1.28 -13.5,1.72 -14.39,6.54 -0.87,4.98 4.21,9.97 11.21,11.26 7.14,1.24 13.53,-1.68 14.44,-6.62 v 0"
         style="fill:#1b1817;fill-opacity:1;fill-rule:nonzero;stroke:none"
         id="path32" /></g></g></svg>
