<?xml version="1.0" encoding="UTF-8" standalone="no"?>
<svg
   xmlns:dc="http://purl.org/dc/elements/1.1/"
   xmlns:cc="http://creativecommons.org/ns#"
   xmlns:rdf="http://www.w3.org/1999/02/22-rdf-syntax-ns#"
   xmlns:svg="http://www.w3.org/2000/svg"
   xmlns="http://www.w3.org/2000/svg"
   xmlns:sodipodi="http://sodipodi.sourceforge.net/DTD/sodipodi-0.dtd"
   xmlns:inkscape="http://www.inkscape.org/namespaces/inkscape"
   version="1.1"
   x="0px"
   y="0px"
   viewBox="0 0 100 100"
   xml:space="preserve"
   id="svg12"
   sodipodi:docname="hub_icon.svg"
   width="100"
   height="100"
   inkscape:version="1.0.2 (e86c870879, 2021-01-15)"><metadata
     id="metadata18"><rdf:RDF><cc:Work
         rdf:about=""><dc:format>image/svg+xml</dc:format><dc:type
           rdf:resource="http://purl.org/dc/dcmitype/StillImage" /><dc:title></dc:title></cc:Work></rdf:RDF></metadata><defs
     id="defs16" /><sodipodi:namedview
     pagecolor="#ffffff"
     bordercolor="#666666"
     borderopacity="1"
     objecttolerance="10"
     gridtolerance="10"
     guidetolerance="10"
     inkscape:pageopacity="0"
     inkscape:pageshadow="2"
     inkscape:window-width="2560"
     inkscape:window-height="1361"
     id="namedview14"
     showgrid="false"
     inkscape:zoom="5.72"
     inkscape:cx="-0.94126894"
     inkscape:cy="62.184305"
     inkscape:window-x="0"
     inkscape:window-y="0"
     inkscape:window-maximized="1"
     inkscape:current-layer="svg12" /><style
     type="text/css"
     id="style2">
	.st0{fill:none;}
</style><rect
     class="st0"
     width="100"
     height="100"
     id="rect4"
     x="0"
     y="0" /><path
     d="m 96.290308,40.128251 c -1.54929,0 -2.86022,1.310935 -2.9794,2.860223 l -33.726797,2.145167 c -0.119176,-0.59588 -0.238352,-1.19176 -0.357528,-1.787639 L 88.54387,34.52698 c 0,0 0,0 0,0 0.476704,0.357528 1.072584,0.357528 1.549288,0 0.357528,-0.476704 0.357528,-1.072583 0,-1.549287 -0.476704,-0.357528 -1.072584,-0.357528 -1.549288,0 -0.238351,0.238352 -0.357527,0.476704 -0.238351,0.715055 L 58.988231,42.51177 c -0.357528,-0.834232 -0.715056,-1.549288 -1.19176,-2.264343 l 12.871005,-8.938198 c 0.476703,0.59588 1.072583,1.19176 1.906815,1.310936 1.668464,0.357528 3.456103,-0.715056 3.813631,-2.38352 0.357528,-1.668463 -0.715056,-3.456103 -2.383519,-3.81363 -1.668464,-0.357528 -3.456103,0.715055 -3.813631,2.383519 -0.119176,0.59588 -0.119176,1.19176 0.119176,1.787639 l -12.990181,9.17655 C 56.96224,39.294019 56.604712,38.936491 56.128008,38.578963 L 78.175561,14.386242 c 0.834232,0.715056 2.025992,1.19176 3.217752,1.19176 2.741047,0 5.00539,-2.264344 5.00539,-5.005391 0,-2.7410474 -2.264343,-5.0053904 -5.00539,-5.0053904 -2.741048,0 -5.005391,2.264343 -5.005391,5.0053904 0,1.310936 0.476704,2.383519 1.19176,3.336927 L 55.532128,38.102259 C 55.055424,37.744731 54.459544,37.268027 53.863664,37.029675 L 69.95242,4.4946366 c 0.59588,0.119176 1.191759,0.119176 1.668463,-0.119176 1.19176,-0.59588 1.549288,-2.025992 1.072584,-3.0985752 -0.59588,-1.19175972 -2.025991,-1.54928762 -3.098575,-1.07258372 -1.19176,0.5958798 -1.549288,2.02599192 -1.072584,3.09857492 0.119176,0.357528 0.476704,0.59588 0.715056,0.834232 L 53.148609,36.552972 c -0.59588,-0.238352 -1.19176,-0.476704 -1.78764,-0.59588 L 54.459544,20.34504 c 0,0 0,0 0,0 1.310936,0 2.38352,-1.072583 2.38352,-2.383519 0,-1.310936 -1.072584,-2.383519 -2.38352,-2.383519 -1.310935,0 -2.383519,1.072583 -2.383519,2.383519 0,1.072584 0.59588,1.906815 1.549288,2.264343 L 50.526737,35.71874 c -0.595879,-0.119176 -1.072583,-0.119176 -1.668463,-0.119176 -0.715056,0 -1.430112,0.119176 -2.145168,0.238352 l -6.19715,-25.265305 c 2.145168,-0.7150564 3.575279,-2.6218714 3.575279,-5.0053904 0,-2.860224 -2.383519,-5.24374302 -5.243742,-5.24374302 -2.860223,0 -5.243743,2.38351902 -5.243743,5.24374302 0,2.860223 2.38352,5.2437424 5.243743,5.2437424 0.238352,0 0.59588,0 0.834232,-0.119176 l 6.316326,25.384481 c -0.953408,0.238352 -1.78764,0.59588 -2.502696,1.072583 L 31.220231,18.795753 c 0.357528,-0.357528 0.59588,-0.715056 0.715056,-1.19176 0.238352,-1.310936 -0.476704,-2.502695 -1.78764,-2.860223 -1.310935,-0.238352 -2.502695,0.476704 -2.860223,1.787639 -0.238352,1.310936 0.476704,2.502696 1.78764,2.860224 0.476703,0.119176 1.072583,0 1.430111,-0.119176 l 12.155949,18.472274 c -0.834232,0.59588 -1.549288,1.19176 -2.145168,1.906816 L 13.22466,19.510809 c 0.476704,-0.715056 0.715056,-1.430112 0.715056,-2.38352 0,-2.383519 -1.906816,-4.171159 -4.1711594,-4.171159 -2.2643431,0 -4.1711591,1.906816 -4.1711591,4.171159 0,2.264344 1.906816,4.171159 4.1711591,4.171159 1.1917604,0 2.2643434,-0.476704 2.9793994,-1.310936 l 27.291296,20.140739 c -0.595879,0.834231 -1.072583,1.668463 -1.430111,2.621871 l -27.768,-7.98479 c 0,-0.357528 -0.238352,-0.715056 -0.59588,-0.953408 -0.5958804,-0.357527 -1.4301124,-0.238352 -1.7876395,0.357528 -0.357528,0.59588 -0.238352,1.430112 0.3575271,1.78764 0.59588,0.357528 1.4301124,0.238352 1.7876404,-0.357528 0,0 0,0 0,0 l 27.887176,7.98479 c -0.238352,0.834231 -0.357528,1.787639 -0.357528,2.741047 L 13.22466,47.755512 c -0.357528,-2.145167 -2.383519,-3.932806 -4.6478635,-3.932806 -2.621871,0 -4.767038,2.145167 -4.767038,4.767038 0,2.621871 2.145167,4.767039 4.767038,4.767039 2.6218725,0 4.7670395,-2.145168 4.7670395,-4.767039 0,0 0,0 0,-0.119176 l 24.907777,-1.310935 c 0.119176,1.072583 0.238352,2.025991 0.59588,2.979399 L 5.8357495,64.559324 C 5.4782215,64.08262 5.0015175,63.725092 4.4056385,63.605916 3.0947025,63.367564 1.9029429,64.08262 1.545415,65.393555 c -0.2383518,1.310936 0.4767039,2.502696 1.7876395,2.860224 1.310936,0.238351 2.502695,-0.476704 2.860223,-1.78764 0.119176,-0.357528 0.119176,-0.715056 0,-1.072584 L 39.085845,50.973263 c 0.357528,0.715056 0.715055,1.430112 1.310935,2.145168 L 19.302634,71.47153 c -0.595879,-0.476704 -1.430111,-0.834232 -2.264343,-0.834232 -1.906815,0 -3.575279,1.549287 -3.575279,3.575279 0,1.906815 1.549288,3.575279 3.575279,3.575279 1.906815,0 3.575279,-1.549288 3.575279,-3.575279 0,-0.834232 -0.238352,-1.549288 -0.715056,-2.145168 l 20.97497,-18.353098 c 0.59588,0.59588 1.19176,1.191759 1.906816,1.668463 L 30.028471,76.119392 c -0.119176,0 -0.357528,-0.119176 -0.476704,-0.119176 -0.953407,0 -1.668463,0.715056 -1.668463,1.549288 0,0.834232 0.715056,1.549287 1.668463,1.668463 0.953408,0 1.668464,-0.715055 1.668464,-1.549287 0,-0.476704 -0.238352,-0.834232 -0.476704,-1.072584 L 43.376179,55.859478 c 0.357528,0.238352 0.715056,0.357528 1.072584,0.59588 L 28.955888,95.306719 c 0,0 0,0 0,0 -1.310936,-0.23835 -2.502696,0.47671 -2.860224,1.78764 -0.238352,1.31094 0.476704,2.5027 1.78764,2.86023 1.310936,0.238351 2.502695,-0.47671 2.860223,-1.78764 0.238352,-0.95341 -0.238352,-1.90682 -0.953408,-2.5027 L 45.282995,56.69371 c 0.476704,0.238352 0.953408,0.357528 1.430111,0.476704 l -2.979399,15.254523 c -0.953407,0 -1.906815,0.715056 -2.145167,1.78764 -0.238352,1.310935 0.476704,2.502695 1.787639,2.860223 1.310936,0.238352 2.502696,-0.476704 2.860224,-1.78764 0.238352,-1.191759 -0.476704,-2.383519 -1.668464,-2.741047 l 2.979399,-15.135347 c 0.476704,0.119176 0.953408,0.119176 1.549288,0.119176 0.238352,0 0.476704,0 0.715056,0 l 3.456103,32.058334 c -0.119176,0 -0.238352,0.119176 -0.476704,0.119176 -0.953408,0.476704 -1.310936,1.668464 -0.834232,2.621867 0.476704,0.95341 1.668464,1.31094 2.621871,0.83424 0.953408,-0.47671 1.310936,-1.668467 0.834232,-2.621875 -0.238352,-0.59588 -0.834232,-0.953408 -1.310936,-0.953408 l -3.456103,-32.17751 c 0.953408,-0.119176 1.78764,-0.357528 2.621872,-0.715056 l 12.99018,28.602232 c -1.668464,0.834231 -2.741047,2.621871 -2.741047,4.647862 0,2.860225 2.383519,5.243745 5.243742,5.243745 2.860223,0 5.243743,-2.38352 5.243743,-5.243745 0,-2.860223 -2.38352,-5.243742 -5.243743,-5.243742 -0.59588,0 -1.19176,0.119176 -1.668463,0.238352 L 54.102016,56.336182 c 0.357528,-0.238352 0.715056,-0.357528 1.072584,-0.59588 l 11.083365,16.088755 c -0.59588,0.476704 -0.953408,1.19176 -0.953408,2.025992 0,1.430111 1.19176,2.741047 2.741047,2.741047 1.430112,0 2.741048,-1.19176 2.741048,-2.741047 0,-1.430112 -1.19176,-2.741047 -2.741048,-2.741047 -0.357528,0 -0.715055,0.119176 -1.072583,0.238352 L 55.77048,55.263598 c 0.715056,-0.59588 1.310936,-1.191759 1.906815,-1.906815 l 23.477666,17.161339 c -0.119176,0.476704 0,0.953408 0.476703,1.19176 0.476704,0.357527 1.19176,0.119175 1.430112,-0.357528 0.357528,-0.476704 0.119176,-1.19176 -0.357528,-1.430112 -0.357528,-0.238352 -0.715056,-0.238352 -1.072584,0 L 57.796471,52.522551 c 0.238352,-0.357528 0.476704,-0.715056 0.715056,-1.19176 l 32.058335,15.850404 c -0.119176,0.59588 -0.119176,1.191759 0.119176,1.668463 0.59588,1.19176 2.02599,1.549288 3.09857,1.072584 1.19176,-0.59588 1.54929,-2.025991 1.07259,-3.098575 -0.59588,-1.19176 -2.02599,-1.549288 -3.098576,-1.072584 -0.357528,0.119176 -0.59588,0.476704 -0.834232,0.715056 L 58.869055,50.734912 c 0.238352,-0.59588 0.476704,-1.19176 0.59588,-1.906816 l 20.37909,4.051983 c 0,1.072584 0.715056,2.025991 1.787639,2.264343 1.310936,0.238352 2.502696,-0.476704 2.860224,-1.787639 0.238352,-1.310936 -0.476704,-2.502695 -1.78764,-2.860223 -1.19176,-0.238352 -2.383519,0.476703 -2.741047,1.549287 l -20.37909,-4.051983 c 0.119176,-0.476704 0.119176,-0.953407 0.119176,-1.430111 0,-0.238352 0,-0.357528 0,-0.59588 l 33.845971,-2.145167 c 0.35753,1.310935 1.43011,2.264343 2.86023,2.264343 1.66846,0 2.979404,-1.310936 2.979404,-2.979399 0,-1.668464 -1.430124,-2.979399 -3.098584,-2.979399 z M 84.13436,10.453435 c 0,0.59588 -0.119176,1.072584 -0.476704,1.549288 -0.476704,0.715055 -1.310936,1.072583 -2.145168,1.072583 -1.430111,0 -2.621871,-1.191759 -2.621871,-2.621871 0,-1.3109354 0.953408,-2.3835194 2.264344,-2.6218714 0.119176,0 0.238352,0 0.357527,0 1.430112,0 2.621872,1.19176 2.621872,2.6218714 z M 38.847493,9.0233236 c -1.906816,0 -3.456103,-1.549288 -3.456103,-3.456103 0,-0.59588 0.119176,-1.19176 0.476704,-1.78764 0.595879,-1.072584 1.787639,-1.787639 3.098575,-1.787639 0.59588,0 1.072583,0.119176 1.549287,0.357527 1.19176,0.59588 1.906816,1.78764 1.906816,3.098576 0,1.549287 -0.953408,2.741047 -2.264344,3.336927 -0.238352,0.119176 -0.476703,0.119176 -0.715055,0.238352 -0.357528,0 -0.476704,0 -0.59588,0 z M 8.4576215,50.258208 c -0.953408,0 -1.668464,-0.715056 -1.668464,-1.668464 0,-0.953408 0.715056,-1.668463 1.668464,-1.668463 0.9534071,0 1.6684635,0.715055 1.6684635,1.668463 0,0.953408 -0.7150564,1.668464 -1.6684635,1.668464 z m 8.5806695,25.503656 c -0.834232,0 -1.549288,-0.715055 -1.549288,-1.549287 0,-0.834232 0.715056,-1.549288 1.549288,-1.549288 0.834232,0 1.549288,0.715056 1.549288,1.549288 0,0.834232 -0.715056,1.549287 -1.549288,1.549287 z m 51.484017,11.798421 c 1.19176,0 2.145168,0.953408 2.145168,2.145167 0,1.19176 -0.953408,2.145168 -2.145168,2.145168 -1.191759,0 -2.145167,-0.953408 -2.145167,-2.145168 0,-1.191759 0.953408,-2.145167 2.145167,-2.145167 z M 56.36636,46.563753 c 0,4.171159 -3.336927,7.508086 -7.508086,7.508086 -4.171159,0 -7.508086,-3.336927 -7.508086,-7.508086 0,-4.171159 3.336927,-7.508086 7.508086,-7.508086 4.171159,0 7.508086,3.336927 7.508086,7.508086 z m 39.923948,-2.264344 c -0.4767,0 -0.83423,-0.238352 -0.95341,-0.595879 -0.11917,-0.119176 -0.11917,-0.357528 -0.11917,-0.59588 0,-0.119176 0,-0.119176 0,-0.238352 0.11917,-0.59588 0.59588,-0.953408 1.19176,-0.953408 0.59588,0 1.19176,0.476704 1.19176,1.19176 0,0.715056 -0.59588,1.191759 -1.31094,1.191759 z"
     id="path6"
     style="stroke-width:1.19176" /></svg>
