<?xml version="1.0" encoding="utf-8"?>
<!-- Svg Vector Icons : http://www.onlinewebfonts.com/icon -->
<!DOCTYPE svg PUBLIC "-//W3C//DTD SVG 1.1//EN" "http://www.w3.org/Graphics/SVG/1.1/DTD/svg11.dtd">
<svg version="1.1" xmlns="http://www.w3.org/2000/svg" xmlns:xlink="http://www.w3.org/1999/xlink" x="0px" y="0px" viewBox="0 0 1000 1000" enable-background="new 0 0 1000 1000" xml:space="preserve">
<metadata> Svg Vector Icons : http://www.onlinewebfonts.com/icon </metadata>
<g><g transform="translate(0.000000,511.000000) scale(0.100000,-0.100000)"><path d="M4156.9,4950.9c-964.2-161.9-1888-647.7-2616.6-1376.4C962.5,2996.7,594.4,2404.2,344.2,1649.8C-156.3,133.5,123.4-1552,1083.9-2829.1c1243.9-1648.7,3363.7-2340.6,5351-1744.4c1508.9,452.7,2719.7,1641.4,3220.2,3153.9c500.5,1519.9,224.5,3198.1-743.4,4486.2C8161,4064,7038.5,4744.8,5813,4950.9C5386.1,5024.5,4587.5,5020.8,4156.9,4950.9z M5772.5,3662.8c390.1-88.3,820.7-316.5,1082-581.5c390.1-390.1,563.1-846.4,526.3-1391.1C7344,1164,7163.6,891.6,6324.6,107.7c-312.8-290.8-607.2-585.2-655.1-655.1c-77.3-114.1-125.1-250.2-228.2-651.4c-110.4-430.6-607.2-588.8-942.1-298.1c-198.7,176.6-253.9,537.3-143.5,960.5C4477.1-72.6,4628,122.5,5577.5,998.4c386.4,357,485.8,533.6,489.5,842.8c0,515.2-430.6,886.9-1030.5,886.9c-250.2,0-504.2-69.9-662.4-184c-150.9-106.7-349.6-415.9-463.7-728.7c-136.2-364.4-253.9-541-397.5-610.9c-412.2-195.1-905.3,117.8-905.3,574.1c0,386.4,235.5,890.6,574.1,1229.2C3803.6,3633.4,4782.5,3880,5772.5,3662.8z M5231.5-2144.6c272.4-114.1,460-460,415.9-769.1c-84.6-552-776.5-787.6-1199.8-408.5c-184,169.3-231.8,294.4-213.4,581.5c14.7,272.4,128.8,452.7,353.3,574.1C4749.4-2082,5058.5-2070.9,5231.5-2144.6z"/></g></g>
</svg>
