<?xml version="1.0"?>
<svg xmlns="http://www.w3.org/2000/svg" viewBox="0 0 24 24" enable-background="new 0 0 24 24">
    <path style="text-indent:0;text-align:start;line-height:normal;text-transform:none;block-progression:tb;-inkscape-font-specification:Bitstream Vera Sans" d="M 12 2 C 6.5 2 2 6.5 2 12 C 2 12.7 2.0875 13.4 2.1875 14 L 4.3125 14 C 4.1125 13.4 4 12.7 4 12 C 4 7.6 7.6 4 12 4 C 16.4 4 20 7.6 20 12 C 20 12.7 19.8875 13.4 19.6875 14 L 21.8125 14 C 21.9125 13.4 22 12.7 22 12 C 22 6.5 17.5 2 12 2 z M 9.84375 6.25 C 8.164458 6.9217168 6.8279668 8.258208 6.15625 9.9375 L 7.4375 10.46875 C 7.9657832 9.148042 9.054292 8.0907832 10.375 7.5625 L 9.84375 6.25 z M 12 9 C 10.3 9 9 10.3 9 12 C 9 12.8 9.3125 13.5 9.8125 14 L 14.1875 14 C 14.6875 13.5 15 12.8 15 12 C 15 10.3 13.7 9 12 9 z M 12 11 C 12.6 11 13 11.4 13 12 C 13 12.6 12.6 13 12 13 C 11.4 13 11 12.6 11 12 C 11 11.4 11.4 11 12 11 z M 2 15 L 2 20 C 2 21.1 2.9 22 4 22 L 20 22 C 21.1 22 22 21.1 22 20 L 22 15 L 2 15 z" overflow="visible" enable-background="accumulate" font-family="Bitstream Vera Sans"/>
</svg>
