<svg xmlns="http://www.w3.org/2000/svg" viewBox="0 0 227 250"><defs><style>.cls-1{fill:#010101;}</style></defs><title>music</title><g id="Layer_2" data-name="Layer 2"><g id="Layer_1-2" data-name="Layer 1"><path class="cls-1" d="M203.31,1l-108,33.06c-13,3.64-23.69,17.44-23.69,30.46v114s-7.81-5.21-25.25-2.86C20.83,179.35,0,199.14,0,219.7S20.83,253,46.34,249.38s44.51-22.91,44.51-43.47V108.54c0-9.11,10.94-13,10.94-13l95.54-29.94S208,62,208,71.84v78.1h0s-9.63-5.73-27.07-3.39c-25.78,3.13-46.6,22.39-46.6,43s20.82,33.58,46.34,30.71C206.44,217.1,227,197.84,227,177V18C227,4.67,216.59-2.88,203.31,1Z"/></g></g></svg>