<?xml version="1.0" encoding="UTF-8" standalone="no"?>
<svg
   version="1.1"
   x="0px"
   y="0px"
   viewBox="0 0 500 500"
   enable-background="new 0 0 95 95"
   xml:space="preserve"
   id="svg354"
   sodipodi:docname="noun_Network_776968.svg"
   width="500"
   height="500"
   inkscape:version="1.1 (c68e22c387, 2021-05-23)"
   xmlns:inkscape="http://www.inkscape.org/namespaces/inkscape"
   xmlns:sodipodi="http://sodipodi.sourceforge.net/DTD/sodipodi-0.dtd"
   xmlns="http://www.w3.org/2000/svg"
   xmlns:svg="http://www.w3.org/2000/svg"><defs
     id="defs358" /><sodipodi:namedview
     id="namedview356"
     pagecolor="#ffffff"
     bordercolor="#666666"
     borderopacity="1.0"
     inkscape:pageshadow="2"
     inkscape:pageopacity="0.0"
     inkscape:pagecheckerboard="0"
     showgrid="false"
     width="500px"
     inkscape:zoom="1.3894737"
     inkscape:cx="-152.21591"
     inkscape:cy="303.71212"
     inkscape:window-width="2560"
     inkscape:window-height="1371"
     inkscape:window-x="0"
     inkscape:window-y="0"
     inkscape:window-maximized="1"
     inkscape:current-layer="svg354" /><g
     id="g348"
     transform="matrix(5.317863,0,0,5.317863,-3.5130683,-11.686113)"><path
       d="m 52.97,26.428 c -7.903,0 -14.331,6.429 -14.331,14.33 0,7.903 6.428,14.331 14.331,14.331 7.901,0 14.33,-6.428 14.33,-14.331 0,-7.902 -6.429,-14.33 -14.33,-14.33 z"
       id="path336" /><path
       d="m 38.368,46.5 c -0.233,-0.593 -0.436,-1.202 -0.599,-1.828 l -18.577,5.247 c -1.249,-3.026 -4.224,-5.155 -7.698,-5.155 -4.601,0 -8.328,3.728 -8.328,8.326 0,4.599 3.728,8.328 8.328,8.328 4.599,0 8.326,-3.729 8.326,-8.328 0,-0.451 -0.045,-0.889 -0.115,-1.32 z"
       id="path338" /><path
       d="m 30.136,20.9 c 0.23,-0.144 0.445,-0.302 0.65,-0.469 l 10.63,9.719 c 0.435,-0.474 0.9,-0.918 1.389,-1.335 L 32.084,19.014 c 1.357,-2.031 1.497,-4.75 0.126,-6.961 -1.87,-3.016 -5.83,-3.946 -8.846,-2.076 -3.018,1.87 -3.945,5.831 -2.076,8.847 1.869,3.016 5.831,3.947 8.848,2.076 z"
       id="path340" /><path
       d="m 64.758,30.416 11.468,-8.525 c 1.736,1.72 4.377,2.373 6.811,1.447 3.315,-1.265 4.98,-4.977 3.717,-8.292 -1.265,-3.317 -4.977,-4.981 -8.294,-3.718 -3.314,1.263 -4.98,4.977 -3.716,8.292 0.097,0.254 0.213,0.495 0.337,0.729 l -11.69,8.69 c 0.481,0.43 0.939,0.89 1.367,1.377 z"
       id="path342" /><path
       d="m 47.697,74.572 c -0.396,-0.215 -0.804,-0.385 -1.215,-0.53 L 50.505,56.257 C 49.868,56.155 49.242,56.013 48.63,55.837 L 44.609,73.61 c -3.254,-0.348 -6.547,1.25 -8.206,4.303 -2.194,4.041 -0.699,9.097 3.341,11.293 4.042,2.196 9.098,0.7 11.293,-3.341 2.195,-4.041 0.701,-9.097 -3.34,-11.293 z"
       id="path344" /><path
       d="m 89.794,49.945 c -2.887,-2.062 -6.901,-1.394 -8.962,1.495 -0.159,0.222 -0.296,0.451 -0.42,0.683 L 67.194,47.375 c -0.275,0.591 -0.585,1.16 -0.93,1.708 l 13.496,4.849 c -0.47,2.398 0.446,4.958 2.565,6.471 2.889,2.063 6.901,1.393 8.965,-1.495 2.064,-2.888 1.393,-6.901 -1.496,-8.963 z"
       id="path346" /></g></svg>
