<svg xmlns="http://www.w3.org/2000/svg" viewBox="0 0 250 212.41"><defs><style>.cls-1{fill:#010101;}</style></defs><title>photography</title><g id="Layer_2" data-name="Layer 2"><g id="Layer_1-2" data-name="Layer 1"><path class="cls-1" d="M219,32.33H180.34L168.51,8.68A15.9,15.9,0,0,0,154.31,0H95.43a15.9,15.9,0,0,0-14.2,8.68L69.4,32.33H30.76A30.58,30.58,0,0,0,0,62.83V181.65a30.8,30.8,0,0,0,30.76,30.76H219.24A30.8,30.8,0,0,0,250,181.65V62.83A31,31,0,0,0,219,32.33ZM124.87,173a53.63,53.63,0,1,1,53.63-53.63A53.52,53.52,0,0,1,124.87,173Z"/><path class="cls-1" d="M124.87,83.6a35.78,35.78,0,0,0-35.75,35.75,9.2,9.2,0,0,0,18.4,0A17.33,17.33,0,0,1,124.87,102a9.2,9.2,0,0,0,0-18.4Z"/></g></g></svg>