<svg xmlns="http://www.w3.org/2000/svg" viewBox="0 -9 250 241.74"><defs><style>.cls-1{fill:#010101;}</style></defs><title>recommended</title><g id="Layer_2" data-name="Layer 2"><g id="Layer_1-2" data-name="Layer 1"><g id="recommended"><path class="cls-1" d="M68.66,140c.21-9.2,1-19.25,1.46-26.7L71,96.13a44.74,44.74,0,0,1-7,2c-3.5.72-8.75,1.55-14.36,2.7S38,103.44,32.11,103.89a100,100,0,0,1-15.88-.49,83.34,83.34,0,0,1-8.39-.87,33,33,0,0,1-5.82-2c-.46,2.76-.93,5.52-1.29,10S.11,121.32,0,127.4A143.8,143.8,0,0,0,.81,146c.77,6.64,2.19,14,3.77,22s3.29,16.83,5.23,24.55,4.08,14.42,6.07,20.93l5.62,19.19a75.79,75.79,0,0,1,7.76-2.63,61.23,61.23,0,0,1,9.63-1.69,92.84,92.84,0,0,1,13-.32c5.2.22,11.43.83,16.62,1.39s9.34,1.09,12.63,1.23,5.75-.11,6.45-.52-.31-1-1-1.42l-1.34-1.28-1.16-1.61-1.8-2.25a16.5,16.5,0,0,1-2.1-3.9,74.22,74.22,0,0,1-3-10.22c-1.33-5.44-3.09-13.51-4.5-21.21s-2.5-15.05-3.21-22.9A218.61,218.61,0,0,1,68.66,140Zm-8.25,60a8.85,8.85,0,1,1-9.21,8.47A8.86,8.86,0,0,1,60.41,200Z"/><path class="cls-1" d="M79.49,126c-.33,8-.38,17.36.1,26.77a244.22,244.22,0,0,0,3,27.92c1.53,9.1,3.59,17.89,5.25,24s2.9,9.68,4.15,13.2c5.58-.82,11.19-1.62,16.6-2.08a124.28,124.28,0,0,1,16.34-.36,130.1,130.1,0,0,1,18,2c6,1.12,11.87,2.75,17.2,4A156.64,156.64,0,0,0,176,224.43a113.25,113.25,0,0,0,19.06,1.14,121.4,121.4,0,0,0,18.17-2.18c4.38-.87,6.14-1.48,8-3.49a24.9,24.9,0,0,0,4.71-8.67,17,17,0,0,0,.54-8.84,16.45,16.45,0,0,0-3.22-6,40,40,0,0,0,8.09-2.27A16.72,16.72,0,0,0,241,182a26.21,26.21,0,0,0,.38-9,13.55,13.55,0,0,0-2.53-6,47.15,47.15,0,0,0-3.82-4.51c2.5-1.63,5-3.27,7.17-4.91A19.71,19.71,0,0,0,247.5,152a19.41,19.41,0,0,0,2.39-7.37,15.16,15.16,0,0,0-.6-6.45,16.24,16.24,0,0,0-3.24-5.7,49.86,49.86,0,0,0-5.5-5.44,15.18,15.18,0,0,0-2.87-2c2.17-2,4.33-4,6.16-6a17.62,17.62,0,0,0,4.1-6.61,22.26,22.26,0,0,0,.69-8.31,16.39,16.39,0,0,0-1.81-6.5,16.79,16.79,0,0,0-4-4.68A28.61,28.61,0,0,0,237.27,89c-1.86-1-3.59-1.38-7.22-1.86A129.25,129.25,0,0,0,214.28,86c-6.59-.1-14.25.28-19.3.41s-7.47,0-9.9-.07c1.86-3,3.73-6.1,6.49-9.81S198,68.44,201,64a55.1,55.1,0,0,0,6.82-13.61,63.32,63.32,0,0,0,2.86-14.3,41.84,41.84,0,0,0-.55-11.67A48.19,48.19,0,0,0,206.57,13,28.08,28.08,0,0,0,201,5.12,16.53,16.53,0,0,0,194.57.86,23.22,23.22,0,0,0,186.78,0a22.44,22.44,0,0,0-7.17,1.08,14,14,0,0,0-5.18,3.43,7.72,7.72,0,0,0-2.28,4.6c-.25,1.91,0,4.35-.32,7.64a49.67,49.67,0,0,1-2.37,10.85A36.79,36.79,0,0,1,164.55,37a70.62,70.62,0,0,1-9.67,11.24c-4.53,4.33-10.65,9.29-16.06,13.93s-10.11,9-13.55,12.47a73.25,73.25,0,0,0-8.06,9.56c-2.39,3.39-5,7.45-7.56,10.64s-5.09,5.52-8.28,7a35.53,35.53,0,0,1-10.53,2.33l-9.76.82C80.45,111.47,79.82,118.05,79.49,126Z"/></g></g></g></svg>