<?xml version="1.0" encoding="UTF-8" standalone="no"?>
<svg
   viewBox="0 0 500 500"
   version="1.1"
   xml:space="preserve"
   x="0px"
   y="0px"
   fill-rule="evenodd"
   clip-rule="evenodd"
   stroke-linejoin="round"
   stroke-miterlimit="2"
   id="svg368"
   sodipodi:docname="noun_ram_4177300.svg"
   width="500"
   height="500"
   inkscape:version="1.1 (c68e22c387, 2021-05-23)"
   xmlns:inkscape="http://www.inkscape.org/namespaces/inkscape"
   xmlns:sodipodi="http://sodipodi.sourceforge.net/DTD/sodipodi-0.dtd"
   xmlns="http://www.w3.org/2000/svg"
   xmlns:svg="http://www.w3.org/2000/svg"><defs
     id="defs372" /><sodipodi:namedview
     id="namedview370"
     pagecolor="#ffffff"
     bordercolor="#666666"
     borderopacity="1.0"
     inkscape:pageshadow="2"
     inkscape:pageopacity="0.0"
     inkscape:pagecheckerboard="0"
     showgrid="false"
     width="500px"
     inkscape:zoom="1.4584077"
     inkscape:cx="160.10612"
     inkscape:cy="261.92949"
     inkscape:window-width="2560"
     inkscape:window-height="1371"
     inkscape:window-x="0"
     inkscape:window-y="0"
     inkscape:window-maximized="1"
     inkscape:current-layer="svg368" /><rect
     x="0"
     y="0"
     width="500"
     height="500"
     fill="none"
     id="rect360"
     style="stroke-width:7.8125" /><path
     d="M 334.23634,388.27183 V 346.96751 H 14.127643 v 41.30432 h 20.652173 v -20.65217 c 0,-5.7 4.626087,-10.32608 10.326087,-10.32608 5.7,0 10.32608,4.62608 10.32608,10.32608 v 20.65217 c 0,0 30.97827,0 30.97827,0 v -20.65217 c 0,-5.7 4.62608,-10.32608 10.32608,-10.32608 5.699997,0 10.326087,4.62608 10.326087,10.32608 v 20.65217 c 0,0 30.97825,0 30.97825,0 v -20.65217 c 0,-5.7 4.6261,-10.32608 10.3261,-10.32608 5.7,0 10.32609,4.62608 10.32609,10.32608 v 20.65217 c 0,0 30.97825,0 30.97825,0 v -20.65217 c 0,-5.7 4.6261,-10.32608 10.3261,-10.32608 5.7,0 10.32607,4.62608 10.32607,10.32608 v 20.65217 c 0,0 30.97827,0 30.97827,0 v -20.65217 c 0,-5.7 4.62608,-10.32608 10.32608,-10.32608 5.7,0 10.3261,4.62608 10.3261,10.32608 v 20.65217 c 0,0 30.97826,0 30.97826,0 v -20.65217 c 0,-5.7 4.62607,-10.32608 10.32607,-10.32608 5.7,0 10.32608,4.62608 10.32608,10.32608 v 20.65217 c 0,0 20.6522,0 20.6522,0 z m 154.8913,0 V 346.96751 H 385.86675 v 41.30432 h 41.30437 v -20.65217 c 0,-5.7 4.62608,-10.32608 10.32608,-10.32608 5.7,0 10.32607,4.62608 10.32607,10.32608 v 20.65217 c 0,0 41.30437,0 41.30437,0 z M 14.127643,326.31531 H 334.23634 c 1.5902,0 3.09781,0.36142 4.44021,1.00163 0.90868,-1.34239 1.95164,-2.61249 3.11846,-3.76901 4.83261,-4.84293 11.38969,-7.55869 18.23587,-7.55869 0.0106,0 0.0106,0 0.0206,0 6.8462,0 13.41359,2.71576 18.25652,7.55869 1.15652,1.16686 2.19945,2.42662 3.10815,3.76901 1.35272,-0.64021 2.86033,-1.00163 4.45054,-1.00163 h 103.26088 c 0,0 0,-82.60869 0,-82.60869 h -5.16306 c -14.26032,0 -25.81521,-11.5549 -25.81521,-25.81521 0,-0.0106 0,-0.0106 0,-0.0206 0,-14.25 11.54456,-25.79457 25.79455,-25.79457 3.09784,0 5.18372,0 5.18372,0 V 130.11971 H 14.127643 v 61.95652 h 5.183696 c 14.250001,0 25.794564,11.54456 25.794564,25.79456 0,0.0106 0,0.0106 0,0.0206 0,14.2603 -11.554891,25.81521 -25.815216,25.81521 -3.087502,0 -5.163044,0 -5.163044,0 z M 138.04067,171.42401 H 86.410253 v 92.93479 h 51.630417 z m 278.80435,0 h -51.63043 v 92.93479 h 51.63043 z m -185.86954,20.65218 h -51.63045 v 51.63043 h 51.63045 z m 92.93476,0 H 272.2798 v 51.63043 h 51.63044 z"
     id="path362"
     style="stroke-width:10.3261" /></svg>
