<?xml version="1.0" encoding="UTF-8"?>
<svg width="280px" height="280px" viewBox="0 0 280 280" version="1.1" xmlns="http://www.w3.org/2000/svg" xmlns:xlink="http://www.w3.org/1999/xlink">
    <!-- Generator: Sketch 64 (93537) - https://sketch.com -->
    <title>Icon</title>
    <desc>Created with Sketch.</desc>
    <g id="Page-1" stroke="none" stroke-width="1" fill="none" fill-rule="evenodd">
        <g id="Icon" transform="translate(65.000000, 52.000000)">
            <g id="Complete">
                <g id="Logo">
                    <path d="M52.573,121.337 L50.614,120.738 C50.101,120.581 37.913,116.782 25.737,106.782 C9.361,93.332 0.705,75.061 0.705,53.943 L0.705,0.381 L104.477,0.381 L104.477,53.943 C104.477,75.173 95.818,93.482 79.436,106.889 C67.249,116.862 55.047,120.594 54.534,120.748 L52.573,121.337 L52.573,121.337 Z M14.234,13.909 L14.234,53.943 C14.234,89.725 44.574,103.954 52.629,107.1 C60.848,103.996 90.95,90.154 90.95,53.943 L90.95,13.909 L14.234,13.909 L14.234,13.909 Z" id="Shape" fill="#FFFFFF"></path>
                    <path d="M97.696,174.899 L95.738,174.3 C95.225,174.143 83.037,170.345 70.861,160.344 C54.485,146.893 45.829,128.623 45.829,107.505 L45.829,53.943 L149.602,53.943 L149.602,107.505 C149.602,128.735 140.943,147.043 124.561,160.451 C112.374,170.425 100.172,174.157 99.659,174.31 L97.696,174.899 L97.696,174.899 Z M59.356,67.472 L59.356,107.506 C59.356,143.288 89.696,157.517 97.752,160.663 C105.971,157.559 136.073,143.717 136.073,107.506 L136.073,67.472 L59.356,67.472 L59.356,67.472 Z" id="Shape" fill="#FFFFFF"></path>
                    <circle id="Oval" fill="#FF5757" cx="71.646" cy="37.052" r="8.35"></circle>
                    <circle id="Oval" fill="#FF5757" cx="116.738" cy="93.23" r="8.35"></circle>
                    <path d="M52.573,121.337 L50.614,120.738 C50.101,120.581 37.913,116.782 25.737,106.782 C9.361,93.332 0.705,75.061 0.705,53.943 L0.705,0.381 L104.477,0.381 L104.477,53.943 C104.477,75.173 95.818,93.482 79.436,106.889 C67.249,116.862 55.047,120.594 54.534,120.748 L52.573,121.337 L52.573,121.337 Z M14.234,13.909 L14.234,53.943 C14.234,89.725 44.574,103.954 52.629,107.1 C60.848,103.996 90.95,90.154 90.95,53.943 L90.95,13.909 L14.234,13.909 L14.234,13.909 Z" id="Shape" fill="#FF5757"></path>
                    <path d="M97.696,174.899 L95.738,174.3 C95.225,174.143 83.037,170.345 70.861,160.344 C54.485,146.893 45.829,128.623 45.829,107.505 L45.829,53.943 L149.602,53.943 L149.602,107.505 C149.602,128.735 140.943,147.043 124.561,160.451 C112.374,170.425 100.172,174.157 99.659,174.31 L97.696,174.899 L97.696,174.899 Z M59.356,67.472 L59.356,107.506 C59.356,143.288 89.696,157.517 97.752,160.663 C105.971,157.559 136.073,143.717 136.073,107.506 L136.073,67.472 L59.356,67.472 L59.356,67.472 Z" id="Shape" fill="#FF5757"></path>
                    <circle id="Oval" fill="#FF5757" cx="71.646" cy="37.052" r="8.35"></circle>
                    <circle id="Oval" fill="#FF5757" cx="116.738" cy="93.23" r="8.35"></circle>
                </g>
            </g>
        </g>
    </g>
</svg>