<svg xmlns="http://www.w3.org/2000/svg" viewBox="0 -37 250 213.62"><defs><style>.cls-1{fill:#010101;}</style></defs><title>wifi</title><g id="Layer_2" data-name="Layer 2"><g id="Layer_1-2" data-name="Layer 1"><path class="cls-1" d="M134.15,154.26c4.35,5.22,4.35,13.93-1.75,18.29-5.22,4.35-13.93,4.35-18.29-1.74s-4.35-13.94,1.74-18.3S128.92,149,134.15,154.26ZM247.39,52.34C219.51,23.59,181.18,5.3,142,1,90.59-4.28,40.07,12.27,2.61,48a8.43,8.43,0,0,0,0,12.2,8.43,8.43,0,0,0,12.2,0c34-31.36,79.27-47,125.43-41.81,35.72,4.35,69.69,20,94.95,46.16a9.39,9.39,0,0,0,6.1,2.62,7.91,7.91,0,0,0,6.1-2.62A8.42,8.42,0,0,0,247.39,52.34Zm-111.5-.87a119.94,119.94,0,0,0-99.3,34,8.62,8.62,0,0,0,12.19,12.2c22.65-21.78,54-32.23,86.24-28.75a104.19,104.19,0,0,1,65.33,32.23,9.4,9.4,0,0,0,6.1,2.61,7.9,7.9,0,0,0,6.09-2.61,8.42,8.42,0,0,0,0-12.2C191.64,67.15,164.63,54.08,135.89,51.47Zm-5.23,47.91a74.42,74.42,0,0,0-61,20.9,8.62,8.62,0,0,0,12.19,12.2c13.07-12.2,29.62-18.29,47-16.55a60.42,60.42,0,0,1,35.71,17.42,9.44,9.44,0,0,0,6.1,2.61,7.92,7.92,0,0,0,6.1-2.61,8.43,8.43,0,0,0,0-12.2C164.63,109.83,148.08,102,130.66,99.38Z"/></g></g></svg>