<svg xmlns="http://www.w3.org/2000/svg" viewBox="0 0 250 250"><defs><style>.cls-1{fill:#010101;}</style></defs><title>design</title><g id="Layer_2" data-name="Layer 2"><g id="Layer_1-2" data-name="Layer 1"><rect class="cls-1" x="50" y="16.67" width="8.33" height="8.33"/><rect class="cls-1" x="66.67" y="16.67" width="8.33" height="8.33"/><rect class="cls-1" x="83.33" y="16.67" width="8.33" height="8.33"/><path class="cls-1" d="M4.17,250H133.33a4.16,4.16,0,0,0,2.95-7.11L7.11,113.72a4.17,4.17,0,0,0-7.11,3V245.83A4.17,4.17,0,0,0,4.17,250ZM8.33,126.73l115,114.94H8.33Z"/><path class="cls-1" d="M73.78,217.89,32.11,176.22A4.17,4.17,0,0,0,25,179.17v41.66A4.17,4.17,0,0,0,29.17,225H70.83a4.16,4.16,0,0,0,3-7.11Zm-40.45-1.22V189.23l27.45,27.44Z"/><path class="cls-1" d="M245.32,35.57A15.95,15.95,0,1,0,222.77,13l-6.25,6.25A20.81,20.81,0,0,0,195.83,0H54.17A20.86,20.86,0,0,0,33.33,20.83V129.17h8.34V20.83a12.5,12.5,0,0,1,12.5-12.5H195.83a12.5,12.5,0,0,1,12.5,12.5v6.61L169.11,66.67H138.48A45.81,45.81,0,1,0,91.67,129v16.87A4.17,4.17,0,0,0,95.83,150H187.5a4.17,4.17,0,0,0,4.17-4.17V89.22l16.66-16.66v85.77H112.5a4.17,4.17,0,0,0-4.17,4.17v33.33A4.17,4.17,0,0,0,112.5,200h95.83v4.17a12.5,12.5,0,0,1-12.5,12.5H129.17V225h66.66a20.86,20.86,0,0,0,20.84-20.83V200h29.16a4.17,4.17,0,0,0,4.17-4.17V162.5a4.17,4.17,0,0,0-4.17-4.17H216.67V64.22ZM228.66,18.9a7.62,7.62,0,1,1,11,10.54,2.5,2.5,0,0,1-.23.23l-1.93,1.94L226.73,20.83ZM133.33,83.33A37.53,37.53,0,0,1,100,120.59V75h32.37A37.68,37.68,0,0,1,133.33,83.33ZM91.67,70.83v49.76a37.5,37.5,0,1,1,37.7-53.92H95.83A4.16,4.16,0,0,0,91.67,70.83Zm91.66,70.84H100V129a45.65,45.65,0,0,0,41.49-49.45c-.13-1.51-.34-3-.62-4.51h19.9l-9.55,9.55a4.19,4.19,0,0,0-1.14,2.13l-4.16,20.84a4.17,4.17,0,0,0,3.27,4.9,4.36,4.36,0,0,0,.81.08,4.58,4.58,0,0,0,.83-.08l20.84-4.17a4.12,4.12,0,0,0,2.13-1.14l9.53-9.55ZM156.72,96l5.66,5.66L155.3,103ZM225,166.67V175h8.33v-8.33h8.34v25h-125v-25H125V175h8.33v-8.33h8.34V175H150v-8.33h8.33V175h8.34v-8.33H175V175h8.33v-8.33h8.34V175H200v-8.33h8.33V175h8.34v-8.33ZM170.83,98.28,160.06,87.5l60.77-60.78L231.61,37.5Z"/></g></g></svg>