<svg xmlns="http://www.w3.org/2000/svg" viewBox="0 0 222.22 250"><defs><style>.cls-1{fill:#010101;}</style></defs><title>git</title><g id="Layer_2" data-name="Layer 2"><g id="Layer_1-2" data-name="Layer 1"><path class="cls-1" d="M48.61,118.06H152.78a20.84,20.84,0,0,0,20.83-20.84V82.76a41.67,41.67,0,1,1,13.89,0V97.22a34.72,34.72,0,0,1-34.72,34.72H48.61v35.3a41.67,41.67,0,1,1-13.89,0V82.76a41.67,41.67,0,1,1,13.89,0ZM41.67,13.89A27.78,27.78,0,1,0,69.44,41.67,27.78,27.78,0,0,0,41.67,13.89Zm138.89,0a27.78,27.78,0,1,0,27.77,27.78A27.78,27.78,0,0,0,180.56,13.89ZM41.67,180.56a27.78,27.78,0,1,0,27.77,27.77A27.77,27.77,0,0,0,41.67,180.56Z"/></g></g></svg>