<svg xmlns="http://www.w3.org/2000/svg" viewBox="0 0 250 209.08"><defs><style>.cls-1{fill:#010101;}</style></defs><title>in_progress</title><g id="Layer_2" data-name="Layer 2"><g id="Layer_1-2" data-name="Layer 1"><path class="cls-1" d="M26.72,158.22,15.81,175.44a4.1,4.1,0,0,0,.55,5.17l12.2,12.17a4.11,4.11,0,0,0,5.16.58L51,182.31a60.51,60.51,0,0,0,8.5,3.5l4.42,20A4.19,4.19,0,0,0,68,209.08H85.19a4.19,4.19,0,0,0,4.09-3.25l4.44-20a53.89,53.89,0,0,0,8.34-3.5l17.38,11.06a4.12,4.12,0,0,0,5.17-.59l12.22-12.19a4.19,4.19,0,0,0,.56-5.2l-11.11-17.25a53.24,53.24,0,0,0,3.47-8.33l19.94-4.44a4.17,4.17,0,0,0,3.28-4.06V124a4.18,4.18,0,0,0-3.28-4.08l-19.94-4.45a56.1,56.1,0,0,0-3.47-8.33l11.11-17.28a4.16,4.16,0,0,0-.56-5.16L124.61,72.44a4.2,4.2,0,0,0-5.17-.66L102.19,82.72a58,58,0,0,0-8.33-3.5L89.42,59.28A4.2,4.2,0,0,0,85.33,56H68.11a4.19,4.19,0,0,0-4.22,3.28L59.44,79.17a57.22,57.22,0,0,0-8.5,3.52L33.69,71.58a4.16,4.16,0,0,0-5.16.59L16.33,84.33a4.17,4.17,0,0,0-.55,5.2l10.91,17.22a56.69,56.69,0,0,0-3.52,8.53L3.25,119.89A4.16,4.16,0,0,0,0,124v17.2a4.16,4.16,0,0,0,3.25,4.08l19.94,4.44A55.71,55.71,0,0,0,26.72,158.22ZM51,132.56a25.53,25.53,0,1,1,25.55,25.5h0A25.53,25.53,0,0,1,51,132.56Z"/><path class="cls-1" d="M246.75,46.47l-13.89-3.11a41.38,41.38,0,0,0-2.11-5l7.64-12a4.19,4.19,0,0,0-.56-5.2l-8.89-8.89a4.19,4.19,0,0,0-5.19-.55l-12,7.61a43.17,43.17,0,0,0-5.08-2.11L203.56,3.25A4.17,4.17,0,0,0,199.47,0H186.94a4.19,4.19,0,0,0-4.08,3.25l-3.08,13.89a41.67,41.67,0,0,0-5.17,2.14l-12-7.64a4.19,4.19,0,0,0-5.19.58l-8.86,8.86a4.18,4.18,0,0,0-.59,5.17l7.59,11.94a44.71,44.71,0,0,0-2.12,5.23l-13.88,3.11a4.16,4.16,0,0,0-3.25,4V63.11a4.17,4.17,0,0,0,3.27,4.06l13.89,3.11a43.51,43.51,0,0,0,2.09,5.16l-7.64,12a4.19,4.19,0,0,0,.58,5.19l8.86,8.86a4.18,4.18,0,0,0,5.2.56l12-7.61a47.49,47.49,0,0,0,5.16,2.14l3.09,13.88a4.17,4.17,0,0,0,4.08,3.25h12.53a4.16,4.16,0,0,0,4.08-3.25l3.11-13.88a41.86,41.86,0,0,0,5.08-2.12l12,7.62a4.18,4.18,0,0,0,5.2-.59l8.89-8.86a4.19,4.19,0,0,0,.55-5.19l-7.64-12a42.25,42.25,0,0,0,2.12-5.06l13.88-3.11A4.17,4.17,0,0,0,250,63.11V50.53A4.16,4.16,0,0,0,246.75,46.47ZM210.64,56.81a17.45,17.45,0,1,1-17.47-17.42h.05a17.43,17.43,0,0,1,17.36,17.42Z"/></g></g></svg>