<svg xmlns="http://www.w3.org/2000/svg" viewBox="0 0 250 251.8"><defs><style>.cls-1{fill:#010101;}</style></defs><title>utilities</title><g id="Layer_2" data-name="Layer 2"><g id="Layer_1-2" data-name="Layer 1"><path class="cls-1" d="M24.12,61.74.58,22.49,16.28,6.8,55.52,30.34V46L95.88,86.4v3.37L81.31,103.22,39.82,61.74ZM192.31,157h-9A124.41,124.41,0,0,1,162,154.8l-23.54,26.91,52.7,59.42c12.33,13.46,33.63,14.58,46,1.12,13.45-13.45,12.33-33.63-1.12-46Zm38.12-42.6C248.37,96.5,254,69.59,247.25,46c-1.12-4.48-6.73-5.61-9-2.24L199,83l-31.4-31.39L206.88,12.4c3.37-3.36,2.25-7.85-2.24-9-23.54-7.84-50.45-2.24-68.39,16.82-20.19,20.18-24.67,51.58-13.46,76.25L10.67,196.28c-13.46,12.34-14.58,33.64-1.12,46h0c13.45,13.46,33.63,12.34,46-1.12L155.31,129A65.69,65.69,0,0,0,230.43,114.44Z"/></g></g></svg>